M48
; DRILL file {KiCad 7.0.7} date Fri Feb 21 09:52:24 2025
; FORMAT={-:-/ absolute / metric / decimal}
; #@! TF.CreationDate,2025-02-21T09:52:24+09:00
; #@! TF.GenerationSoftware,Kicad,Pcbnew,7.0.7
; #@! TF.FileFunction,MixedPlating,1,2
FMAT,2
METRIC
; #@! TA.AperFunction,Plated,PTH,ViaDrill
T1C0.300
; #@! TA.AperFunction,Plated,PTH,ComponentDrill
T2C0.800
; #@! TA.AperFunction,Plated,PTH,ComponentDrill
T3C0.900
; #@! TA.AperFunction,Plated,PTH,ComponentDrill
T4C1.000
%
G90
G05
T1
X1.11Y46.5
X1.24Y27.27
X1.258Y41.08
X1.788Y42.31
X1.788Y33.931
X2.29Y11.3
X2.31Y48.44
X2.319Y33.39
X2.849Y28.99
X2.86Y41.78
X3.38Y28.31
X3.386Y39.93
X4.34Y37.39
X4.973Y58.449
X5.34Y51.33
X5.71Y35.45
X5.73Y58.47
X5.944Y31.978
X12.1Y17.07
X12.1Y14.25
X12.5Y47.54
X12.51Y41.78
X12.62Y52.25
X12.65Y32.41
X12.83Y24.57
X13.41Y14.61
X13.42Y19.62
X13.69Y57.05
X13.69Y53.89
X13.78Y65.69
X13.97Y22.15
X13.97Y17.11
X13.97Y50.09
X13.97Y26.68
X14.501Y15.66
X14.51Y52.64
X15.032Y20.85
X15.032Y18.12
X15.04Y33.47
X15.049Y54.64
X15.41Y59.99
X15.58Y16.579
X16.24Y37.4
X16.24Y34.02
X16.31Y48.77
X16.31Y43.11
X16.33Y30.559
X16.33Y21.48
X16.436Y60.628
X16.436Y56.806
X17.39Y45.02
X17.4Y67.8
X17.41Y11.36
X18.54Y66.846
X18.54Y54.1
X18.54Y27.24
X19.13Y66.36
X19.13Y51.59
X19.13Y29.78
X19.65Y32.32
X19.66Y48.59
X19.661Y65.82
X20.38Y65.289
X20.38Y46.1
X20.38Y34.86
X20.47Y18.44
X20.74Y22.23
X20.8Y24.79
X21.109Y64.759
X21.109Y43.875
X21.11Y37.39
X21.64Y63.55
X21.64Y39.935
X22.13Y14.53
X22.24Y63.08
X22.27Y42.475
X22.79Y45.008
X22.79Y38.432
X22.8Y61.69
X23.35Y18.89
X23.365Y62.795
X23.881Y55.2
X24.0Y19.66
X24.55Y5.72
X29.94Y55.745
X30.12Y50.13
X30.48Y58.91
X30.48Y45.53
X30.48Y39.92
X30.79Y38.45
X30.79Y29.0
X30.87Y48.3
X31.07Y43.71
X31.21Y53.32
X31.255Y62.989
X31.58Y26.12
X31.63Y42.02
X31.67Y24.45
X31.7Y54.74
X31.78Y34.85
X31.78Y27.48
X33.31Y19.33
X33.32Y16.39
X34.3Y10.2
X35.75Y22.51
X36.85Y39.48
X36.86Y21.68
X38.57Y47.19
X38.57Y35.84
X38.57Y26.78
X38.58Y16.7
X39.66Y31.88
X39.678Y29.32
X41.57Y10.91
X41.64Y20.02
X41.73Y67.8
X42.684Y66.83
X43.25Y66.3
X43.71Y58.91
X43.8Y65.77
X44.31Y44.63
X44.31Y23.93
X44.34Y65.24
X44.49Y56.87
X44.89Y64.71
X45.01Y22.22
X45.23Y37.02
X45.23Y29.929
X45.45Y64.17
X45.76Y11.12
X46.0Y63.64
X46.542Y63.111
X47.87Y9.27
X48.401Y10.25
X48.57Y33.101
X48.63Y48.28
X48.63Y40.82
X48.67Y28.68
X48.7Y52.04
X49.71Y20.85
X49.83Y26.86
X49.96Y4.85
X49.97Y16.69
X50.36Y24.31
X50.91Y21.76
X51.441Y19.251
X51.99Y16.72
X52.32Y10.71
X52.521Y19.781
X52.97Y55.12
X53.051Y22.301
X53.59Y24.841
X53.77Y20.71
X54.13Y59.489
X54.13Y49.71
X54.139Y23.23
X54.28Y61.34
X54.525Y15.905
X54.68Y58.94
X54.68Y47.17
X55.211Y58.383
X55.32Y44.62
X55.33Y17.76
X55.83Y15.9
X55.88Y57.8
X55.88Y42.09
X56.43Y57.28
X56.43Y39.55
X56.43Y13.451
X57.02Y62.8
X57.02Y37.01
X57.02Y12.38
X57.72Y63.45
X57.72Y31.929
X57.75Y12.92
X58.7Y28.6
X59.07Y38.04
X59.07Y34.47
X59.52Y53.99
X59.63Y25.38
X59.64Y23.01
X59.66Y20.41
X59.66Y17.83
X60.05Y9.16
X60.35Y47.17
X60.35Y35.53
X60.86Y60.02
X61.94Y67.8
X63.7Y61.34
X64.55Y33.06
X64.59Y66.42
T2
X2.92Y64.86
X2.92Y62.32
X2.92Y59.78
X2.92Y57.24
X2.92Y54.7
X4.34Y46.27
X4.34Y43.77
X9.7Y9.17
X9.7Y6.11
X9.71Y3.04
X10.331Y62.795
X10.331Y60.255
X10.331Y57.715
X10.331Y55.175
X10.331Y52.635
X10.331Y50.095
X10.331Y47.555
X10.331Y45.015
X10.331Y42.475
X10.331Y39.935
X10.331Y37.395
X10.331Y34.855
X10.331Y32.315
X10.331Y29.775
X10.331Y27.235
X10.331Y24.695
X10.331Y22.155
X10.331Y19.615
X10.331Y17.075
X10.331Y14.535
X17.32Y9.17
X17.32Y6.11
X17.33Y3.04
X25.571Y62.795
X25.571Y60.255
X25.571Y57.715
X25.571Y55.175
X25.571Y52.635
X25.571Y50.095
X25.571Y47.555
X25.571Y45.015
X25.571Y42.475
X25.571Y39.935
X25.571Y37.395
X25.571Y34.855
X25.571Y32.315
X25.571Y29.775
X25.571Y27.235
X25.571Y24.695
X25.571Y22.155
X25.571Y19.615
X25.571Y17.075
X25.571Y14.535
X32.12Y61.34
X34.11Y54.72
X34.11Y52.18
X34.11Y49.64
X34.11Y47.1
X34.11Y44.56
X34.11Y42.02
X34.11Y39.48
X34.11Y36.94
X34.11Y34.4
X34.11Y31.86
X34.11Y29.32
X34.11Y26.78
X39.23Y57.85
X39.74Y61.34
X41.73Y57.85
X41.73Y54.72
X41.73Y52.18
X41.73Y49.64
X41.73Y47.1
X41.73Y44.56
X41.73Y42.02
X41.73Y39.48
X41.73Y36.94
X41.73Y34.4
X41.73Y31.86
X41.73Y29.32
X41.73Y26.78
X46.699Y54.79
X46.699Y52.25
X46.699Y49.71
X46.699Y47.17
X46.699Y44.63
X46.699Y42.09
X46.699Y39.55
X46.699Y37.01
X46.699Y34.47
X46.699Y31.93
X46.699Y29.39
X46.699Y26.85
X46.699Y24.31
X46.699Y21.77
X46.699Y19.23
X46.699Y16.69
X54.3Y65.45
X61.92Y65.45
X61.939Y54.79
X61.939Y52.25
X61.939Y49.71
X61.939Y47.17
X61.939Y44.63
X61.939Y42.09
X61.939Y39.55
X61.939Y37.01
X61.939Y34.47
X61.939Y31.93
X61.939Y29.39
X61.939Y26.85
X61.939Y24.31
X61.939Y21.77
X61.939Y19.23
X61.939Y16.69
X64.55Y54.79
X64.55Y52.29
T3
X4.06Y24.16
X4.06Y21.62
X4.06Y16.51
X4.06Y13.97
X4.06Y9.34
X4.06Y6.8
T4
X7.791Y62.795
X7.791Y60.255
X7.791Y57.715
X7.791Y55.175
X7.791Y52.635
X7.791Y50.095
X7.791Y47.555
X7.791Y45.015
X7.791Y42.475
X7.791Y39.935
X7.791Y37.395
X7.791Y34.855
X7.791Y32.315
X7.791Y29.775
X7.791Y27.235
X7.791Y24.695
X7.791Y22.155
X7.791Y19.615
X7.791Y17.075
X7.791Y14.535
X28.111Y62.795
X28.111Y60.255
X28.111Y57.715
X28.111Y55.175
X28.111Y52.635
X28.111Y50.095
X28.111Y47.555
X28.111Y45.015
X28.111Y42.475
X28.111Y39.935
X28.111Y37.395
X28.111Y34.855
X28.111Y32.315
X28.111Y29.775
X28.111Y27.235
X28.111Y24.695
X28.111Y22.155
X28.111Y19.615
X28.111Y17.075
X28.111Y14.535
X31.2Y6.61
X33.74Y6.61
X36.28Y6.61
X38.82Y6.61
X41.36Y6.61
X43.9Y6.61
T0
M30
