%TF.GenerationSoftware,KiCad,Pcbnew,7.0.7*%
%TF.CreationDate,2025-02-21T09:52:26+09:00*%
%TF.ProjectId,w65c_Rev1.6,77363563-5f52-4657-9631-2e362e6b6963,Rev1.6*%
%TF.SameCoordinates,PX5f6f270PY775a330*%
%TF.FileFunction,Copper,L2,Bot*%
%TF.FilePolarity,Positive*%
%FSLAX46Y46*%
G04 Gerber Fmt 4.6, Leading zero omitted, Abs format (unit mm)*
G04 Created by KiCad (PCBNEW 7.0.7) date 2025-02-21 09:52:26*
%MOMM*%
%LPD*%
G01*
G04 APERTURE LIST*
%TA.AperFunction,ComponentPad*%
%ADD10R,1.800000X1.800000*%
%TD*%
%TA.AperFunction,ComponentPad*%
%ADD11C,1.800000*%
%TD*%
%TA.AperFunction,ComponentPad*%
%ADD12C,1.600000*%
%TD*%
%TA.AperFunction,ComponentPad*%
%ADD13O,1.600000X1.600000*%
%TD*%
%TA.AperFunction,ComponentPad*%
%ADD14R,1.600000X1.600000*%
%TD*%
%TA.AperFunction,ComponentPad*%
%ADD15R,1.700000X1.700000*%
%TD*%
%TA.AperFunction,ComponentPad*%
%ADD16O,1.700000X1.700000*%
%TD*%
%TA.AperFunction,ViaPad*%
%ADD17C,0.605000*%
%TD*%
%TA.AperFunction,Conductor*%
%ADD18C,1.000000*%
%TD*%
%TA.AperFunction,Conductor*%
%ADD19C,0.800000*%
%TD*%
%TA.AperFunction,Conductor*%
%ADD20C,0.152400*%
%TD*%
G04 APERTURE END LIST*
D10*
X4060000Y24160000D03*
D11*
X4060000Y21620000D03*
D12*
X9700000Y6110000D03*
D13*
X17320000Y6110000D03*
D12*
X17330000Y3040000D03*
D13*
X9710000Y3040000D03*
D12*
X61920000Y65450000D03*
D13*
X54300000Y65450000D03*
D12*
X39740000Y61340000D03*
D13*
X32120000Y61340000D03*
D10*
X4060000Y16510000D03*
D11*
X4060000Y13970000D03*
D10*
X4060000Y9340000D03*
D11*
X4060000Y6800000D03*
D12*
X41730000Y57850000D03*
X39230000Y57850000D03*
X64550000Y54790000D03*
X64550000Y52290000D03*
D14*
X2920000Y64860000D03*
D13*
X2920000Y62320000D03*
X2920000Y59780000D03*
X2920000Y57240000D03*
X2920000Y54700000D03*
D14*
X10331000Y62795000D03*
D13*
X10331000Y60255000D03*
X10331000Y57715000D03*
X10331000Y55175000D03*
X10331000Y52635000D03*
X10331000Y50095000D03*
X10331000Y47555000D03*
X10331000Y45015000D03*
X10331000Y42475000D03*
X10331000Y39935000D03*
X10331000Y37395000D03*
X10331000Y34855000D03*
X10331000Y32315000D03*
X10331000Y29775000D03*
X10331000Y27235000D03*
X10331000Y24695000D03*
X10331000Y22155000D03*
X10331000Y19615000D03*
X10331000Y17075000D03*
X10331000Y14535000D03*
X25571000Y14535000D03*
X25571000Y17075000D03*
X25571000Y19615000D03*
X25571000Y22155000D03*
X25571000Y24695000D03*
X25571000Y27235000D03*
X25571000Y29775000D03*
X25571000Y32315000D03*
X25571000Y34855000D03*
X25571000Y37395000D03*
X25571000Y39935000D03*
X25571000Y42475000D03*
X25571000Y45015000D03*
X25571000Y47555000D03*
X25571000Y50095000D03*
X25571000Y52635000D03*
X25571000Y55175000D03*
X25571000Y57715000D03*
X25571000Y60255000D03*
X25571000Y62795000D03*
D12*
X17320000Y9170000D03*
D13*
X9700000Y9170000D03*
D15*
X43900000Y6610000D03*
D16*
X41360000Y6610000D03*
X38820000Y6610000D03*
X36280000Y6610000D03*
X33740000Y6610000D03*
X31200000Y6610000D03*
D14*
X46699000Y54790000D03*
D13*
X46699000Y52250000D03*
X46699000Y49710000D03*
X46699000Y47170000D03*
X46699000Y44630000D03*
X46699000Y42090000D03*
X46699000Y39550000D03*
X46699000Y37010000D03*
X46699000Y34470000D03*
X46699000Y31930000D03*
X46699000Y29390000D03*
X46699000Y26850000D03*
X46699000Y24310000D03*
X46699000Y21770000D03*
X46699000Y19230000D03*
X46699000Y16690000D03*
X61939000Y16690000D03*
X61939000Y19230000D03*
X61939000Y21770000D03*
X61939000Y24310000D03*
X61939000Y26850000D03*
X61939000Y29390000D03*
X61939000Y31930000D03*
X61939000Y34470000D03*
X61939000Y37010000D03*
X61939000Y39550000D03*
X61939000Y42090000D03*
X61939000Y44630000D03*
X61939000Y47170000D03*
X61939000Y49710000D03*
X61939000Y52250000D03*
X61939000Y54790000D03*
D14*
X34110000Y54720000D03*
D13*
X34110000Y52180000D03*
X34110000Y49640000D03*
X34110000Y47100000D03*
X34110000Y44560000D03*
X34110000Y42020000D03*
X34110000Y39480000D03*
X34110000Y36940000D03*
X34110000Y34400000D03*
X34110000Y31860000D03*
X34110000Y29320000D03*
X34110000Y26780000D03*
X41730000Y26780000D03*
X41730000Y29320000D03*
X41730000Y31860000D03*
X41730000Y34400000D03*
X41730000Y36940000D03*
X41730000Y39480000D03*
X41730000Y42020000D03*
X41730000Y44560000D03*
X41730000Y47100000D03*
X41730000Y49640000D03*
X41730000Y52180000D03*
X41730000Y54720000D03*
D12*
X4340000Y43770000D03*
X4340000Y46270000D03*
D15*
X28111000Y62795000D03*
D16*
X28111000Y60255000D03*
X28111000Y57715000D03*
X28111000Y55175000D03*
X28111000Y52635000D03*
X28111000Y50095000D03*
X28111000Y47555000D03*
X28111000Y45015000D03*
X28111000Y42475000D03*
X28111000Y39935000D03*
X28111000Y37395000D03*
X28111000Y34855000D03*
X28111000Y32315000D03*
X28111000Y29775000D03*
X28111000Y27235000D03*
X28111000Y24695000D03*
X28111000Y22155000D03*
X28111000Y19615000D03*
X28111000Y17075000D03*
X28111000Y14535000D03*
D15*
X7791000Y62795000D03*
D16*
X7791000Y60255000D03*
X7791000Y57715000D03*
X7791000Y55175000D03*
X7791000Y52635000D03*
X7791000Y50095000D03*
X7791000Y47555000D03*
X7791000Y45015000D03*
X7791000Y42475000D03*
X7791000Y39935000D03*
X7791000Y37395000D03*
X7791000Y34855000D03*
X7791000Y32315000D03*
X7791000Y29775000D03*
X7791000Y27235000D03*
X7791000Y24695000D03*
X7791000Y22155000D03*
X7791000Y19615000D03*
X7791000Y17075000D03*
X7791000Y14535000D03*
D17*
X17400000Y67800000D03*
X2290000Y11300000D03*
X41730000Y67800000D03*
X61940000Y67800000D03*
X17409998Y11359999D03*
X4340000Y37390000D03*
X17390000Y45020000D03*
X59660000Y20410000D03*
X63700000Y61340000D03*
X52970000Y55120000D03*
X49710000Y20850000D03*
X53770000Y20710000D03*
X48570000Y33100900D03*
X64590000Y66420000D03*
X59660000Y17830000D03*
X59640000Y23010000D03*
X54280000Y61340000D03*
X31700000Y54740000D03*
X64550000Y33060000D03*
X48630000Y48280000D03*
X38570000Y35840000D03*
X5710000Y35450000D03*
X49960000Y4850016D03*
X41640000Y20020000D03*
X31780000Y27480000D03*
X49970000Y16690000D03*
X20740000Y22230000D03*
X12620000Y52250000D03*
X31780000Y34850000D03*
X12830000Y24570000D03*
X33310000Y19330000D03*
X48670000Y28680000D03*
X20470000Y18440000D03*
X31670000Y24450000D03*
X45760000Y11120000D03*
X30120000Y50130000D03*
X33320000Y16390000D03*
X12510000Y41780000D03*
X60050000Y9160000D03*
X12650000Y32410000D03*
X34300000Y10200000D03*
X20800000Y24790000D03*
X41570000Y10910000D03*
X1110000Y46500000D03*
X38580000Y16700000D03*
X22130000Y14530000D03*
X48700000Y52040000D03*
X12500000Y47540000D03*
X13780000Y65690000D03*
X5340000Y51330000D03*
X5943700Y31978312D03*
X38570000Y47190000D03*
X38570000Y26780000D03*
X59520000Y53990000D03*
X48630000Y40820000D03*
X52320000Y10710000D03*
X24550000Y5720000D03*
X30870000Y48300000D03*
X58700000Y28600000D03*
X57020000Y62800000D03*
X57020000Y12380000D03*
X57020000Y37010000D03*
X54525000Y15905000D03*
X16435600Y56805800D03*
X16435600Y60628300D03*
X54680000Y47170000D03*
X54680000Y58940000D03*
X55330000Y17760000D03*
X55210600Y58382672D03*
X55320000Y44620000D03*
X54130000Y59489400D03*
X54130000Y49710000D03*
X5730000Y58470000D03*
X54139400Y23230000D03*
X60860000Y60020000D03*
X4973389Y58448983D03*
X59630000Y25380000D03*
X16310000Y43110000D03*
X31630000Y42020000D03*
X31070000Y43710000D03*
X16310000Y48770000D03*
X45230000Y37020000D03*
X45230000Y29929400D03*
X2310000Y48440000D03*
X2318800Y33390000D03*
X1788200Y42310000D03*
X1788200Y33930896D03*
X30790000Y29000000D03*
X30790000Y38450000D03*
X2849400Y28990000D03*
X2860000Y41780000D03*
X3380000Y28310000D03*
X3385600Y39930000D03*
X16240000Y34020000D03*
X16240000Y37400000D03*
X44310000Y44630000D03*
X44310000Y23930000D03*
X45010000Y22220000D03*
X16330000Y21480000D03*
X16330000Y30559400D03*
X1240000Y27270000D03*
X1257600Y41080000D03*
X31580000Y26120000D03*
X39660000Y31880000D03*
X36860000Y21680000D03*
X15031700Y20850000D03*
X36850000Y39480000D03*
X15031700Y18120000D03*
X14501100Y15660000D03*
X14510000Y52640000D03*
X12100000Y17070000D03*
X57720000Y63450000D03*
X57750000Y12920000D03*
X31255191Y62989400D03*
X12100000Y14250000D03*
X57720000Y31928900D03*
X44490000Y56870000D03*
X30480000Y58910000D03*
X13410000Y14610000D03*
X13420000Y19620000D03*
X56430000Y39550000D03*
X56430000Y13450600D03*
X56430000Y57280000D03*
X43710000Y58910000D03*
X29940000Y55744600D03*
X13970000Y17110000D03*
X55880000Y57800000D03*
X55830000Y15900000D03*
X55880000Y42090000D03*
X13970000Y22150000D03*
X18540000Y27240000D03*
X42684400Y66830000D03*
X49830000Y26860000D03*
X18540000Y66845600D03*
X18540000Y54100000D03*
X19130000Y66360000D03*
X19130000Y29780000D03*
X50360000Y24310000D03*
X19130000Y51590000D03*
X43250000Y66300000D03*
X19650000Y32320000D03*
X50910000Y21760000D03*
X19660600Y65820000D03*
X19660000Y48590000D03*
X43800000Y65770000D03*
X20380000Y65289400D03*
X20380000Y46100000D03*
X51441100Y19251100D03*
X44340284Y65239910D03*
X20380000Y34860000D03*
X21109400Y64758800D03*
X51990000Y16720000D03*
X21110000Y37390000D03*
X44890000Y64710000D03*
X21109400Y43875000D03*
X45450000Y64170000D03*
X21640000Y63550000D03*
X21640000Y39935000D03*
X52520600Y19780600D03*
X47870000Y9270000D03*
X46000000Y63640000D03*
X22270000Y42475000D03*
X53051200Y22300600D03*
X22240000Y63080000D03*
X30480000Y39920000D03*
X30480000Y45530000D03*
X53590000Y24840600D03*
X22790000Y45007500D03*
X48400600Y10250000D03*
X46541620Y63111275D03*
X22800000Y61690000D03*
X22790000Y38432500D03*
X15040000Y33470000D03*
X15049400Y54640000D03*
X13970500Y50090000D03*
X13970500Y26680000D03*
X35750000Y22510000D03*
X23350000Y18890000D03*
X23365000Y62795000D03*
X15580000Y16579400D03*
X15410000Y59990000D03*
X39678000Y29320000D03*
X23880600Y55200000D03*
X24000000Y19660000D03*
X13690000Y57050000D03*
X13690000Y53890000D03*
X59070000Y34470000D03*
X59070000Y38040000D03*
X31210000Y53320000D03*
X60350000Y35530000D03*
X60350000Y47170000D03*
D18*
X61920000Y65450000D02*
X61920000Y54809000D01*
X4350000Y37380000D02*
X4350000Y27929567D01*
X17390000Y11379997D02*
X17409998Y11359999D01*
X17320000Y9170000D02*
X17320000Y6110000D01*
X17390000Y11479996D02*
X17390000Y11379997D01*
X4340000Y37390000D02*
X4340000Y43770000D01*
X17409998Y9259998D02*
X17320000Y9170000D01*
X17409998Y11359999D02*
X17409998Y9259998D01*
X4350000Y27929567D02*
X2290000Y25869567D01*
X41730000Y57850000D02*
X41730000Y67800000D01*
X61920000Y54809000D02*
X61939000Y54790000D01*
X41730000Y57850000D02*
X41730000Y54720000D01*
X17390000Y67790000D02*
X17390000Y45020000D01*
X61940000Y67800000D02*
X61940000Y65470000D01*
X17400000Y67800000D02*
X17390000Y67790000D01*
X2290000Y25869567D02*
X2290000Y11300000D01*
X17390000Y45020000D02*
X17390000Y11479996D01*
X25620000Y6610000D02*
X31200000Y6610000D01*
X38570000Y47190000D02*
X38570000Y57190000D01*
X49970000Y16690000D02*
X49960000Y16680000D01*
X25571000Y6659000D02*
X25620000Y6610000D01*
X49960000Y16680000D02*
X49960000Y4850016D01*
X38570000Y26780000D02*
X38570000Y16710000D01*
X25571000Y12239000D02*
X38580000Y12239000D01*
X54280000Y61340000D02*
X54280000Y65430000D01*
X25571000Y14535000D02*
X25571000Y12239000D01*
X38580000Y12239000D02*
X38580000Y16700000D01*
X38570000Y26780000D02*
X38570000Y35840000D01*
X38570000Y35840000D02*
X38570000Y47190000D01*
X39730000Y58350000D02*
X39730000Y61330000D01*
D19*
X66020000Y53760000D02*
X64550000Y52290000D01*
D18*
X54280000Y65430000D02*
X54300000Y65450000D01*
D19*
X66020000Y59030000D02*
X66020000Y53760000D01*
D18*
X25571000Y12239000D02*
X25571000Y6659000D01*
D19*
X63710000Y61340000D02*
X66020000Y59030000D01*
D18*
X38570000Y57190000D02*
X39230000Y57850000D01*
X31780000Y27480000D02*
X31780000Y34850000D01*
X39230000Y57850000D02*
X39730000Y58350000D01*
D20*
X4060000Y12940000D02*
X4060000Y13970000D01*
X9700000Y9170000D02*
X7830000Y9170000D01*
X7830000Y9170000D02*
X4060000Y12940000D01*
X10810000Y7220000D02*
X10810000Y9750000D01*
X9700000Y6110000D02*
X10810000Y7220000D01*
X5430000Y20250000D02*
X4060000Y21620000D01*
X5430000Y15130000D02*
X5430000Y20250000D01*
X10810000Y9750000D02*
X5430000Y15130000D01*
X57020000Y62800000D02*
X57020000Y37010000D01*
X57020000Y12380000D02*
X57020000Y37010000D01*
X54670000Y16050000D02*
X54670000Y47160000D01*
X16435600Y60628300D02*
X16435600Y56805800D01*
X54680000Y47170000D02*
X54680000Y58940000D01*
X54525000Y15905000D02*
X54670000Y16050000D01*
X55320000Y58273272D02*
X55210600Y58382672D01*
X55320000Y44620000D02*
X55320000Y58273272D01*
X55330000Y17760000D02*
X55330000Y44610000D01*
X55330000Y44610000D02*
X55320000Y44620000D01*
X54130000Y49710000D02*
X54130000Y59489400D01*
X6015000Y55175000D02*
X7791000Y55175000D01*
X54139400Y23230000D02*
X54139400Y49700600D01*
X5730000Y55460000D02*
X6015000Y55175000D01*
X54139400Y49700600D02*
X54130000Y49710000D01*
X5730000Y58470000D02*
X5730000Y55460000D01*
X59630000Y25380000D02*
X59660000Y25410000D01*
X59660000Y25410000D02*
X59660000Y49971000D01*
X59660000Y49971000D02*
X61939000Y52250000D01*
X61939000Y52250000D02*
X60860000Y53329000D01*
X60860000Y53329000D02*
X60860000Y60020000D01*
X4973389Y55452611D02*
X7791000Y52635000D01*
X4973389Y58448983D02*
X4973389Y55452611D01*
X16310000Y43110000D02*
X16310000Y48770000D01*
X31630000Y42020000D02*
X31630000Y43150000D01*
X31630000Y43150000D02*
X31070000Y43710000D01*
X2310000Y48440000D02*
X2318800Y48431200D01*
X45230000Y37020000D02*
X45230000Y29929400D01*
X2318800Y48431200D02*
X2318800Y33390000D01*
X1788200Y42310000D02*
X1788200Y33930896D01*
X30790000Y38450000D02*
X30790000Y29000000D01*
X2849400Y28990000D02*
X2849400Y41779400D01*
X3380000Y28310000D02*
X3380000Y39924400D01*
X3380000Y39924400D02*
X3385600Y39930000D01*
X16240000Y34020000D02*
X16240000Y37400000D01*
X7100000Y25970000D02*
X9056000Y25970000D01*
X5604900Y30128900D02*
X5604900Y27465100D01*
X7791000Y32315000D02*
X5604900Y30128900D01*
X44310000Y44630000D02*
X44310000Y23930000D01*
X9056000Y25970000D02*
X10331000Y24695000D01*
X5604900Y27465100D02*
X7100000Y25970000D01*
X9090000Y41234000D02*
X10331000Y42475000D01*
X16330000Y21480000D02*
X16330000Y30559400D01*
X45010000Y25161000D02*
X45010000Y22220000D01*
X46699000Y26850000D02*
X45010000Y25161000D01*
X7791000Y29775000D02*
X9090000Y31074000D01*
X9090000Y31074000D02*
X9090000Y41234000D01*
X1257600Y41080000D02*
X1240000Y41062400D01*
X1240000Y41062400D02*
X1240000Y27270000D01*
X40208600Y26561400D02*
X43900000Y22870000D01*
X32550000Y30300000D02*
X32550000Y27090000D01*
X34110000Y31860000D02*
X32550000Y30300000D01*
X32550000Y27090000D02*
X31580000Y26120000D01*
X43900000Y22870000D02*
X43900000Y6610000D01*
X39660000Y31880000D02*
X40208600Y31331400D01*
X40208600Y31331400D02*
X40208600Y26561400D01*
X36848900Y21691100D02*
X36848900Y39478900D01*
X36848900Y39478900D02*
X36850000Y39480000D01*
X15031700Y18120000D02*
X15031700Y20850000D01*
X36860000Y21680000D02*
X36848900Y21691100D01*
X32450000Y51530000D02*
X32560000Y51420000D01*
X14501100Y5868900D02*
X14501100Y15660000D01*
X32560000Y38490000D02*
X34110000Y36940000D01*
X32560000Y51420000D02*
X32560000Y38490000D01*
X25571000Y52635000D02*
X26676000Y51530000D01*
X26676000Y51530000D02*
X32450000Y51530000D01*
X17330000Y3040000D02*
X14501100Y5868900D01*
X14501100Y52631100D02*
X14510000Y52640000D01*
X14501100Y15660000D02*
X14501100Y52631100D01*
X12100000Y17070000D02*
X12100000Y14250000D01*
X31060791Y62795000D02*
X28111000Y62795000D01*
X57720000Y63450000D02*
X57720000Y31928900D01*
X57750000Y12920000D02*
X57750000Y31898900D01*
X57750000Y31898900D02*
X57720000Y31928900D01*
X31255191Y62989400D02*
X31060791Y62795000D01*
X30480000Y58910000D02*
X29135000Y60255000D01*
X43710000Y57650000D02*
X43710000Y58910000D01*
X56430000Y13450600D02*
X56430000Y39550000D01*
X56430000Y39550000D02*
X56430000Y57280000D01*
X13420000Y19620000D02*
X13420000Y14650000D01*
X29135000Y60255000D02*
X28111000Y60255000D01*
X13420000Y14650000D02*
X13420000Y14620000D01*
X44490000Y56870000D02*
X43710000Y57650000D01*
X13420000Y14620000D02*
X13410000Y14610000D01*
X55880000Y15950000D02*
X55880000Y42090000D01*
X29940000Y55744600D02*
X29940000Y55886000D01*
X55880000Y57800000D02*
X55880000Y42090000D01*
X55830000Y15900000D02*
X55880000Y15950000D01*
X29940000Y55886000D02*
X28111000Y57715000D01*
X13970000Y22150000D02*
X13970000Y17110000D01*
X42684400Y66830000D02*
X42684400Y60727890D01*
X18540000Y54100000D02*
X18540000Y66845600D01*
X42684400Y60727890D02*
X49830000Y53582290D01*
X49830000Y53582290D02*
X49830000Y26860000D01*
X18540000Y54100000D02*
X18540000Y27240000D01*
X19130000Y51590000D02*
X19130000Y66360000D01*
X43250000Y60593342D02*
X50361100Y53482242D01*
X50361100Y53482242D02*
X50361100Y24311100D01*
X43250000Y66300000D02*
X43250000Y60593342D01*
X19118900Y51578900D02*
X19118900Y29791100D01*
X19130000Y51590000D02*
X19118900Y51578900D01*
X50361100Y24311100D02*
X50360000Y24310000D01*
X19660000Y48590000D02*
X19661100Y48591100D01*
X19661100Y48591100D02*
X19661100Y65819500D01*
X50910000Y53364394D02*
X50910000Y21760000D01*
X43800000Y60474394D02*
X50910000Y53364394D01*
X43800000Y65770000D02*
X43800000Y60474394D01*
X19650000Y32320000D02*
X19650000Y48580000D01*
X20380000Y34860000D02*
X20380000Y46100000D01*
X20380000Y46100000D02*
X20380000Y65289400D01*
X44340284Y60365162D02*
X51441100Y53264346D01*
X44340284Y65239910D02*
X44340284Y60365162D01*
X51441100Y53264346D02*
X51441100Y19251100D01*
X51990000Y53146498D02*
X51990000Y16720000D01*
X44890000Y60246498D02*
X51990000Y53146498D01*
X21108900Y37391100D02*
X21108900Y43874500D01*
X44890000Y64710000D02*
X44890000Y60246498D01*
X21109400Y43875000D02*
X21109400Y64758800D01*
X46699000Y19230000D02*
X45610000Y19230000D01*
X21640000Y39935000D02*
X21640000Y63510000D01*
X45450000Y64170000D02*
X45450000Y60117550D01*
X42950000Y28100000D02*
X41730000Y29320000D01*
X52520600Y53046950D02*
X52520600Y19780600D01*
X44204800Y20635200D02*
X44204800Y23284111D01*
X44204800Y23284111D02*
X42950000Y24538911D01*
X45610000Y19230000D02*
X44204800Y20635200D01*
X42950000Y24538911D02*
X42950000Y28100000D01*
X21640000Y63510000D02*
X21640000Y63550000D01*
X45450000Y60117550D02*
X52520600Y53046950D01*
X46000000Y59998602D02*
X53051200Y52947402D01*
X22240000Y44806411D02*
X22240000Y62040000D01*
X47870000Y20599000D02*
X46699000Y21770000D01*
X30480000Y39920000D02*
X30480000Y45530000D01*
X53051200Y52947402D02*
X53051200Y22300600D01*
X46000000Y63640000D02*
X46000000Y59998602D01*
X47870000Y9270000D02*
X47870000Y20599000D01*
X22270000Y42475000D02*
X22270000Y44776411D01*
X22270000Y44776411D02*
X22240000Y44806411D01*
X22240000Y62040000D02*
X22240000Y63080000D01*
X28111000Y39935000D02*
X25571000Y42475000D01*
X46541620Y63111275D02*
X46304800Y62874455D01*
X22880000Y38522500D02*
X22790000Y38432500D01*
X47727600Y23281400D02*
X46699000Y24310000D01*
X46304800Y60124854D02*
X46994827Y59434827D01*
X46994827Y59434827D02*
X53590000Y52839654D01*
X46304800Y62874455D02*
X46304800Y60124854D01*
X53590000Y52839654D02*
X53590000Y24840600D01*
X22790000Y61680000D02*
X22800000Y61690000D01*
X48400600Y22608400D02*
X48400600Y10250000D01*
X22880000Y44917500D02*
X22880000Y38522500D01*
X22790000Y45007500D02*
X22790000Y61680000D01*
X22790000Y45007500D02*
X22880000Y44917500D01*
X47727600Y23281400D02*
X48400600Y22608400D01*
X15041100Y33471100D02*
X15040000Y33470000D01*
X15041100Y54631700D02*
X15041100Y33471100D01*
X13970500Y50090000D02*
X13970500Y26680000D01*
X35750000Y22510000D02*
X35750000Y50540000D01*
X35750000Y50540000D02*
X34110000Y52180000D01*
X32120000Y61340000D02*
X27026000Y61340000D01*
X23350000Y18890000D02*
X23350000Y62780000D01*
X23350000Y62780000D02*
X23365000Y62795000D01*
X27026000Y61340000D02*
X25571000Y62795000D01*
X3800000Y61440000D02*
X2920000Y62320000D01*
X15580000Y16579400D02*
X15580000Y59820000D01*
X15580000Y59820000D02*
X15410000Y59990000D01*
X9146000Y61440000D02*
X3800000Y61440000D01*
X10331000Y60255000D02*
X9146000Y61440000D01*
X39678000Y29320000D02*
X39677500Y29319500D01*
X39677500Y10007500D02*
X36280000Y6610000D01*
X39677500Y29319500D02*
X39677500Y10007500D01*
X23880600Y55200000D02*
X23880600Y51785400D01*
X23880600Y51785400D02*
X25571000Y50095000D01*
X26816000Y48850000D02*
X25571000Y50095000D01*
X24000000Y48520000D02*
X24000000Y19660000D01*
X28870000Y48850000D02*
X26816000Y48850000D01*
X34110000Y34400000D02*
X32255200Y36254800D01*
X32255200Y45464800D02*
X28870000Y48850000D01*
X25571000Y50091000D02*
X24000000Y48520000D01*
X32255200Y36254800D02*
X32255200Y45464800D01*
X13690000Y57050000D02*
X13690000Y53890000D01*
X59070000Y38040000D02*
X59070000Y34470000D01*
X3670000Y59030000D02*
X2920000Y59780000D01*
X10331000Y57715000D02*
X9016000Y59030000D01*
X9016000Y59030000D02*
X3670000Y59030000D01*
X30750000Y53780000D02*
X26966000Y53780000D01*
X26966000Y53780000D02*
X25571000Y55175000D01*
X31210000Y53320000D02*
X30750000Y53780000D01*
X60350000Y47170000D02*
X60350000Y35530000D01*
X44990000Y52250000D02*
X46699000Y52250000D01*
X43750000Y44040000D02*
X43750000Y51010000D01*
X41730000Y42020000D02*
X43750000Y44040000D01*
X43750000Y51010000D02*
X44990000Y52250000D01*
X41730000Y47100000D02*
X43150000Y48520000D01*
X43150000Y48520000D02*
X43150000Y51241000D01*
X43150000Y51241000D02*
X46699000Y54790000D01*
%TA.AperFunction,Conductor*%
G36*
X40980710Y68679815D02*
G01*
X41026465Y68627011D01*
X41036409Y68557853D01*
X41007384Y68494297D01*
X40999104Y68485627D01*
X40966950Y68455062D01*
X40966948Y68455060D01*
X40850705Y68288051D01*
X40770459Y68101057D01*
X40729500Y67901742D01*
X40729500Y62472354D01*
X40709815Y62405315D01*
X40657011Y62359560D01*
X40587853Y62349616D01*
X40534377Y62370779D01*
X40392487Y62470132D01*
X40392483Y62470134D01*
X40186326Y62566266D01*
X40186317Y62566270D01*
X39966610Y62625140D01*
X39966599Y62625142D01*
X39740002Y62644966D01*
X39739998Y62644966D01*
X39513400Y62625142D01*
X39513389Y62625140D01*
X39293682Y62566270D01*
X39293673Y62566266D01*
X39087513Y62470132D01*
X39014526Y62419027D01*
X39556133Y61877420D01*
X39589618Y61816097D01*
X39584634Y61746405D01*
X39542762Y61690472D01*
X39524748Y61679255D01*
X39501956Y61667642D01*
X39501949Y61667637D01*
X39412363Y61578051D01*
X39412358Y61578044D01*
X39400745Y61555252D01*
X39352770Y61504456D01*
X39284949Y61487662D01*
X39218814Y61510200D01*
X39202580Y61523867D01*
X38660973Y62065474D01*
X38609868Y61992487D01*
X38513734Y61786327D01*
X38513730Y61786318D01*
X38454860Y61566611D01*
X38454858Y61566600D01*
X38435034Y61340003D01*
X38435034Y61339998D01*
X38454858Y61113401D01*
X38454860Y61113390D01*
X38513730Y60893683D01*
X38513734Y60893674D01*
X38609865Y60687519D01*
X38609866Y60687517D01*
X38660973Y60614529D01*
X38660973Y60614528D01*
X39202580Y61156135D01*
X39263903Y61189620D01*
X39333594Y61184636D01*
X39389528Y61142765D01*
X39400742Y61124754D01*
X39405095Y61116212D01*
X39412358Y61101956D01*
X39412363Y61101950D01*
X39501949Y61012364D01*
X39501951Y61012363D01*
X39501955Y61012359D01*
X39524747Y61000746D01*
X39575542Y60952772D01*
X39592337Y60884951D01*
X39569799Y60818816D01*
X39556132Y60802581D01*
X39014526Y60260975D01*
X39014526Y60260974D01*
X39087512Y60209869D01*
X39087516Y60209867D01*
X39293673Y60113735D01*
X39293682Y60113731D01*
X39513389Y60054861D01*
X39513400Y60054859D01*
X39739998Y60035034D01*
X39740002Y60035034D01*
X39966599Y60054859D01*
X39966610Y60054861D01*
X40186317Y60113731D01*
X40186326Y60113735D01*
X40392482Y60209866D01*
X40534376Y60309222D01*
X40600582Y60331549D01*
X40668349Y60314539D01*
X40716163Y60263591D01*
X40729500Y60207647D01*
X40729500Y58727590D01*
X40709815Y58660551D01*
X40707076Y58656468D01*
X40599431Y58502733D01*
X40599430Y58502731D01*
X40592105Y58487022D01*
X40545931Y58434583D01*
X40478737Y58415433D01*
X40411857Y58435650D01*
X40367341Y58487026D01*
X40360132Y58502485D01*
X40360131Y58502488D01*
X40309026Y58575474D01*
X40309025Y58575474D01*
X39767419Y58033868D01*
X39706096Y58000383D01*
X39636404Y58005367D01*
X39580471Y58047239D01*
X39569256Y58065249D01*
X39557641Y58088045D01*
X39557637Y58088049D01*
X39557636Y58088051D01*
X39468050Y58177637D01*
X39468044Y58177642D01*
X39458109Y58182704D01*
X39445250Y58189256D01*
X39394456Y58237227D01*
X39377660Y58305048D01*
X39400197Y58371183D01*
X39413865Y58387420D01*
X39955472Y58929027D01*
X39882483Y58980134D01*
X39882481Y58980135D01*
X39676326Y59076266D01*
X39676317Y59076270D01*
X39456610Y59135140D01*
X39456599Y59135142D01*
X39230002Y59154966D01*
X39229998Y59154966D01*
X39003400Y59135142D01*
X39003389Y59135140D01*
X38783682Y59076270D01*
X38783673Y59076266D01*
X38577513Y58980132D01*
X38504526Y58929027D01*
X39046133Y58387420D01*
X39079618Y58326097D01*
X39074634Y58256405D01*
X39032762Y58200472D01*
X39014748Y58189255D01*
X38991956Y58177642D01*
X38991949Y58177637D01*
X38902363Y58088051D01*
X38902358Y58088044D01*
X38890745Y58065252D01*
X38842770Y58014456D01*
X38774949Y57997662D01*
X38708814Y58020200D01*
X38692580Y58033867D01*
X38150973Y58575474D01*
X38099868Y58502487D01*
X38003734Y58296327D01*
X38003730Y58296318D01*
X37944860Y58076611D01*
X37944858Y58076600D01*
X37925034Y57850003D01*
X37925034Y57849998D01*
X37944858Y57623401D01*
X37944860Y57623390D01*
X38003730Y57403683D01*
X38003734Y57403674D01*
X38099865Y57197519D01*
X38099866Y57197517D01*
X38150973Y57124529D01*
X38150973Y57124528D01*
X38692580Y57666135D01*
X38753903Y57699620D01*
X38823594Y57694636D01*
X38879528Y57652765D01*
X38890742Y57634754D01*
X38893924Y57628510D01*
X38902358Y57611956D01*
X38902363Y57611950D01*
X38991949Y57522364D01*
X38991951Y57522363D01*
X38991955Y57522359D01*
X39014747Y57510746D01*
X39065542Y57462772D01*
X39082337Y57394951D01*
X39059799Y57328816D01*
X39046132Y57312581D01*
X38504526Y56770975D01*
X38504526Y56770974D01*
X38577512Y56719869D01*
X38577516Y56719867D01*
X38783673Y56623735D01*
X38783682Y56623731D01*
X39003389Y56564861D01*
X39003400Y56564859D01*
X39229998Y56545034D01*
X39230002Y56545034D01*
X39456599Y56564859D01*
X39456610Y56564861D01*
X39676317Y56623731D01*
X39676331Y56623736D01*
X39882478Y56719864D01*
X39955472Y56770975D01*
X39413866Y57312581D01*
X39380381Y57373904D01*
X39385365Y57443596D01*
X39427237Y57499529D01*
X39445245Y57510742D01*
X39468045Y57522359D01*
X39557641Y57611955D01*
X39569254Y57634748D01*
X39617225Y57685542D01*
X39685046Y57702339D01*
X39751181Y57679803D01*
X39767419Y57666134D01*
X40309025Y57124528D01*
X40360134Y57197519D01*
X40367340Y57212972D01*
X40413511Y57265413D01*
X40480704Y57284567D01*
X40547585Y57264354D01*
X40592105Y57212978D01*
X40599432Y57197266D01*
X40702677Y57049815D01*
X40707075Y57043535D01*
X40729402Y56977329D01*
X40729500Y56972412D01*
X40729500Y55597590D01*
X40709815Y55530551D01*
X40707076Y55526468D01*
X40599431Y55372733D01*
X40503261Y55166498D01*
X40503258Y55166489D01*
X40444366Y54946698D01*
X40444364Y54946687D01*
X40424532Y54720002D01*
X40424532Y54719999D01*
X40444364Y54493314D01*
X40444366Y54493303D01*
X40503258Y54273512D01*
X40503261Y54273503D01*
X40599431Y54067268D01*
X40599432Y54067266D01*
X40729954Y53880859D01*
X40890858Y53719955D01*
X40890861Y53719953D01*
X41077266Y53589432D01*
X41135275Y53562382D01*
X41187714Y53516209D01*
X41206866Y53449016D01*
X41186650Y53382135D01*
X41135275Y53337618D01*
X41077267Y53310569D01*
X41077265Y53310568D01*
X40890858Y53180046D01*
X40729954Y53019142D01*
X40599432Y52832735D01*
X40599431Y52832733D01*
X40503261Y52626498D01*
X40503258Y52626489D01*
X40444366Y52406698D01*
X40444364Y52406687D01*
X40424532Y52180002D01*
X40424532Y52179999D01*
X40444364Y51953314D01*
X40444366Y51953303D01*
X40503258Y51733512D01*
X40503261Y51733503D01*
X40599431Y51527268D01*
X40599432Y51527266D01*
X40729954Y51340859D01*
X40890858Y51179955D01*
X40890861Y51179953D01*
X41077266Y51049432D01*
X41133390Y51023261D01*
X41135275Y51022382D01*
X41187714Y50976209D01*
X41206866Y50909016D01*
X41186650Y50842135D01*
X41135275Y50797618D01*
X41077267Y50770569D01*
X41077265Y50770568D01*
X40890858Y50640046D01*
X40729954Y50479142D01*
X40599432Y50292735D01*
X40599431Y50292733D01*
X40503261Y50086498D01*
X40503258Y50086489D01*
X40444366Y49866698D01*
X40444364Y49866687D01*
X40424532Y49640002D01*
X40424532Y49639999D01*
X40444364Y49413314D01*
X40444366Y49413303D01*
X40503258Y49193512D01*
X40503261Y49193503D01*
X40599431Y48987268D01*
X40599432Y48987266D01*
X40729954Y48800859D01*
X40890858Y48639955D01*
X40998262Y48564751D01*
X41077266Y48509432D01*
X41135278Y48482381D01*
X41187713Y48436212D01*
X41206866Y48369018D01*
X41186651Y48302137D01*
X41135277Y48257620D01*
X41077268Y48230570D01*
X41077265Y48230568D01*
X40890858Y48100046D01*
X40729954Y47939142D01*
X40599432Y47752735D01*
X40599431Y47752733D01*
X40503261Y47546498D01*
X40503258Y47546489D01*
X40444366Y47326698D01*
X40444364Y47326687D01*
X40424532Y47100002D01*
X40424532Y47099999D01*
X40444364Y46873314D01*
X40444366Y46873303D01*
X40503258Y46653512D01*
X40503261Y46653503D01*
X40599431Y46447268D01*
X40599432Y46447266D01*
X40729954Y46260859D01*
X40890858Y46099955D01*
X41004046Y46020701D01*
X41077266Y45969432D01*
X41135278Y45942381D01*
X41187713Y45896212D01*
X41206866Y45829018D01*
X41186651Y45762137D01*
X41135277Y45717620D01*
X41077268Y45690570D01*
X41077265Y45690568D01*
X40890858Y45560046D01*
X40729954Y45399142D01*
X40599432Y45212735D01*
X40599431Y45212733D01*
X40503261Y45006498D01*
X40503258Y45006489D01*
X40444366Y44786698D01*
X40444364Y44786687D01*
X40424532Y44560002D01*
X40424532Y44559999D01*
X40444364Y44333314D01*
X40444366Y44333303D01*
X40503258Y44113512D01*
X40503261Y44113503D01*
X40599431Y43907268D01*
X40599432Y43907266D01*
X40729954Y43720859D01*
X40890858Y43559955D01*
X40890861Y43559953D01*
X41077266Y43429432D01*
X41133390Y43403261D01*
X41135275Y43402382D01*
X41187714Y43356209D01*
X41206866Y43289016D01*
X41186650Y43222135D01*
X41135275Y43177618D01*
X41077267Y43150569D01*
X41077265Y43150568D01*
X40890858Y43020046D01*
X40729954Y42859142D01*
X40599432Y42672735D01*
X40599431Y42672733D01*
X40503261Y42466498D01*
X40503258Y42466489D01*
X40444366Y42246698D01*
X40444364Y42246687D01*
X40424532Y42020002D01*
X40424532Y42019999D01*
X40444364Y41793314D01*
X40444366Y41793303D01*
X40503258Y41573512D01*
X40503261Y41573503D01*
X40599431Y41367268D01*
X40599432Y41367266D01*
X40729954Y41180859D01*
X40890858Y41019955D01*
X40890861Y41019953D01*
X41077266Y40889432D01*
X41133390Y40863261D01*
X41135275Y40862382D01*
X41187714Y40816209D01*
X41206866Y40749016D01*
X41186650Y40682135D01*
X41135275Y40637618D01*
X41077267Y40610569D01*
X41077265Y40610568D01*
X40890858Y40480046D01*
X40729954Y40319142D01*
X40599432Y40132735D01*
X40599431Y40132733D01*
X40503261Y39926498D01*
X40503258Y39926489D01*
X40444366Y39706698D01*
X40444364Y39706687D01*
X40424532Y39480002D01*
X40424532Y39479999D01*
X40444364Y39253314D01*
X40444366Y39253303D01*
X40503258Y39033512D01*
X40503261Y39033503D01*
X40599431Y38827268D01*
X40599432Y38827266D01*
X40729954Y38640859D01*
X40890858Y38479955D01*
X40890861Y38479953D01*
X41077266Y38349432D01*
X41133390Y38323261D01*
X41135275Y38322382D01*
X41187714Y38276209D01*
X41206866Y38209016D01*
X41186650Y38142135D01*
X41135275Y38097618D01*
X41077267Y38070569D01*
X41077265Y38070568D01*
X40890858Y37940046D01*
X40729954Y37779142D01*
X40599432Y37592735D01*
X40599431Y37592733D01*
X40503261Y37386498D01*
X40503258Y37386489D01*
X40444366Y37166698D01*
X40444364Y37166687D01*
X40424532Y36940002D01*
X40424532Y36939999D01*
X40444364Y36713314D01*
X40444366Y36713303D01*
X40503258Y36493512D01*
X40503261Y36493503D01*
X40599431Y36287268D01*
X40599432Y36287266D01*
X40729954Y36100859D01*
X40890858Y35939955D01*
X40890861Y35939953D01*
X41077266Y35809432D01*
X41133390Y35783261D01*
X41135275Y35782382D01*
X41187714Y35736209D01*
X41206866Y35669016D01*
X41186650Y35602135D01*
X41135275Y35557618D01*
X41077267Y35530569D01*
X41077265Y35530568D01*
X40890858Y35400046D01*
X40729954Y35239142D01*
X40599432Y35052735D01*
X40599431Y35052733D01*
X40503261Y34846498D01*
X40503258Y34846489D01*
X40444366Y34626698D01*
X40444364Y34626687D01*
X40424532Y34400002D01*
X40424532Y34399999D01*
X40444364Y34173314D01*
X40444366Y34173303D01*
X40503258Y33953512D01*
X40503261Y33953503D01*
X40599431Y33747268D01*
X40599432Y33747266D01*
X40729954Y33560859D01*
X40890858Y33399955D01*
X40890861Y33399953D01*
X41077266Y33269432D01*
X41133390Y33243261D01*
X41135275Y33242382D01*
X41187714Y33196209D01*
X41206866Y33129016D01*
X41186650Y33062135D01*
X41135275Y33017618D01*
X41077267Y32990569D01*
X41077265Y32990568D01*
X40890858Y32860046D01*
X40729954Y32699142D01*
X40599433Y32512736D01*
X40530104Y32364061D01*
X40483931Y32311623D01*
X40416737Y32292471D01*
X40349856Y32312687D01*
X40312728Y32350496D01*
X40291783Y32383830D01*
X40163830Y32511783D01*
X40162318Y32512733D01*
X40010612Y32608057D01*
X39839812Y32667822D01*
X39839806Y32667823D01*
X39660004Y32688081D01*
X39659996Y32688081D01*
X39480193Y32667823D01*
X39480187Y32667822D01*
X39309387Y32608057D01*
X39156169Y32511783D01*
X39028217Y32383831D01*
X38931943Y32230613D01*
X38872178Y32059813D01*
X38872177Y32059807D01*
X38851919Y31880004D01*
X38851919Y31879997D01*
X38872177Y31700194D01*
X38872178Y31700188D01*
X38931943Y31529388D01*
X38985848Y31443599D01*
X39028217Y31376170D01*
X39156170Y31248217D01*
X39300733Y31157382D01*
X39309389Y31151943D01*
X39480177Y31092181D01*
X39480181Y31092180D01*
X39480182Y31092180D01*
X39480185Y31092179D01*
X39521783Y31087493D01*
X39586196Y31060427D01*
X39625752Y31002832D01*
X39631900Y30964272D01*
X39631900Y30233701D01*
X39612215Y30166662D01*
X39559411Y30120907D01*
X39521785Y30110481D01*
X39498192Y30107823D01*
X39498187Y30107822D01*
X39327387Y30048057D01*
X39174169Y29951783D01*
X39046217Y29823831D01*
X38949943Y29670613D01*
X38890178Y29499813D01*
X38890177Y29499807D01*
X38869919Y29320004D01*
X38869919Y29319997D01*
X38890177Y29140194D01*
X38890178Y29140188D01*
X38949943Y28969388D01*
X38991282Y28903598D01*
X39046217Y28816170D01*
X39064480Y28797907D01*
X39097966Y28736587D01*
X39100800Y28710226D01*
X39100800Y10297740D01*
X39081115Y10230701D01*
X39064481Y10210059D01*
X36790075Y7935654D01*
X36728752Y7902169D01*
X36670301Y7903560D01*
X36515413Y7945062D01*
X36515403Y7945064D01*
X36280001Y7965659D01*
X36279999Y7965659D01*
X36044596Y7945064D01*
X36044586Y7945062D01*
X35816344Y7883906D01*
X35816335Y7883902D01*
X35602171Y7784036D01*
X35602169Y7784035D01*
X35408597Y7648495D01*
X35241505Y7481403D01*
X35111575Y7295842D01*
X35056998Y7252217D01*
X34987500Y7245023D01*
X34925145Y7276546D01*
X34908425Y7295842D01*
X34778494Y7481403D01*
X34611402Y7648494D01*
X34611395Y7648499D01*
X34417834Y7784033D01*
X34417830Y7784035D01*
X34373042Y7804920D01*
X34203663Y7883903D01*
X34203659Y7883904D01*
X34203655Y7883906D01*
X33975413Y7945062D01*
X33975403Y7945064D01*
X33740001Y7965659D01*
X33739999Y7965659D01*
X33504596Y7945064D01*
X33504586Y7945062D01*
X33276344Y7883906D01*
X33276335Y7883902D01*
X33062171Y7784036D01*
X33062169Y7784035D01*
X32868597Y7648495D01*
X32701505Y7481403D01*
X32571269Y7295405D01*
X32516692Y7251780D01*
X32447194Y7244586D01*
X32384839Y7276109D01*
X32368119Y7295405D01*
X32314925Y7371374D01*
X32314925Y7371375D01*
X31808949Y6865398D01*
X31747626Y6831913D01*
X31677934Y6836897D01*
X31622001Y6878769D01*
X31616953Y6886039D01*
X31581761Y6940798D01*
X31466398Y7040759D01*
X31468708Y7043426D01*
X31434005Y7083472D01*
X31424058Y7152630D01*
X31453080Y7216187D01*
X31459116Y7222670D01*
X31961373Y7724927D01*
X31961373Y7724928D01*
X31877583Y7783598D01*
X31877579Y7783600D01*
X31663492Y7883430D01*
X31663483Y7883434D01*
X31435326Y7944568D01*
X31435315Y7944570D01*
X31200002Y7965157D01*
X31199998Y7965157D01*
X30964684Y7944570D01*
X30964673Y7944568D01*
X30736516Y7883434D01*
X30736507Y7883430D01*
X30522419Y7783599D01*
X30438625Y7724928D01*
X30940883Y7222670D01*
X30974368Y7161347D01*
X30969384Y7091655D01*
X30932357Y7042195D01*
X30933602Y7040759D01*
X30818238Y6940798D01*
X30783046Y6886038D01*
X30730242Y6840283D01*
X30661083Y6830340D01*
X30597528Y6859366D01*
X30591050Y6865397D01*
X30085072Y7371375D01*
X30026401Y7287581D01*
X29926570Y7073493D01*
X29926566Y7073484D01*
X29865432Y6845327D01*
X29865430Y6845316D01*
X29844843Y6610002D01*
X29844843Y6609999D01*
X29865430Y6374685D01*
X29865432Y6374674D01*
X29926566Y6146517D01*
X29926570Y6146508D01*
X30026400Y5932421D01*
X30026402Y5932417D01*
X30085072Y5848627D01*
X30085073Y5848627D01*
X30591050Y6354605D01*
X30652373Y6388090D01*
X30722064Y6383106D01*
X30777998Y6341235D01*
X30783039Y6333975D01*
X30783048Y6333961D01*
X30818239Y6279202D01*
X30933602Y6179241D01*
X30931293Y6176578D01*
X30966006Y6136501D01*
X30975935Y6067340D01*
X30946898Y6003790D01*
X30940882Y5997331D01*
X30438625Y5495075D01*
X30522421Y5436401D01*
X30736507Y5336571D01*
X30736516Y5336567D01*
X30964673Y5275433D01*
X30964684Y5275431D01*
X31199998Y5254843D01*
X31200002Y5254843D01*
X31435315Y5275431D01*
X31435326Y5275433D01*
X31663483Y5336567D01*
X31663492Y5336571D01*
X31877578Y5436400D01*
X31877582Y5436402D01*
X31961373Y5495074D01*
X31961373Y5495075D01*
X31459116Y5997331D01*
X31425631Y6058654D01*
X31430615Y6128345D01*
X31467640Y6177807D01*
X31466398Y6179241D01*
X31473100Y6185048D01*
X31581761Y6279202D01*
X31616954Y6333963D01*
X31669755Y6379717D01*
X31738914Y6389661D01*
X31802470Y6360637D01*
X31808949Y6354604D01*
X32314925Y5848627D01*
X32368119Y5924595D01*
X32422696Y5968219D01*
X32492195Y5975412D01*
X32554549Y5943890D01*
X32571269Y5924595D01*
X32701505Y5738599D01*
X32868599Y5571505D01*
X32952060Y5513065D01*
X33062165Y5435968D01*
X33062167Y5435967D01*
X33062170Y5435965D01*
X33276337Y5336097D01*
X33504592Y5274937D01*
X33681034Y5259500D01*
X33739999Y5254341D01*
X33740000Y5254341D01*
X33740001Y5254341D01*
X33798966Y5259500D01*
X33975408Y5274937D01*
X34203663Y5336097D01*
X34417830Y5435965D01*
X34611401Y5571505D01*
X34778495Y5738599D01*
X34908424Y5924158D01*
X34963002Y5967783D01*
X35032500Y5974977D01*
X35094855Y5943454D01*
X35111575Y5924158D01*
X35222257Y5766087D01*
X35241505Y5738599D01*
X35408599Y5571505D01*
X35492060Y5513065D01*
X35602165Y5435968D01*
X35602167Y5435967D01*
X35602170Y5435965D01*
X35816337Y5336097D01*
X36044592Y5274937D01*
X36221034Y5259500D01*
X36279999Y5254341D01*
X36280000Y5254341D01*
X36280001Y5254341D01*
X36338966Y5259500D01*
X36515408Y5274937D01*
X36743663Y5336097D01*
X36957830Y5435965D01*
X37151401Y5571505D01*
X37318495Y5738599D01*
X37448424Y5924158D01*
X37503002Y5967783D01*
X37572500Y5974977D01*
X37634855Y5943454D01*
X37651575Y5924158D01*
X37762257Y5766087D01*
X37781505Y5738599D01*
X37948599Y5571505D01*
X38032060Y5513065D01*
X38142165Y5435968D01*
X38142167Y5435967D01*
X38142170Y5435965D01*
X38356337Y5336097D01*
X38584592Y5274937D01*
X38761034Y5259500D01*
X38819999Y5254341D01*
X38820000Y5254341D01*
X38820001Y5254341D01*
X38878966Y5259500D01*
X39055408Y5274937D01*
X39283663Y5336097D01*
X39497830Y5435965D01*
X39691401Y5571505D01*
X39858495Y5738599D01*
X39988424Y5924158D01*
X40043002Y5967783D01*
X40112500Y5974977D01*
X40174855Y5943454D01*
X40191575Y5924158D01*
X40302257Y5766087D01*
X40321505Y5738599D01*
X40488599Y5571505D01*
X40572060Y5513065D01*
X40682165Y5435968D01*
X40682167Y5435967D01*
X40682170Y5435965D01*
X40896337Y5336097D01*
X41124592Y5274937D01*
X41301034Y5259500D01*
X41359999Y5254341D01*
X41360000Y5254341D01*
X41360001Y5254341D01*
X41418966Y5259500D01*
X41595408Y5274937D01*
X41823663Y5336097D01*
X42037830Y5435965D01*
X42231401Y5571505D01*
X42353329Y5693434D01*
X42414648Y5726916D01*
X42484340Y5721932D01*
X42540274Y5680061D01*
X42557189Y5649083D01*
X42606202Y5517672D01*
X42606206Y5517665D01*
X42692452Y5402456D01*
X42692455Y5402453D01*
X42807664Y5316207D01*
X42807671Y5316203D01*
X42942517Y5265909D01*
X42942516Y5265909D01*
X42949444Y5265165D01*
X43002127Y5259500D01*
X44797872Y5259501D01*
X44857483Y5265909D01*
X44992331Y5316204D01*
X45107546Y5402454D01*
X45193796Y5517669D01*
X45244091Y5652517D01*
X45250500Y5712127D01*
X45250499Y7507872D01*
X45244091Y7567483D01*
X45242810Y7570917D01*
X45193797Y7702329D01*
X45193793Y7702336D01*
X45107547Y7817545D01*
X45107544Y7817548D01*
X44992335Y7903794D01*
X44992328Y7903798D01*
X44857482Y7954092D01*
X44857483Y7954092D01*
X44797883Y7960499D01*
X44797881Y7960500D01*
X44797873Y7960500D01*
X44797865Y7960500D01*
X44600700Y7960500D01*
X44533661Y7980185D01*
X44487906Y8032989D01*
X44476700Y8084500D01*
X44476700Y19248361D01*
X44496385Y19315400D01*
X44549189Y19361155D01*
X44618347Y19371099D01*
X44681903Y19342074D01*
X44688381Y19336042D01*
X45172603Y18851820D01*
X45177956Y18845717D01*
X45191599Y18827938D01*
X45198693Y18818693D01*
X45223111Y18799957D01*
X45227292Y18796748D01*
X45227302Y18796740D01*
X45254514Y18775860D01*
X45319162Y18726254D01*
X45459451Y18668144D01*
X45462954Y18667683D01*
X45465694Y18666472D01*
X45467307Y18666039D01*
X45467239Y18665788D01*
X45526851Y18639424D01*
X45559159Y18597150D01*
X45568431Y18577268D01*
X45568432Y18577266D01*
X45698954Y18390859D01*
X45859858Y18229955D01*
X45859861Y18229953D01*
X46046266Y18099432D01*
X46104865Y18072107D01*
X46157305Y18025935D01*
X46176457Y17958742D01*
X46156242Y17891861D01*
X46104867Y17847343D01*
X46046511Y17820131D01*
X45973526Y17769027D01*
X46515133Y17227420D01*
X46548618Y17166097D01*
X46543634Y17096405D01*
X46501762Y17040472D01*
X46483748Y17029255D01*
X46460956Y17017642D01*
X46460949Y17017637D01*
X46371363Y16928051D01*
X46371358Y16928044D01*
X46359745Y16905252D01*
X46311770Y16854456D01*
X46243949Y16837662D01*
X46177814Y16860200D01*
X46161580Y16873867D01*
X45619973Y17415474D01*
X45568868Y17342487D01*
X45472734Y17136327D01*
X45472730Y17136318D01*
X45413860Y16916611D01*
X45413858Y16916600D01*
X45394034Y16690003D01*
X45394034Y16689998D01*
X45413858Y16463401D01*
X45413860Y16463390D01*
X45472730Y16243683D01*
X45472734Y16243674D01*
X45568865Y16037519D01*
X45568866Y16037517D01*
X45619973Y15964529D01*
X45619973Y15964528D01*
X46161580Y16506135D01*
X46222903Y16539620D01*
X46292594Y16534636D01*
X46348528Y16492765D01*
X46359742Y16474754D01*
X46365527Y16463401D01*
X46371358Y16451956D01*
X46371363Y16451950D01*
X46460949Y16362364D01*
X46460951Y16362363D01*
X46460955Y16362359D01*
X46483747Y16350746D01*
X46534542Y16302772D01*
X46551337Y16234951D01*
X46528799Y16168816D01*
X46515132Y16152581D01*
X45973526Y15610975D01*
X45973526Y15610974D01*
X46046512Y15559869D01*
X46046516Y15559867D01*
X46252673Y15463735D01*
X46252682Y15463731D01*
X46472389Y15404861D01*
X46472400Y15404859D01*
X46698998Y15385034D01*
X46699002Y15385034D01*
X46925599Y15404859D01*
X46925606Y15404860D01*
X47137206Y15461558D01*
X47207056Y15459895D01*
X47264919Y15420733D01*
X47292423Y15356504D01*
X47293300Y15341783D01*
X47293300Y9880277D01*
X47273615Y9813238D01*
X47256983Y9792598D01*
X47238219Y9773834D01*
X47141943Y9620613D01*
X47082178Y9449813D01*
X47082177Y9449807D01*
X47061919Y9270004D01*
X47061919Y9269997D01*
X47082177Y9090194D01*
X47082178Y9090188D01*
X47141943Y8919388D01*
X47222100Y8791820D01*
X47238217Y8766170D01*
X47366170Y8638217D01*
X47519387Y8541944D01*
X47690185Y8482179D01*
X47690191Y8482179D01*
X47690193Y8482178D01*
X47869996Y8461919D01*
X47870000Y8461919D01*
X47870004Y8461919D01*
X48049806Y8482178D01*
X48049805Y8482178D01*
X48049815Y8482179D01*
X48220613Y8541944D01*
X48373830Y8638217D01*
X48501783Y8766170D01*
X48598056Y8919387D01*
X48657821Y9090185D01*
X48667235Y9173740D01*
X48678081Y9269997D01*
X48678081Y9270003D01*
X48664616Y9389503D01*
X48676670Y9458325D01*
X48724019Y9509704D01*
X48746886Y9520430D01*
X48751213Y9521944D01*
X48904430Y9618217D01*
X49032383Y9746170D01*
X49128656Y9899387D01*
X49188421Y10070185D01*
X49195280Y10131063D01*
X49208681Y10249997D01*
X49208681Y10250004D01*
X49188422Y10429807D01*
X49188421Y10429813D01*
X49188421Y10429815D01*
X49128656Y10600613D01*
X49032383Y10753830D01*
X49013619Y10772595D01*
X48980134Y10833917D01*
X48977300Y10860275D01*
X48977300Y22566538D01*
X48977831Y22574639D01*
X48978506Y22579761D01*
X48982276Y22608400D01*
X48979285Y22631123D01*
X48966760Y22726255D01*
X48962646Y22757507D01*
X48962456Y22758949D01*
X48943617Y22804430D01*
X48942248Y22807734D01*
X48920346Y22860613D01*
X48904347Y22899238D01*
X48835115Y22989462D01*
X48835114Y22989463D01*
X48811907Y23019707D01*
X48811905Y23019708D01*
X48811905Y23019709D01*
X48784883Y23040444D01*
X48778780Y23045797D01*
X47983828Y23840749D01*
X47950343Y23902072D01*
X47951733Y23960522D01*
X47984635Y24083308D01*
X48004468Y24310000D01*
X47984635Y24536692D01*
X47925739Y24756496D01*
X47829568Y24962734D01*
X47699047Y25149139D01*
X47699045Y25149142D01*
X47538141Y25310046D01*
X47351734Y25440568D01*
X47351728Y25440571D01*
X47293725Y25467618D01*
X47241285Y25513790D01*
X47222133Y25580983D01*
X47242348Y25647865D01*
X47293725Y25692382D01*
X47299438Y25695046D01*
X47351734Y25719432D01*
X47538139Y25849953D01*
X47699047Y26010861D01*
X47829568Y26197266D01*
X47925739Y26403504D01*
X47984635Y26623308D01*
X48004468Y26850000D01*
X48003609Y26859813D01*
X47988920Y27027709D01*
X47984635Y27076692D01*
X47925739Y27296496D01*
X47829568Y27502734D01*
X47714088Y27667658D01*
X47699045Y27689142D01*
X47538141Y27850046D01*
X47351734Y27980568D01*
X47351728Y27980571D01*
X47293725Y28007618D01*
X47241285Y28053790D01*
X47222133Y28120983D01*
X47242348Y28187865D01*
X47293725Y28232382D01*
X47351734Y28259432D01*
X47538139Y28389953D01*
X47699047Y28550861D01*
X47829568Y28737266D01*
X47925739Y28943504D01*
X47984635Y29163308D01*
X48004468Y29390000D01*
X47984635Y29616692D01*
X47925739Y29836496D01*
X47829568Y30042734D01*
X47699047Y30229139D01*
X47699045Y30229142D01*
X47538141Y30390046D01*
X47351734Y30520568D01*
X47351728Y30520571D01*
X47293725Y30547618D01*
X47241285Y30593790D01*
X47222133Y30660983D01*
X47242348Y30727865D01*
X47293725Y30772382D01*
X47299438Y30775046D01*
X47351734Y30799432D01*
X47538139Y30929953D01*
X47699047Y31090861D01*
X47829568Y31277266D01*
X47925739Y31483504D01*
X47984635Y31703308D01*
X48004004Y31924699D01*
X48004468Y31929999D01*
X48004468Y31930002D01*
X47993111Y32059813D01*
X47984635Y32156692D01*
X47925739Y32376496D01*
X47829568Y32582734D01*
X47699047Y32769139D01*
X47699045Y32769142D01*
X47538141Y32930046D01*
X47351734Y33060568D01*
X47351728Y33060571D01*
X47293725Y33087618D01*
X47241285Y33133790D01*
X47222133Y33200983D01*
X47242348Y33267865D01*
X47293725Y33312382D01*
X47351734Y33339432D01*
X47538139Y33469953D01*
X47699047Y33630861D01*
X47829568Y33817266D01*
X47925739Y34023504D01*
X47984635Y34243308D01*
X48004468Y34470000D01*
X47984635Y34696692D01*
X47925739Y34916496D01*
X47829568Y35122734D01*
X47699047Y35309139D01*
X47699045Y35309142D01*
X47538141Y35470046D01*
X47351734Y35600568D01*
X47351728Y35600571D01*
X47293725Y35627618D01*
X47241285Y35673790D01*
X47222133Y35740983D01*
X47242348Y35807865D01*
X47293725Y35852382D01*
X47351734Y35879432D01*
X47538139Y36009953D01*
X47699047Y36170861D01*
X47829568Y36357266D01*
X47925739Y36563504D01*
X47984635Y36783308D01*
X48004468Y37010000D01*
X47984635Y37236692D01*
X47925739Y37456496D01*
X47829568Y37662734D01*
X47727977Y37807823D01*
X47699045Y37849142D01*
X47538141Y38010046D01*
X47351734Y38140568D01*
X47351728Y38140571D01*
X47293725Y38167618D01*
X47241285Y38213790D01*
X47222133Y38280983D01*
X47242348Y38347865D01*
X47293725Y38392382D01*
X47351734Y38419432D01*
X47538139Y38549953D01*
X47699047Y38710861D01*
X47829568Y38897266D01*
X47925739Y39103504D01*
X47984635Y39323308D01*
X48004468Y39550000D01*
X47984635Y39776692D01*
X47925739Y39996496D01*
X47829568Y40202734D01*
X47699047Y40389139D01*
X47699045Y40389142D01*
X47538141Y40550046D01*
X47351734Y40680568D01*
X47351728Y40680571D01*
X47293725Y40707618D01*
X47241285Y40753790D01*
X47222133Y40820983D01*
X47242348Y40887865D01*
X47293725Y40932382D01*
X47299438Y40935046D01*
X47351734Y40959432D01*
X47538139Y41089953D01*
X47699047Y41250861D01*
X47829568Y41437266D01*
X47925739Y41643504D01*
X47984635Y41863308D01*
X48004468Y42090000D01*
X48000951Y42130194D01*
X47991380Y42239597D01*
X47984635Y42316692D01*
X47929978Y42520677D01*
X47925741Y42536489D01*
X47925738Y42536498D01*
X47911131Y42567823D01*
X47829568Y42742734D01*
X47699047Y42929139D01*
X47699045Y42929142D01*
X47538141Y43090046D01*
X47351734Y43220568D01*
X47351728Y43220571D01*
X47293725Y43247618D01*
X47241285Y43293790D01*
X47222133Y43360983D01*
X47242348Y43427865D01*
X47293725Y43472382D01*
X47299438Y43475046D01*
X47351734Y43499432D01*
X47538139Y43629953D01*
X47699047Y43790861D01*
X47829568Y43977266D01*
X47925739Y44183504D01*
X47984635Y44403308D01*
X48004468Y44630000D01*
X47984635Y44856692D01*
X47931329Y45055635D01*
X47925741Y45076489D01*
X47925738Y45076498D01*
X47914123Y45101407D01*
X47829568Y45282734D01*
X47699047Y45469139D01*
X47699045Y45469142D01*
X47538141Y45630046D01*
X47351734Y45760568D01*
X47351728Y45760571D01*
X47293725Y45787618D01*
X47241285Y45833790D01*
X47222133Y45900983D01*
X47242348Y45967865D01*
X47293725Y46012382D01*
X47299438Y46015046D01*
X47351734Y46039432D01*
X47538139Y46169953D01*
X47699047Y46330861D01*
X47829568Y46517266D01*
X47925739Y46723504D01*
X47984635Y46943308D01*
X48004468Y47170000D01*
X47984635Y47396692D01*
X47925739Y47616496D01*
X47829568Y47822734D01*
X47704397Y48001498D01*
X47699045Y48009142D01*
X47538141Y48170046D01*
X47351734Y48300568D01*
X47351728Y48300571D01*
X47293725Y48327618D01*
X47241285Y48373790D01*
X47222133Y48440983D01*
X47242348Y48507865D01*
X47293725Y48552382D01*
X47299438Y48555046D01*
X47351734Y48579432D01*
X47538139Y48709953D01*
X47699047Y48870861D01*
X47829568Y49057266D01*
X47925739Y49263504D01*
X47984635Y49483308D01*
X48004468Y49710000D01*
X48002532Y49732123D01*
X47998801Y49774770D01*
X47984635Y49936692D01*
X47925739Y50156496D01*
X47829568Y50362734D01*
X47699047Y50549139D01*
X47699045Y50549142D01*
X47538141Y50710046D01*
X47351734Y50840568D01*
X47351728Y50840571D01*
X47293725Y50867618D01*
X47241285Y50913790D01*
X47222133Y50980983D01*
X47242348Y51047865D01*
X47293725Y51092382D01*
X47299438Y51095046D01*
X47351734Y51119432D01*
X47538139Y51249953D01*
X47699047Y51410861D01*
X47829568Y51597266D01*
X47925739Y51803504D01*
X47984635Y52023308D01*
X48004468Y52250000D01*
X48000968Y52290000D01*
X47991380Y52399597D01*
X47984635Y52476692D01*
X47927480Y52690000D01*
X47925741Y52696489D01*
X47925738Y52696498D01*
X47907520Y52735566D01*
X47829568Y52902734D01*
X47704397Y53081498D01*
X47699045Y53089142D01*
X47538143Y53250044D01*
X47535562Y53251851D01*
X47513535Y53267275D01*
X47469912Y53321851D01*
X47462719Y53391350D01*
X47494241Y53453704D01*
X47554471Y53489118D01*
X47571404Y53492139D01*
X47606483Y53495909D01*
X47741331Y53546204D01*
X47856546Y53632454D01*
X47942796Y53747669D01*
X47993091Y53882517D01*
X47999500Y53942127D01*
X47999499Y54297854D01*
X48019183Y54364891D01*
X48071987Y54410646D01*
X48141146Y54420590D01*
X48204701Y54391565D01*
X48211179Y54385534D01*
X49216982Y53379731D01*
X49250466Y53318410D01*
X49253300Y53292052D01*
X49253300Y27470275D01*
X49233615Y27403236D01*
X49216981Y27382594D01*
X49198217Y27363831D01*
X49101943Y27210613D01*
X49042178Y27039813D01*
X49042177Y27039807D01*
X49021919Y26860004D01*
X49021919Y26859997D01*
X49042177Y26680194D01*
X49042178Y26680188D01*
X49101943Y26509388D01*
X49176888Y26390114D01*
X49198217Y26356170D01*
X49326170Y26228217D01*
X49479387Y26131944D01*
X49650185Y26072179D01*
X49674282Y26069464D01*
X49738695Y26042400D01*
X49778252Y25984806D01*
X49784400Y25946244D01*
X49784400Y24921376D01*
X49764715Y24854337D01*
X49748083Y24833697D01*
X49728217Y24813831D01*
X49631943Y24660613D01*
X49572178Y24489813D01*
X49572177Y24489807D01*
X49551919Y24310004D01*
X49551919Y24309997D01*
X49572177Y24130194D01*
X49572178Y24130188D01*
X49631943Y23959388D01*
X49692192Y23863503D01*
X49728217Y23806170D01*
X49856170Y23678217D01*
X50009387Y23581944D01*
X50009389Y23581943D01*
X50180177Y23522181D01*
X50180181Y23522181D01*
X50180185Y23522179D01*
X50223182Y23517335D01*
X50287594Y23490270D01*
X50327151Y23432677D01*
X50333299Y23394115D01*
X50333299Y22370276D01*
X50313614Y22303237D01*
X50296982Y22282597D01*
X50278219Y22263834D01*
X50181943Y22110613D01*
X50122178Y21939813D01*
X50122177Y21939807D01*
X50101919Y21760004D01*
X50101919Y21759997D01*
X50122177Y21580194D01*
X50122178Y21580188D01*
X50181943Y21409388D01*
X50240712Y21315859D01*
X50278217Y21256170D01*
X50406170Y21128217D01*
X50559387Y21031944D01*
X50730185Y20972179D01*
X50754282Y20969464D01*
X50818695Y20942400D01*
X50858252Y20884806D01*
X50864400Y20846244D01*
X50864400Y19861377D01*
X50844715Y19794338D01*
X50828083Y19773698D01*
X50809319Y19754934D01*
X50713043Y19601713D01*
X50653278Y19430913D01*
X50653277Y19430907D01*
X50633019Y19251104D01*
X50633019Y19251097D01*
X50653277Y19071294D01*
X50653278Y19071288D01*
X50713043Y18900488D01*
X50786550Y18783503D01*
X50809317Y18747270D01*
X50937270Y18619317D01*
X51090487Y18523044D01*
X51090489Y18523043D01*
X51261277Y18463281D01*
X51261282Y18463280D01*
X51261285Y18463279D01*
X51303183Y18458559D01*
X51367595Y18431495D01*
X51407151Y18373901D01*
X51413300Y18335339D01*
X51413300Y17330275D01*
X51393615Y17263236D01*
X51376981Y17242594D01*
X51358217Y17223831D01*
X51261943Y17070613D01*
X51202178Y16899813D01*
X51202177Y16899807D01*
X51181919Y16720004D01*
X51181919Y16719997D01*
X51202177Y16540194D01*
X51202178Y16540188D01*
X51261943Y16369388D01*
X51346416Y16234951D01*
X51358217Y16216170D01*
X51486170Y16088217D01*
X51639387Y15991944D01*
X51810185Y15932179D01*
X51810191Y15932179D01*
X51810193Y15932178D01*
X51989996Y15911919D01*
X51990000Y15911919D01*
X51990004Y15911919D01*
X52169806Y15932178D01*
X52169805Y15932178D01*
X52169815Y15932179D01*
X52340613Y15991944D01*
X52493830Y16088217D01*
X52621783Y16216170D01*
X52718056Y16369387D01*
X52777821Y16540185D01*
X52798081Y16720000D01*
X52784606Y16839592D01*
X52777822Y16899807D01*
X52777821Y16899813D01*
X52777821Y16899815D01*
X52718056Y17070613D01*
X52621783Y17223830D01*
X52603019Y17242594D01*
X52569534Y17303917D01*
X52566700Y17330275D01*
X52566700Y18866900D01*
X52586385Y18933939D01*
X52639189Y18979694D01*
X52676816Y18990121D01*
X52700415Y18992779D01*
X52700419Y18992781D01*
X52700422Y18992781D01*
X52871210Y19052543D01*
X52871209Y19052543D01*
X52871213Y19052544D01*
X53024430Y19148817D01*
X53152383Y19276770D01*
X53248656Y19429987D01*
X53308421Y19600785D01*
X53316951Y19676489D01*
X53328681Y19780597D01*
X53328681Y19780604D01*
X53308422Y19960407D01*
X53308421Y19960413D01*
X53308421Y19960415D01*
X53248656Y20131213D01*
X53152383Y20284430D01*
X53133619Y20303194D01*
X53100134Y20364517D01*
X53097300Y20390875D01*
X53097300Y21386900D01*
X53116985Y21453939D01*
X53169789Y21499694D01*
X53207416Y21510121D01*
X53231015Y21512779D01*
X53231019Y21512781D01*
X53231022Y21512781D01*
X53401810Y21572543D01*
X53401809Y21572543D01*
X53401813Y21572544D01*
X53555030Y21668817D01*
X53682983Y21796770D01*
X53779256Y21949987D01*
X53839021Y22120785D01*
X53839186Y22122250D01*
X53846080Y22183431D01*
X53873146Y22247845D01*
X53930741Y22287400D01*
X54000578Y22289538D01*
X54060484Y22253580D01*
X54091440Y22190942D01*
X54093300Y22169548D01*
X54093300Y16650638D01*
X54073615Y16583599D01*
X54035275Y16545646D01*
X54021171Y16536784D01*
X54021167Y16536781D01*
X53893217Y16408831D01*
X53796943Y16255613D01*
X53737178Y16084813D01*
X53737177Y16084807D01*
X53716919Y15905004D01*
X53716919Y15904997D01*
X53737177Y15725194D01*
X53737178Y15725188D01*
X53796943Y15554388D01*
X53856317Y15459895D01*
X53893217Y15401170D01*
X54021170Y15273217D01*
X54174387Y15176944D01*
X54345185Y15117179D01*
X54345191Y15117179D01*
X54345193Y15117178D01*
X54524996Y15096919D01*
X54525000Y15096919D01*
X54525004Y15096919D01*
X54704806Y15117178D01*
X54704805Y15117178D01*
X54704815Y15117179D01*
X54875613Y15176944D01*
X55028830Y15273217D01*
X55087322Y15331710D01*
X55148641Y15365192D01*
X55218333Y15360208D01*
X55262676Y15331711D01*
X55326170Y15268217D01*
X55479387Y15171944D01*
X55650185Y15112179D01*
X55650191Y15112179D01*
X55650193Y15112178D01*
X55696799Y15106927D01*
X55743182Y15101701D01*
X55807597Y15074635D01*
X55847152Y15017041D01*
X55853300Y14978481D01*
X55853300Y14060877D01*
X55833615Y13993838D01*
X55816983Y13973198D01*
X55798219Y13954434D01*
X55701943Y13801213D01*
X55642178Y13630413D01*
X55642177Y13630407D01*
X55621919Y13450604D01*
X55621919Y13450597D01*
X55642177Y13270794D01*
X55642178Y13270788D01*
X55701943Y13099988D01*
X55701944Y13099987D01*
X55798217Y12946770D01*
X55926170Y12818817D01*
X55966414Y12793530D01*
X56079387Y12722544D01*
X56150684Y12697596D01*
X56207460Y12656874D01*
X56233208Y12591922D01*
X56232950Y12566671D01*
X56211919Y12380005D01*
X56211919Y12379997D01*
X56232177Y12200194D01*
X56232178Y12200188D01*
X56291943Y12029388D01*
X56291944Y12029387D01*
X56388217Y11876170D01*
X56516170Y11748217D01*
X56669387Y11651944D01*
X56840185Y11592179D01*
X56840191Y11592179D01*
X56840193Y11592178D01*
X57019996Y11571919D01*
X57020000Y11571919D01*
X57020004Y11571919D01*
X57199806Y11592178D01*
X57199805Y11592178D01*
X57199815Y11592179D01*
X57370613Y11651944D01*
X57523830Y11748217D01*
X57651783Y11876170D01*
X57748056Y12029387D01*
X57752305Y12041531D01*
X57793021Y12098308D01*
X57855461Y12123802D01*
X57929815Y12132179D01*
X57929819Y12132181D01*
X57929822Y12132181D01*
X58100610Y12191943D01*
X58100609Y12191943D01*
X58100613Y12191944D01*
X58253830Y12288217D01*
X58381783Y12416170D01*
X58478056Y12569387D01*
X58537821Y12740185D01*
X58538630Y12747366D01*
X58558081Y12919997D01*
X58558081Y12920004D01*
X58537822Y13099807D01*
X58537821Y13099813D01*
X58537821Y13099815D01*
X58478056Y13270613D01*
X58381783Y13423830D01*
X58363019Y13442594D01*
X58329534Y13503917D01*
X58326700Y13530275D01*
X58326700Y31350228D01*
X58346385Y31417267D01*
X58350378Y31422835D01*
X58351781Y31425069D01*
X58351783Y31425070D01*
X58448056Y31578287D01*
X58507821Y31749085D01*
X58522571Y31879997D01*
X58528081Y31928897D01*
X58528081Y31928904D01*
X58507822Y32108707D01*
X58507821Y32108713D01*
X58507821Y32108715D01*
X58448056Y32279513D01*
X58351783Y32432730D01*
X58333017Y32451496D01*
X58299533Y32512818D01*
X58296699Y32539167D01*
X58296699Y33808327D01*
X58316384Y33875365D01*
X58369188Y33921120D01*
X58438346Y33931064D01*
X58501902Y33902039D01*
X58508380Y33896007D01*
X58566170Y33838217D01*
X58719387Y33741944D01*
X58890185Y33682179D01*
X58890191Y33682179D01*
X58890193Y33682178D01*
X58973183Y33672827D01*
X59037597Y33645761D01*
X59077152Y33588166D01*
X59083300Y33549607D01*
X59083300Y26020275D01*
X59063615Y25953236D01*
X59046981Y25932594D01*
X58998217Y25883831D01*
X58901943Y25730613D01*
X58842178Y25559813D01*
X58842177Y25559807D01*
X58821919Y25380004D01*
X58821919Y25379997D01*
X58842177Y25200194D01*
X58842178Y25200188D01*
X58901943Y25029388D01*
X58969617Y24921687D01*
X58998217Y24876170D01*
X59126170Y24748217D01*
X59279387Y24651944D01*
X59450185Y24592179D01*
X59450191Y24592179D01*
X59450193Y24592178D01*
X59629996Y24571919D01*
X59630000Y24571919D01*
X59630004Y24571919D01*
X59809806Y24592178D01*
X59809805Y24592178D01*
X59809815Y24592179D01*
X59980613Y24651944D01*
X60133830Y24748217D01*
X60261783Y24876170D01*
X60358056Y25029387D01*
X60417821Y25200185D01*
X60428666Y25296441D01*
X60438081Y25379997D01*
X60438081Y25380004D01*
X60417822Y25559807D01*
X60417821Y25559813D01*
X60417821Y25559815D01*
X60358056Y25730613D01*
X60261783Y25883830D01*
X60261782Y25883831D01*
X60258078Y25889726D01*
X60259874Y25890855D01*
X60237343Y25946059D01*
X60236700Y25958673D01*
X60236700Y34598340D01*
X60256385Y34665379D01*
X60309189Y34711134D01*
X60346816Y34721560D01*
X60507991Y34739720D01*
X60576813Y34727666D01*
X60628193Y34680316D01*
X60645817Y34612706D01*
X60645403Y34605693D01*
X60633532Y34470003D01*
X60633532Y34469999D01*
X60653364Y34243314D01*
X60653366Y34243303D01*
X60712258Y34023512D01*
X60712261Y34023503D01*
X60808431Y33817268D01*
X60808432Y33817266D01*
X60938954Y33630859D01*
X61099858Y33469955D01*
X61099861Y33469953D01*
X61286266Y33339432D01*
X61344275Y33312382D01*
X61396714Y33266209D01*
X61415866Y33199016D01*
X61395650Y33132135D01*
X61344275Y33087618D01*
X61286267Y33060569D01*
X61286265Y33060568D01*
X61099858Y32930046D01*
X60938954Y32769142D01*
X60808432Y32582735D01*
X60808431Y32582733D01*
X60712261Y32376498D01*
X60712258Y32376489D01*
X60653366Y32156698D01*
X60653364Y32156687D01*
X60633532Y31930002D01*
X60633532Y31929999D01*
X60653364Y31703314D01*
X60653366Y31703303D01*
X60712258Y31483512D01*
X60712261Y31483503D01*
X60808431Y31277268D01*
X60808432Y31277266D01*
X60938954Y31090859D01*
X61099858Y30929955D01*
X61099861Y30929953D01*
X61286266Y30799432D01*
X61338562Y30775046D01*
X61344275Y30772382D01*
X61396714Y30726209D01*
X61415866Y30659016D01*
X61395650Y30592135D01*
X61344275Y30547618D01*
X61286267Y30520569D01*
X61286265Y30520568D01*
X61099858Y30390046D01*
X60938954Y30229142D01*
X60808432Y30042735D01*
X60808431Y30042733D01*
X60712261Y29836498D01*
X60712258Y29836489D01*
X60653366Y29616698D01*
X60653364Y29616687D01*
X60633532Y29390002D01*
X60633532Y29389999D01*
X60653364Y29163314D01*
X60653366Y29163303D01*
X60712258Y28943512D01*
X60712261Y28943503D01*
X60808431Y28737268D01*
X60808432Y28737266D01*
X60938954Y28550859D01*
X61099858Y28389955D01*
X61134188Y28365917D01*
X61286266Y28259432D01*
X61344275Y28232382D01*
X61396714Y28186209D01*
X61415866Y28119016D01*
X61395650Y28052135D01*
X61344275Y28007618D01*
X61286267Y27980569D01*
X61286265Y27980568D01*
X61099858Y27850046D01*
X60938954Y27689142D01*
X60808432Y27502735D01*
X60808431Y27502733D01*
X60712261Y27296498D01*
X60712258Y27296489D01*
X60653366Y27076698D01*
X60653364Y27076687D01*
X60633532Y26850002D01*
X60633532Y26849999D01*
X60653364Y26623314D01*
X60653366Y26623303D01*
X60712258Y26403512D01*
X60712261Y26403503D01*
X60808431Y26197268D01*
X60808432Y26197266D01*
X60938954Y26010859D01*
X61099858Y25849955D01*
X61099861Y25849953D01*
X61286266Y25719432D01*
X61338562Y25695046D01*
X61344275Y25692382D01*
X61396714Y25646209D01*
X61415866Y25579016D01*
X61395650Y25512135D01*
X61344275Y25467618D01*
X61286267Y25440569D01*
X61286265Y25440568D01*
X61099858Y25310046D01*
X60938954Y25149142D01*
X60808432Y24962735D01*
X60808431Y24962733D01*
X60712261Y24756498D01*
X60712258Y24756489D01*
X60653366Y24536698D01*
X60653364Y24536687D01*
X60633532Y24310002D01*
X60633532Y24309999D01*
X60653364Y24083314D01*
X60653366Y24083303D01*
X60712258Y23863512D01*
X60712261Y23863503D01*
X60808431Y23657268D01*
X60808432Y23657266D01*
X60938954Y23470859D01*
X61099858Y23309955D01*
X61099861Y23309953D01*
X61286266Y23179432D01*
X61338562Y23155046D01*
X61344275Y23152382D01*
X61396714Y23106209D01*
X61415866Y23039016D01*
X61395650Y22972135D01*
X61344275Y22927618D01*
X61286267Y22900569D01*
X61286265Y22900568D01*
X61099858Y22770046D01*
X60938954Y22609142D01*
X60808432Y22422735D01*
X60808431Y22422733D01*
X60712261Y22216498D01*
X60712258Y22216489D01*
X60653366Y21996698D01*
X60653364Y21996687D01*
X60633532Y21770002D01*
X60633532Y21769999D01*
X60653364Y21543314D01*
X60653366Y21543303D01*
X60712258Y21323512D01*
X60712261Y21323503D01*
X60808431Y21117268D01*
X60808432Y21117266D01*
X60938954Y20930859D01*
X61099858Y20769955D01*
X61099861Y20769953D01*
X61286266Y20639432D01*
X61338562Y20615046D01*
X61344275Y20612382D01*
X61396714Y20566209D01*
X61415866Y20499016D01*
X61395650Y20432135D01*
X61344275Y20387618D01*
X61286267Y20360569D01*
X61286265Y20360568D01*
X61099858Y20230046D01*
X60938954Y20069142D01*
X60808432Y19882735D01*
X60808431Y19882733D01*
X60712261Y19676498D01*
X60712258Y19676489D01*
X60653366Y19456698D01*
X60653364Y19456687D01*
X60633532Y19230002D01*
X60633532Y19229999D01*
X60653364Y19003314D01*
X60653366Y19003303D01*
X60712258Y18783512D01*
X60712261Y18783503D01*
X60808431Y18577268D01*
X60808432Y18577266D01*
X60938954Y18390859D01*
X61099858Y18229955D01*
X61099861Y18229953D01*
X61286266Y18099432D01*
X61338562Y18075046D01*
X61344275Y18072382D01*
X61396714Y18026209D01*
X61415866Y17959016D01*
X61395650Y17892135D01*
X61344275Y17847618D01*
X61286267Y17820569D01*
X61286265Y17820568D01*
X61099858Y17690046D01*
X60938954Y17529142D01*
X60808432Y17342735D01*
X60808431Y17342733D01*
X60712261Y17136498D01*
X60712258Y17136489D01*
X60653366Y16916698D01*
X60653364Y16916687D01*
X60633532Y16690002D01*
X60633532Y16689999D01*
X60653364Y16463314D01*
X60653366Y16463303D01*
X60712258Y16243512D01*
X60712261Y16243503D01*
X60808431Y16037268D01*
X60808432Y16037266D01*
X60938954Y15850859D01*
X61099858Y15689955D01*
X61135311Y15665131D01*
X61286266Y15559432D01*
X61492504Y15463261D01*
X61492509Y15463260D01*
X61492511Y15463259D01*
X61505066Y15459895D01*
X61712308Y15404365D01*
X61874230Y15390199D01*
X61938998Y15384532D01*
X61939000Y15384532D01*
X61939002Y15384532D01*
X61995673Y15389491D01*
X62165692Y15404365D01*
X62385496Y15463261D01*
X62591734Y15559432D01*
X62778139Y15689953D01*
X62939047Y15850861D01*
X63069568Y16037266D01*
X63165739Y16243504D01*
X63224635Y16463308D01*
X63244468Y16690000D01*
X63224635Y16916692D01*
X63165739Y17136496D01*
X63069568Y17342734D01*
X62939047Y17529139D01*
X62939045Y17529142D01*
X62778141Y17690046D01*
X62591734Y17820568D01*
X62591728Y17820571D01*
X62533725Y17847618D01*
X62481285Y17893790D01*
X62462133Y17960983D01*
X62482348Y18027865D01*
X62533725Y18072382D01*
X62539438Y18075046D01*
X62591734Y18099432D01*
X62778139Y18229953D01*
X62939047Y18390861D01*
X63069568Y18577266D01*
X63165739Y18783504D01*
X63224635Y19003308D01*
X63244468Y19230000D01*
X63243539Y19240613D01*
X63236996Y19315400D01*
X63224635Y19456692D01*
X63165739Y19676496D01*
X63069568Y19882734D01*
X62939047Y20069139D01*
X62939045Y20069142D01*
X62778141Y20230046D01*
X62591734Y20360568D01*
X62591728Y20360571D01*
X62533725Y20387618D01*
X62481285Y20433790D01*
X62462133Y20500983D01*
X62482348Y20567865D01*
X62533725Y20612382D01*
X62539438Y20615046D01*
X62591734Y20639432D01*
X62778139Y20769953D01*
X62939047Y20930861D01*
X63069568Y21117266D01*
X63165739Y21323504D01*
X63224635Y21543308D01*
X63243593Y21760000D01*
X63244468Y21769999D01*
X63244468Y21770002D01*
X63226954Y21970185D01*
X63224635Y21996692D01*
X63165739Y22216496D01*
X63069568Y22422734D01*
X62941162Y22606119D01*
X62939045Y22609142D01*
X62778141Y22770046D01*
X62591734Y22900568D01*
X62591728Y22900571D01*
X62533725Y22927618D01*
X62481285Y22973790D01*
X62462133Y23040983D01*
X62482348Y23107865D01*
X62533725Y23152382D01*
X62539438Y23155046D01*
X62591734Y23179432D01*
X62778139Y23309953D01*
X62939047Y23470861D01*
X63069568Y23657266D01*
X63165739Y23863504D01*
X63224635Y24083308D01*
X63244468Y24310000D01*
X63224635Y24536692D01*
X63165739Y24756496D01*
X63069568Y24962734D01*
X62939047Y25149139D01*
X62939045Y25149142D01*
X62778141Y25310046D01*
X62591734Y25440568D01*
X62591728Y25440571D01*
X62533725Y25467618D01*
X62481285Y25513790D01*
X62462133Y25580983D01*
X62482348Y25647865D01*
X62533725Y25692382D01*
X62539438Y25695046D01*
X62591734Y25719432D01*
X62778139Y25849953D01*
X62939047Y26010861D01*
X63069568Y26197266D01*
X63165739Y26403504D01*
X63224635Y26623308D01*
X63244468Y26850000D01*
X63243609Y26859813D01*
X63228920Y27027709D01*
X63224635Y27076692D01*
X63165739Y27296496D01*
X63069568Y27502734D01*
X62954088Y27667658D01*
X62939045Y27689142D01*
X62778141Y27850046D01*
X62591734Y27980568D01*
X62591728Y27980571D01*
X62533725Y28007618D01*
X62481285Y28053790D01*
X62462133Y28120983D01*
X62482348Y28187865D01*
X62533725Y28232382D01*
X62591734Y28259432D01*
X62778139Y28389953D01*
X62939047Y28550861D01*
X63069568Y28737266D01*
X63165739Y28943504D01*
X63224635Y29163308D01*
X63244468Y29390000D01*
X63224635Y29616692D01*
X63165739Y29836496D01*
X63069568Y30042734D01*
X62939047Y30229139D01*
X62939045Y30229142D01*
X62778141Y30390046D01*
X62591734Y30520568D01*
X62591728Y30520571D01*
X62533725Y30547618D01*
X62481285Y30593790D01*
X62462133Y30660983D01*
X62482348Y30727865D01*
X62533725Y30772382D01*
X62539438Y30775046D01*
X62591734Y30799432D01*
X62778139Y30929953D01*
X62939047Y31090861D01*
X63069568Y31277266D01*
X63165739Y31483504D01*
X63224635Y31703308D01*
X63244004Y31924699D01*
X63244468Y31929999D01*
X63244468Y31930002D01*
X63233111Y32059813D01*
X63224635Y32156692D01*
X63165739Y32376496D01*
X63069568Y32582734D01*
X62939047Y32769139D01*
X62939045Y32769142D01*
X62778141Y32930046D01*
X62668065Y33007121D01*
X62591734Y33060568D01*
X62533722Y33087620D01*
X62481284Y33133792D01*
X62462133Y33200986D01*
X62482349Y33267867D01*
X62533721Y33312381D01*
X62591734Y33339432D01*
X62778139Y33469953D01*
X62939047Y33630861D01*
X63069568Y33817266D01*
X63165739Y34023504D01*
X63224635Y34243308D01*
X63244468Y34470000D01*
X63224635Y34696692D01*
X63165739Y34916496D01*
X63069568Y35122734D01*
X62939047Y35309139D01*
X62939045Y35309142D01*
X62778141Y35470046D01*
X62591734Y35600568D01*
X62591728Y35600571D01*
X62533725Y35627618D01*
X62481285Y35673790D01*
X62462133Y35740983D01*
X62482348Y35807865D01*
X62533725Y35852382D01*
X62591734Y35879432D01*
X62778139Y36009953D01*
X62939047Y36170861D01*
X63069568Y36357266D01*
X63165739Y36563504D01*
X63224635Y36783308D01*
X63244468Y37010000D01*
X63224635Y37236692D01*
X63165739Y37456496D01*
X63069568Y37662734D01*
X62967977Y37807823D01*
X62939045Y37849142D01*
X62778141Y38010046D01*
X62591734Y38140568D01*
X62591728Y38140571D01*
X62533725Y38167618D01*
X62481285Y38213790D01*
X62462133Y38280983D01*
X62482348Y38347865D01*
X62533725Y38392382D01*
X62591734Y38419432D01*
X62778139Y38549953D01*
X62939047Y38710861D01*
X63069568Y38897266D01*
X63165739Y39103504D01*
X63224635Y39323308D01*
X63244468Y39550000D01*
X63224635Y39776692D01*
X63165739Y39996496D01*
X63069568Y40202734D01*
X62939047Y40389139D01*
X62939045Y40389142D01*
X62778141Y40550046D01*
X62591734Y40680568D01*
X62591728Y40680571D01*
X62533725Y40707618D01*
X62481285Y40753790D01*
X62462133Y40820983D01*
X62482348Y40887865D01*
X62533725Y40932382D01*
X62539438Y40935046D01*
X62591734Y40959432D01*
X62778139Y41089953D01*
X62939047Y41250861D01*
X63069568Y41437266D01*
X63165739Y41643504D01*
X63224635Y41863308D01*
X63244468Y42090000D01*
X63240951Y42130194D01*
X63231380Y42239597D01*
X63224635Y42316692D01*
X63169978Y42520677D01*
X63165741Y42536489D01*
X63165738Y42536498D01*
X63151131Y42567823D01*
X63069568Y42742734D01*
X62939047Y42929139D01*
X62939045Y42929142D01*
X62778141Y43090046D01*
X62591734Y43220568D01*
X62591728Y43220571D01*
X62533725Y43247618D01*
X62481285Y43293790D01*
X62462133Y43360983D01*
X62482348Y43427865D01*
X62533725Y43472382D01*
X62539438Y43475046D01*
X62591734Y43499432D01*
X62778139Y43629953D01*
X62939047Y43790861D01*
X63069568Y43977266D01*
X63165739Y44183504D01*
X63224635Y44403308D01*
X63244468Y44630000D01*
X63224635Y44856692D01*
X63171329Y45055635D01*
X63165741Y45076489D01*
X63165738Y45076498D01*
X63154123Y45101407D01*
X63069568Y45282734D01*
X62939047Y45469139D01*
X62939045Y45469142D01*
X62778141Y45630046D01*
X62591734Y45760568D01*
X62591728Y45760571D01*
X62533725Y45787618D01*
X62481285Y45833790D01*
X62462133Y45900983D01*
X62482348Y45967865D01*
X62533725Y46012382D01*
X62539438Y46015046D01*
X62591734Y46039432D01*
X62778139Y46169953D01*
X62939047Y46330861D01*
X63069568Y46517266D01*
X63165739Y46723504D01*
X63224635Y46943308D01*
X63244468Y47170000D01*
X63224635Y47396692D01*
X63165739Y47616496D01*
X63069568Y47822734D01*
X62944397Y48001498D01*
X62939045Y48009142D01*
X62778141Y48170046D01*
X62591734Y48300568D01*
X62591728Y48300571D01*
X62533725Y48327618D01*
X62481285Y48373790D01*
X62462133Y48440983D01*
X62482348Y48507865D01*
X62533725Y48552382D01*
X62539438Y48555046D01*
X62591734Y48579432D01*
X62778139Y48709953D01*
X62939047Y48870861D01*
X63069568Y49057266D01*
X63165739Y49263504D01*
X63224635Y49483308D01*
X63244468Y49710000D01*
X63242532Y49732123D01*
X63238801Y49774770D01*
X63224635Y49936692D01*
X63165739Y50156496D01*
X63069568Y50362734D01*
X62939047Y50549139D01*
X62939045Y50549142D01*
X62778141Y50710046D01*
X62591734Y50840568D01*
X62591728Y50840571D01*
X62533725Y50867618D01*
X62481285Y50913790D01*
X62462133Y50980983D01*
X62482348Y51047865D01*
X62533725Y51092382D01*
X62539438Y51095046D01*
X62591734Y51119432D01*
X62778139Y51249953D01*
X62939047Y51410861D01*
X63069568Y51597266D01*
X63141720Y51751997D01*
X63187891Y51804435D01*
X63255084Y51823587D01*
X63321966Y51803371D01*
X63366483Y51751996D01*
X63419865Y51637519D01*
X63419866Y51637517D01*
X63470973Y51564529D01*
X63470973Y51564528D01*
X64012580Y52106135D01*
X64073903Y52139620D01*
X64143594Y52134636D01*
X64199528Y52092765D01*
X64210742Y52074754D01*
X64212173Y52071947D01*
X64222358Y52051956D01*
X64222363Y52051950D01*
X64311949Y51962364D01*
X64311951Y51962363D01*
X64311955Y51962359D01*
X64334747Y51950746D01*
X64385542Y51902772D01*
X64402337Y51834951D01*
X64379799Y51768816D01*
X64366132Y51752581D01*
X63824526Y51210975D01*
X63824526Y51210974D01*
X63897512Y51159869D01*
X63897516Y51159867D01*
X64103673Y51063735D01*
X64103682Y51063731D01*
X64323389Y51004861D01*
X64323400Y51004859D01*
X64549998Y50985034D01*
X64550002Y50985034D01*
X64776599Y51004859D01*
X64776610Y51004861D01*
X64996317Y51063731D01*
X64996331Y51063736D01*
X65202478Y51159864D01*
X65275472Y51210975D01*
X64733866Y51752581D01*
X64700381Y51813904D01*
X64705365Y51883596D01*
X64747237Y51939529D01*
X64765245Y51950742D01*
X64788045Y51962359D01*
X64877641Y52051955D01*
X64889254Y52074748D01*
X64937225Y52125542D01*
X65005046Y52142339D01*
X65071181Y52119803D01*
X65087419Y52106134D01*
X65629025Y51564528D01*
X65680136Y51637522D01*
X65776264Y51843669D01*
X65776269Y51843683D01*
X65835139Y52063390D01*
X65835141Y52063401D01*
X65854966Y52289998D01*
X65854966Y52290003D01*
X65835141Y52516600D01*
X65835139Y52516611D01*
X65776269Y52736318D01*
X65776265Y52736327D01*
X65680133Y52942484D01*
X65680131Y52942488D01*
X65629026Y53015474D01*
X65629025Y53015474D01*
X65087419Y52473868D01*
X65026096Y52440383D01*
X64956404Y52445367D01*
X64900471Y52487239D01*
X64889256Y52505249D01*
X64877641Y52528045D01*
X64877637Y52528049D01*
X64877636Y52528051D01*
X64788050Y52617637D01*
X64788044Y52617642D01*
X64778109Y52622704D01*
X64765250Y52629256D01*
X64714456Y52677227D01*
X64697660Y52745048D01*
X64720197Y52811183D01*
X64733865Y52827420D01*
X65275472Y53369027D01*
X65202483Y53420134D01*
X65202481Y53420135D01*
X65187023Y53427343D01*
X65134584Y53473516D01*
X65115432Y53540710D01*
X65135648Y53607591D01*
X65187023Y53652107D01*
X65202734Y53659432D01*
X65389139Y53789953D01*
X65550047Y53950861D01*
X65680568Y54137266D01*
X65776739Y54343504D01*
X65835635Y54563308D01*
X65855468Y54790000D01*
X65835635Y55016692D01*
X65776739Y55236496D01*
X65680568Y55442734D01*
X65550047Y55629139D01*
X65550045Y55629142D01*
X65389141Y55790046D01*
X65202734Y55920568D01*
X65202732Y55920569D01*
X64996497Y56016739D01*
X64996488Y56016742D01*
X64776697Y56075634D01*
X64776693Y56075635D01*
X64776692Y56075635D01*
X64776691Y56075636D01*
X64776686Y56075636D01*
X64550002Y56095468D01*
X64549998Y56095468D01*
X64323313Y56075636D01*
X64323302Y56075634D01*
X64103511Y56016742D01*
X64103502Y56016739D01*
X63897267Y55920569D01*
X63897265Y55920568D01*
X63710858Y55790046D01*
X63549954Y55629142D01*
X63419432Y55442735D01*
X63419431Y55442733D01*
X63356882Y55308596D01*
X63310709Y55256157D01*
X63243516Y55237005D01*
X63176635Y55257221D01*
X63132118Y55308596D01*
X63111536Y55352734D01*
X63069568Y55442734D01*
X62942923Y55623603D01*
X62920597Y55689809D01*
X62920500Y55694725D01*
X62920500Y64572412D01*
X62940185Y64639451D01*
X62942925Y64643535D01*
X63050568Y64797266D01*
X63146739Y65003504D01*
X63205635Y65223308D01*
X63225468Y65450000D01*
X63222243Y65486857D01*
X63217015Y65546621D01*
X63205635Y65676692D01*
X63146739Y65896496D01*
X63050568Y66102734D01*
X62962925Y66227903D01*
X62940597Y66294110D01*
X62940500Y66299026D01*
X62940500Y67850744D01*
X62925074Y68002440D01*
X62864162Y68196580D01*
X62864160Y68196584D01*
X62864159Y68196588D01*
X62765409Y68374502D01*
X62662195Y68494731D01*
X62633464Y68558418D01*
X62643726Y68627530D01*
X62689723Y68680123D01*
X62756282Y68699500D01*
X64952405Y68699500D01*
X64997786Y68699500D01*
X65002208Y68699343D01*
X65233020Y68682835D01*
X65250529Y68680317D01*
X65470144Y68632542D01*
X65487103Y68627563D01*
X65697694Y68549017D01*
X65713777Y68541673D01*
X65872396Y68455059D01*
X65911036Y68433960D01*
X65925919Y68424395D01*
X66105836Y68289711D01*
X66119207Y68278125D01*
X66278124Y68119208D01*
X66289710Y68105837D01*
X66424394Y67925920D01*
X66433959Y67911037D01*
X66541669Y67713783D01*
X66549019Y67697689D01*
X66627559Y67487113D01*
X66632543Y67470138D01*
X66680316Y67250530D01*
X66682834Y67233018D01*
X66699342Y67002211D01*
X66699500Y66997787D01*
X66699500Y2002214D01*
X66699342Y1997790D01*
X66682834Y1766983D01*
X66680316Y1749471D01*
X66632543Y1529863D01*
X66627559Y1512888D01*
X66549019Y1302312D01*
X66541669Y1286218D01*
X66433959Y1088964D01*
X66424394Y1074081D01*
X66289710Y894164D01*
X66278124Y880793D01*
X66119207Y721876D01*
X66105836Y710290D01*
X65925919Y575606D01*
X65911036Y566041D01*
X65713782Y458331D01*
X65697688Y450981D01*
X65487112Y372441D01*
X65470137Y367457D01*
X65250529Y319684D01*
X65233017Y317166D01*
X65019172Y301872D01*
X65002208Y300658D01*
X64997786Y300500D01*
X2002214Y300500D01*
X1997791Y300658D01*
X1979142Y301992D01*
X1766982Y317166D01*
X1749470Y319684D01*
X1529862Y367457D01*
X1512887Y372441D01*
X1302311Y450981D01*
X1286217Y458331D01*
X1088963Y566041D01*
X1074080Y575606D01*
X894163Y710290D01*
X880792Y721876D01*
X721875Y880793D01*
X710289Y894164D01*
X575605Y1074081D01*
X566040Y1088964D01*
X458330Y1286218D01*
X450983Y1302306D01*
X372437Y1512897D01*
X367458Y1529856D01*
X319683Y1749471D01*
X317165Y1766983D01*
X313855Y1813259D01*
X300657Y1997792D01*
X300500Y2002214D01*
X300500Y3039999D01*
X8404532Y3039999D01*
X8424364Y2813314D01*
X8424366Y2813303D01*
X8483258Y2593512D01*
X8483261Y2593503D01*
X8579431Y2387268D01*
X8579432Y2387266D01*
X8709954Y2200859D01*
X8870858Y2039955D01*
X8870861Y2039953D01*
X9057266Y1909432D01*
X9263504Y1813261D01*
X9483308Y1754365D01*
X9645230Y1740199D01*
X9709998Y1734532D01*
X9710000Y1734532D01*
X9710002Y1734532D01*
X9766673Y1739491D01*
X9936692Y1754365D01*
X10156496Y1813261D01*
X10362734Y1909432D01*
X10549139Y2039953D01*
X10710047Y2200861D01*
X10840568Y2387266D01*
X10936739Y2593504D01*
X10995635Y2813308D01*
X11015468Y3040000D01*
X10995635Y3266692D01*
X10936739Y3486496D01*
X10840568Y3692734D01*
X10710047Y3879139D01*
X10710045Y3879142D01*
X10549141Y4040046D01*
X10362734Y4170568D01*
X10362732Y4170569D01*
X10156497Y4266739D01*
X10156488Y4266742D01*
X9936697Y4325634D01*
X9936693Y4325635D01*
X9936692Y4325635D01*
X9936691Y4325636D01*
X9936686Y4325636D01*
X9710002Y4345468D01*
X9709998Y4345468D01*
X9483313Y4325636D01*
X9483302Y4325634D01*
X9263511Y4266742D01*
X9263502Y4266739D01*
X9057267Y4170569D01*
X9057265Y4170568D01*
X8870858Y4040046D01*
X8709954Y3879142D01*
X8579432Y3692735D01*
X8579431Y3692733D01*
X8483261Y3486498D01*
X8483258Y3486489D01*
X8424366Y3266698D01*
X8424364Y3266687D01*
X8404532Y3040002D01*
X8404532Y3039999D01*
X300500Y3039999D01*
X300500Y26825485D01*
X320185Y26892524D01*
X372989Y26938279D01*
X442147Y26948223D01*
X505703Y26919198D01*
X529492Y26891459D01*
X608217Y26766170D01*
X736170Y26638217D01*
X889387Y26541944D01*
X1060185Y26482179D01*
X1060191Y26482179D01*
X1060193Y26482178D01*
X1239996Y26461919D01*
X1240000Y26461919D01*
X1240002Y26461919D01*
X1253279Y26463415D01*
X1322101Y26451361D01*
X1373480Y26404012D01*
X1391105Y26336402D01*
X1377073Y26282787D01*
X1356092Y26242620D01*
X1356090Y26242615D01*
X1346640Y26209592D01*
X1344007Y26202196D01*
X1330459Y26170624D01*
X1318113Y26110548D01*
X1316990Y26105972D01*
X1300113Y26046990D01*
X1300113Y26046988D01*
X1297503Y26012726D01*
X1296414Y26004959D01*
X1292828Y25987502D01*
X1289500Y25971309D01*
X1289500Y25909970D01*
X1289321Y25905261D01*
X1284663Y25844091D01*
X1289002Y25810014D01*
X1289499Y25802175D01*
X1289499Y11249257D01*
X1304925Y11097561D01*
X1365837Y10903421D01*
X1365844Y10903406D01*
X1464589Y10725501D01*
X1464592Y10725496D01*
X1597132Y10571107D01*
X1597134Y10571105D01*
X1758037Y10446555D01*
X1758038Y10446555D01*
X1758042Y10446552D01*
X1940729Y10356940D01*
X2137715Y10305937D01*
X2340936Y10295631D01*
X2517225Y10322638D01*
X2586470Y10313332D01*
X2639693Y10268066D01*
X2659995Y10201211D01*
X2660000Y10200068D01*
X2660000Y8392156D01*
X2666401Y8332627D01*
X2675276Y8308830D01*
X3484814Y9118369D01*
X3546137Y9151854D01*
X3615828Y9146870D01*
X3669443Y9108000D01*
X3750464Y9006401D01*
X3750466Y9006400D01*
X3822723Y8957135D01*
X3867025Y8903106D01*
X3875083Y8833703D01*
X3844340Y8770960D01*
X3840552Y8767001D01*
X3028829Y7955278D01*
X3031811Y7941566D01*
X3054204Y7924803D01*
X3078621Y7859339D01*
X3063769Y7791066D01*
X3046169Y7766512D01*
X2951021Y7663153D01*
X2951019Y7663152D01*
X2951016Y7663147D01*
X2824075Y7468849D01*
X2730842Y7256301D01*
X2673866Y7031309D01*
X2673864Y7031298D01*
X2654700Y6800007D01*
X2654700Y6799994D01*
X2673864Y6568703D01*
X2673866Y6568692D01*
X2730842Y6343700D01*
X2824075Y6131152D01*
X2951015Y5936855D01*
X2951017Y5936853D01*
X2951021Y5936847D01*
X3108216Y5766087D01*
X3108219Y5766085D01*
X3108222Y5766082D01*
X3291365Y5623536D01*
X3291371Y5623532D01*
X3291374Y5623530D01*
X3495497Y5513064D01*
X3609487Y5473932D01*
X3715015Y5437703D01*
X3715017Y5437703D01*
X3715019Y5437702D01*
X3943951Y5399500D01*
X3943952Y5399500D01*
X4176048Y5399500D01*
X4176049Y5399500D01*
X4404981Y5437702D01*
X4624503Y5513064D01*
X4828626Y5623530D01*
X5011784Y5766087D01*
X5168979Y5936847D01*
X5168982Y5936853D01*
X5168985Y5936855D01*
X5280653Y6107777D01*
X5295924Y6131151D01*
X5389157Y6343700D01*
X5446134Y6568695D01*
X5447009Y6579253D01*
X5465300Y6799994D01*
X5465300Y6800007D01*
X5446135Y7031298D01*
X5446133Y7031309D01*
X5389157Y7256301D01*
X5295924Y7468849D01*
X5168981Y7663151D01*
X5073831Y7766512D01*
X5042909Y7829166D01*
X5050769Y7898592D01*
X5089056Y7945559D01*
X5091170Y7955278D01*
X4282057Y8764390D01*
X4248572Y8825713D01*
X4253556Y8895404D01*
X4295428Y8951338D01*
X4315930Y8963788D01*
X4316357Y8963993D01*
X4415798Y9056260D01*
X4438033Y9094774D01*
X4488596Y9142986D01*
X4557203Y9156211D01*
X4622068Y9130244D01*
X4633100Y9120453D01*
X5444722Y8308830D01*
X5444723Y8308830D01*
X5453598Y8332625D01*
X5459999Y8392156D01*
X5460000Y8392173D01*
X5460000Y10287828D01*
X5459999Y10287845D01*
X5453598Y10347373D01*
X5453597Y10347377D01*
X5424705Y10424840D01*
X5419721Y10494532D01*
X5453206Y10555855D01*
X5514529Y10589340D01*
X5584220Y10584356D01*
X5628568Y10555855D01*
X7392603Y8791820D01*
X7397956Y8785717D01*
X7409280Y8770960D01*
X7418693Y8758693D01*
X7443111Y8739957D01*
X7447292Y8736748D01*
X7447302Y8736740D01*
X7464552Y8723504D01*
X7539162Y8666254D01*
X7679451Y8608144D01*
X7754725Y8598235D01*
X7829999Y8588324D01*
X7830000Y8588324D01*
X7830001Y8588324D01*
X7842994Y8590035D01*
X7863765Y8592770D01*
X7871864Y8593300D01*
X8454980Y8593300D01*
X8522019Y8573615D01*
X8567361Y8521708D01*
X8569432Y8517266D01*
X8699954Y8330859D01*
X8860858Y8169955D01*
X8880431Y8156250D01*
X9047266Y8039432D01*
X9253504Y7943261D01*
X9253509Y7943260D01*
X9253511Y7943259D01*
X9281894Y7935654D01*
X9473308Y7884365D01*
X9635230Y7870199D01*
X9699998Y7864532D01*
X9700000Y7864532D01*
X9700002Y7864532D01*
X9756673Y7869491D01*
X9926692Y7884365D01*
X10071000Y7923032D01*
X10077207Y7924695D01*
X10147057Y7923032D01*
X10204919Y7883869D01*
X10232423Y7819641D01*
X10233300Y7804920D01*
X10233300Y7510241D01*
X10213615Y7443202D01*
X10196980Y7422558D01*
X10169249Y7394828D01*
X10107925Y7361344D01*
X10049476Y7362736D01*
X9926697Y7395634D01*
X9926693Y7395635D01*
X9926692Y7395635D01*
X9926691Y7395636D01*
X9926686Y7395636D01*
X9700002Y7415468D01*
X9699998Y7415468D01*
X9473313Y7395636D01*
X9473302Y7395634D01*
X9253511Y7336742D01*
X9253502Y7336739D01*
X9047267Y7240569D01*
X9047265Y7240568D01*
X8860858Y7110046D01*
X8699954Y6949142D01*
X8569432Y6762735D01*
X8569431Y6762733D01*
X8473261Y6556498D01*
X8473258Y6556489D01*
X8414366Y6336698D01*
X8414364Y6336687D01*
X8394532Y6110002D01*
X8394532Y6109999D01*
X8414364Y5883314D01*
X8414366Y5883303D01*
X8473258Y5663512D01*
X8473261Y5663503D01*
X8569431Y5457268D01*
X8569432Y5457266D01*
X8699954Y5270859D01*
X8860858Y5109955D01*
X8860861Y5109953D01*
X9047266Y4979432D01*
X9253504Y4883261D01*
X9473308Y4824365D01*
X9635230Y4810199D01*
X9699998Y4804532D01*
X9700000Y4804532D01*
X9700002Y4804532D01*
X9756672Y4809491D01*
X9926692Y4824365D01*
X10146496Y4883261D01*
X10352734Y4979432D01*
X10539139Y5109953D01*
X10700047Y5270861D01*
X10830568Y5457266D01*
X10926739Y5663504D01*
X10985635Y5883308D01*
X11005468Y6110000D01*
X11003617Y6131152D01*
X10998902Y6185048D01*
X10985635Y6336692D01*
X10952734Y6459479D01*
X10954397Y6529328D01*
X10984826Y6579251D01*
X11188191Y6782616D01*
X11194281Y6787957D01*
X11221307Y6808693D01*
X11239125Y6831913D01*
X11247275Y6842533D01*
X11313746Y6929162D01*
X11335911Y6982673D01*
X11371856Y7069451D01*
X11391676Y7220000D01*
X11391324Y7222670D01*
X11387231Y7253764D01*
X11386700Y7261865D01*
X11386700Y9708138D01*
X11387231Y9716239D01*
X11387287Y9716660D01*
X11391676Y9750000D01*
X11388402Y9774865D01*
X11371856Y9900548D01*
X11371856Y9900549D01*
X11313746Y10040838D01*
X11291225Y10070188D01*
X11243260Y10132698D01*
X11243252Y10132708D01*
X11240043Y10136889D01*
X11221307Y10161307D01*
X11209917Y10170047D01*
X11194283Y10182044D01*
X11188180Y10187397D01*
X8284281Y13091296D01*
X8250796Y13152619D01*
X8255780Y13222311D01*
X8297652Y13278244D01*
X8319551Y13291356D01*
X8468830Y13360965D01*
X8662401Y13496505D01*
X8829495Y13663599D01*
X8965035Y13857170D01*
X8976202Y13881119D01*
X9022372Y13933558D01*
X9089565Y13952711D01*
X9156447Y13932497D01*
X9196517Y13886261D01*
X9197724Y13886957D01*
X9200432Y13882266D01*
X9330954Y13695859D01*
X9491858Y13534955D01*
X9491861Y13534953D01*
X9678266Y13404432D01*
X9884504Y13308261D01*
X10104308Y13249365D01*
X10266230Y13235199D01*
X10330998Y13229532D01*
X10331000Y13229532D01*
X10331002Y13229532D01*
X10387672Y13234491D01*
X10557692Y13249365D01*
X10777496Y13308261D01*
X10983734Y13404432D01*
X11170139Y13534953D01*
X11170140Y13534955D01*
X11334876Y13699689D01*
X11336108Y13698457D01*
X11387725Y13732827D01*
X11457586Y13733964D01*
X11512272Y13702115D01*
X11596170Y13618217D01*
X11749387Y13521944D01*
X11920185Y13462179D01*
X11920191Y13462179D01*
X11920193Y13462178D01*
X12099996Y13441919D01*
X12100000Y13441919D01*
X12100004Y13441919D01*
X12279806Y13462178D01*
X12279805Y13462178D01*
X12279815Y13462179D01*
X12450613Y13521944D01*
X12603830Y13618217D01*
X12731783Y13746170D01*
X12819707Y13886101D01*
X12872041Y13932390D01*
X12941094Y13943038D01*
X12990673Y13925120D01*
X13058874Y13882266D01*
X13059387Y13881944D01*
X13230185Y13822179D01*
X13230191Y13822179D01*
X13230193Y13822178D01*
X13409996Y13801919D01*
X13410000Y13801919D01*
X13410004Y13801919D01*
X13589806Y13822178D01*
X13589808Y13822178D01*
X13589808Y13822179D01*
X13589815Y13822179D01*
X13759447Y13881537D01*
X13829224Y13885097D01*
X13889852Y13850368D01*
X13922079Y13788375D01*
X13924400Y13764494D01*
X13924400Y5910765D01*
X13923869Y5902664D01*
X13919424Y5868902D01*
X13919424Y5868899D01*
X13939243Y5718353D01*
X13939244Y5718351D01*
X13997354Y5578061D01*
X14043698Y5517665D01*
X14047228Y5513064D01*
X14089793Y5457593D01*
X14110280Y5441873D01*
X14116811Y5436861D01*
X14122906Y5431517D01*
X15208955Y4345468D01*
X16045171Y3509252D01*
X16078656Y3447929D01*
X16077265Y3389478D01*
X16044366Y3266698D01*
X16044364Y3266687D01*
X16024532Y3040002D01*
X16024532Y3039999D01*
X16044364Y2813314D01*
X16044366Y2813303D01*
X16103258Y2593512D01*
X16103261Y2593503D01*
X16199431Y2387268D01*
X16199432Y2387266D01*
X16329954Y2200859D01*
X16490858Y2039955D01*
X16490861Y2039953D01*
X16677266Y1909432D01*
X16883504Y1813261D01*
X17103308Y1754365D01*
X17265230Y1740199D01*
X17329998Y1734532D01*
X17330000Y1734532D01*
X17330002Y1734532D01*
X17386672Y1739491D01*
X17556692Y1754365D01*
X17776496Y1813261D01*
X17982734Y1909432D01*
X18169139Y2039953D01*
X18330047Y2200861D01*
X18460568Y2387266D01*
X18556739Y2593504D01*
X18615635Y2813308D01*
X18635468Y3040000D01*
X18615635Y3266692D01*
X18556739Y3486496D01*
X18460568Y3692734D01*
X18330047Y3879139D01*
X18330045Y3879142D01*
X18169141Y4040046D01*
X17982734Y4170568D01*
X17982732Y4170569D01*
X17776497Y4266739D01*
X17776488Y4266742D01*
X17556697Y4325634D01*
X17556693Y4325635D01*
X17556692Y4325635D01*
X17556691Y4325636D01*
X17556686Y4325636D01*
X17330002Y4345468D01*
X17329998Y4345468D01*
X17103313Y4325636D01*
X17103302Y4325634D01*
X16980522Y4292735D01*
X16910672Y4294398D01*
X16860748Y4324829D01*
X15114119Y6071459D01*
X15080634Y6132782D01*
X15077800Y6159140D01*
X15077800Y15049725D01*
X15097485Y15116764D01*
X15114121Y15137408D01*
X15132882Y15156169D01*
X15132883Y15156170D01*
X15229156Y15309387D01*
X15288921Y15480185D01*
X15295102Y15535047D01*
X15309181Y15659997D01*
X15309181Y15663077D01*
X15309744Y15664996D01*
X15309961Y15666919D01*
X15310297Y15666882D01*
X15328866Y15730116D01*
X15381670Y15775871D01*
X15447065Y15786297D01*
X15579997Y15771319D01*
X15580000Y15771319D01*
X15580004Y15771319D01*
X15759806Y15791578D01*
X15759805Y15791578D01*
X15759815Y15791579D01*
X15930613Y15851344D01*
X16083830Y15947617D01*
X16177818Y16041606D01*
X16239142Y16075091D01*
X16308834Y16070107D01*
X16364767Y16028235D01*
X16389184Y15962771D01*
X16389500Y15953925D01*
X16389500Y11392714D01*
X16387243Y11303635D01*
X16387243Y11303627D01*
X16396380Y11252652D01*
X16396988Y11249258D01*
X16398064Y11243258D01*
X16398718Y11238593D01*
X16404925Y11177562D01*
X16406193Y11171393D01*
X16405326Y11171215D01*
X16409498Y11143991D01*
X16409497Y10150047D01*
X16389812Y10083007D01*
X16373179Y10062367D01*
X16319954Y10009142D01*
X16189432Y9822735D01*
X16189431Y9822733D01*
X16093261Y9616498D01*
X16093258Y9616489D01*
X16034366Y9396698D01*
X16034364Y9396687D01*
X16014532Y9170002D01*
X16014532Y9169999D01*
X16034364Y8943314D01*
X16034366Y8943303D01*
X16093258Y8723512D01*
X16093261Y8723503D01*
X16154224Y8592769D01*
X16189432Y8517266D01*
X16277022Y8392173D01*
X16297075Y8363535D01*
X16319402Y8297329D01*
X16319500Y8292412D01*
X16319500Y6987590D01*
X16299815Y6920551D01*
X16297076Y6916468D01*
X16189431Y6762733D01*
X16093261Y6556498D01*
X16093258Y6556489D01*
X16034366Y6336698D01*
X16034364Y6336687D01*
X16014532Y6110002D01*
X16014532Y6109999D01*
X16034364Y5883314D01*
X16034366Y5883303D01*
X16093258Y5663512D01*
X16093261Y5663503D01*
X16189431Y5457268D01*
X16189432Y5457266D01*
X16319954Y5270859D01*
X16480858Y5109955D01*
X16480861Y5109953D01*
X16667266Y4979432D01*
X16873504Y4883261D01*
X17093308Y4824365D01*
X17255230Y4810199D01*
X17319998Y4804532D01*
X17320000Y4804532D01*
X17320002Y4804532D01*
X17376672Y4809491D01*
X17546692Y4824365D01*
X17766496Y4883261D01*
X17972734Y4979432D01*
X18159139Y5109953D01*
X18320047Y5270861D01*
X18450568Y5457266D01*
X18546739Y5663504D01*
X18605635Y5883308D01*
X18625468Y6110000D01*
X18623617Y6131152D01*
X18618902Y6185048D01*
X18605635Y6336692D01*
X18546739Y6556496D01*
X18450568Y6762734D01*
X18364230Y6886038D01*
X18342924Y6916467D01*
X18320597Y6982673D01*
X18320499Y6987590D01*
X18320499Y8292412D01*
X18340184Y8359451D01*
X18342896Y8363495D01*
X18450568Y8517266D01*
X18546739Y8723504D01*
X18605635Y8943308D01*
X18625468Y9170000D01*
X18605635Y9396692D01*
X18546739Y9616496D01*
X18450568Y9822734D01*
X18442353Y9834466D01*
X18432921Y9847938D01*
X18410595Y9914145D01*
X18410498Y9919059D01*
X18410498Y11347324D01*
X18412754Y11436357D01*
X18412753Y11436358D01*
X18412754Y11436363D01*
X18401927Y11496766D01*
X18401280Y11501379D01*
X18395072Y11562437D01*
X18395070Y11562443D01*
X18393807Y11568593D01*
X18394674Y11568772D01*
X18390499Y11595999D01*
X18390499Y26310009D01*
X18410184Y26377047D01*
X18462988Y26422802D01*
X18528383Y26433228D01*
X18540000Y26431919D01*
X18540000Y26431920D01*
X18540001Y26431919D01*
X18540003Y26431919D01*
X18719806Y26452178D01*
X18719805Y26452178D01*
X18719815Y26452179D01*
X18890613Y26511944D01*
X19043830Y26608217D01*
X19171783Y26736170D01*
X19268056Y26889387D01*
X19327821Y27060185D01*
X19345734Y27219171D01*
X19348081Y27239997D01*
X19348081Y27240004D01*
X19327822Y27419807D01*
X19327821Y27419813D01*
X19327821Y27419815D01*
X19268056Y27590613D01*
X19171783Y27743830D01*
X19153018Y27762595D01*
X19119534Y27823917D01*
X19116700Y27850275D01*
X19116700Y28859607D01*
X19136385Y28926646D01*
X19189189Y28972401D01*
X19226817Y28982827D01*
X19309806Y28992178D01*
X19309805Y28992178D01*
X19309815Y28992179D01*
X19480613Y29051944D01*
X19633830Y29148217D01*
X19761783Y29276170D01*
X19858056Y29429387D01*
X19917821Y29600185D01*
X19936559Y29766489D01*
X19938081Y29779997D01*
X19938081Y29780004D01*
X19917822Y29959807D01*
X19917821Y29959813D01*
X19917821Y29959815D01*
X19858056Y30130613D01*
X19761783Y30283830D01*
X19731918Y30313694D01*
X19698434Y30375017D01*
X19695600Y30401375D01*
X19695600Y30901759D01*
X19695600Y31406248D01*
X19715283Y31473283D01*
X19768087Y31519038D01*
X19805713Y31529464D01*
X19829815Y31532179D01*
X20000613Y31591944D01*
X20153830Y31688217D01*
X20281783Y31816170D01*
X20378056Y31969387D01*
X20437821Y32140185D01*
X20448010Y32230613D01*
X20458081Y32319997D01*
X20458081Y32320004D01*
X20437822Y32499807D01*
X20437821Y32499813D01*
X20437821Y32499815D01*
X20378056Y32670613D01*
X20281783Y32823830D01*
X20263019Y32842594D01*
X20229534Y32903917D01*
X20226700Y32930275D01*
X20226700Y33930436D01*
X20246385Y33997475D01*
X20299189Y34043230D01*
X20364584Y34053656D01*
X20372619Y34052751D01*
X20379999Y34051919D01*
X20380000Y34051919D01*
X20380003Y34051919D01*
X20559806Y34072178D01*
X20559805Y34072178D01*
X20559815Y34072179D01*
X20730613Y34131944D01*
X20883830Y34228217D01*
X21011783Y34356170D01*
X21108056Y34509387D01*
X21167821Y34680185D01*
X21186559Y34846489D01*
X21188081Y34859997D01*
X21188081Y34860004D01*
X21167822Y35039807D01*
X21167821Y35039813D01*
X21167821Y35039815D01*
X21108056Y35210613D01*
X21011783Y35363830D01*
X20993018Y35382594D01*
X20959534Y35443917D01*
X20956700Y35470275D01*
X20956700Y36460436D01*
X20976385Y36527475D01*
X21029189Y36573230D01*
X21094584Y36583656D01*
X21102619Y36582751D01*
X21109999Y36581919D01*
X21110000Y36581919D01*
X21110003Y36581919D01*
X21289806Y36602178D01*
X21289805Y36602178D01*
X21289815Y36602179D01*
X21460613Y36661944D01*
X21613830Y36758217D01*
X21741783Y36886170D01*
X21838056Y37039387D01*
X21897821Y37210185D01*
X21900808Y37236698D01*
X21918081Y37389997D01*
X21918081Y37390004D01*
X21897822Y37569807D01*
X21897821Y37569813D01*
X21897821Y37569815D01*
X21838056Y37740613D01*
X21780860Y37831640D01*
X21741782Y37893832D01*
X21721918Y37913696D01*
X21688433Y37975019D01*
X21685599Y38001377D01*
X21685599Y38537897D01*
X21685599Y39021248D01*
X21705284Y39088283D01*
X21758088Y39134038D01*
X21795713Y39144464D01*
X21819815Y39147179D01*
X21990613Y39206944D01*
X22113328Y39284052D01*
X22180562Y39303052D01*
X22247398Y39282685D01*
X22292612Y39229418D01*
X22303299Y39179058D01*
X22303299Y39132776D01*
X22283614Y39065737D01*
X22266981Y39045096D01*
X22158218Y38936332D01*
X22158217Y38936331D01*
X22061943Y38783113D01*
X22002178Y38612313D01*
X22002177Y38612307D01*
X21981919Y38432504D01*
X21981919Y38432497D01*
X22002177Y38252694D01*
X22002178Y38252688D01*
X22061943Y38081888D01*
X22112532Y38001377D01*
X22158217Y37928670D01*
X22286170Y37800717D01*
X22439387Y37704444D01*
X22439389Y37704443D01*
X22610177Y37644681D01*
X22610182Y37644680D01*
X22610185Y37644679D01*
X22663184Y37638708D01*
X22727596Y37611643D01*
X22767152Y37554049D01*
X22773300Y37515488D01*
X22773300Y19500275D01*
X22753615Y19433236D01*
X22736981Y19412594D01*
X22718217Y19393831D01*
X22621943Y19240613D01*
X22562178Y19069813D01*
X22562177Y19069807D01*
X22541919Y18890004D01*
X22541919Y18889997D01*
X22562177Y18710194D01*
X22562178Y18710188D01*
X22621943Y18539388D01*
X22656476Y18484430D01*
X22718217Y18386170D01*
X22846170Y18258217D01*
X22999387Y18161944D01*
X23170185Y18102179D01*
X23170191Y18102179D01*
X23170193Y18102178D01*
X23349996Y18081919D01*
X23350000Y18081919D01*
X23350004Y18081919D01*
X23529806Y18102178D01*
X23529805Y18102178D01*
X23529815Y18102179D01*
X23700613Y18161944D01*
X23853830Y18258217D01*
X23981783Y18386170D01*
X24078056Y18539387D01*
X24091045Y18576507D01*
X24137819Y18710178D01*
X24137820Y18710183D01*
X24137821Y18710185D01*
X24146375Y18786109D01*
X24173439Y18850518D01*
X24228636Y18889263D01*
X24350613Y18931944D01*
X24350616Y18931947D01*
X24351153Y18932134D01*
X24420931Y18935695D01*
X24481559Y18900966D01*
X24493682Y18886215D01*
X24570953Y18775860D01*
X24731858Y18614955D01*
X24731861Y18614953D01*
X24918266Y18484432D01*
X24976275Y18457382D01*
X25028714Y18411209D01*
X25047866Y18344016D01*
X25027650Y18277135D01*
X24976275Y18232619D01*
X24959272Y18224690D01*
X24918267Y18205569D01*
X24918265Y18205568D01*
X24731858Y18075046D01*
X24570954Y17914142D01*
X24440432Y17727735D01*
X24440431Y17727733D01*
X24344261Y17521498D01*
X24344258Y17521489D01*
X24285366Y17301698D01*
X24285364Y17301687D01*
X24265532Y17075002D01*
X24265532Y17074999D01*
X24285364Y16848314D01*
X24285366Y16848303D01*
X24344258Y16628512D01*
X24344261Y16628503D01*
X24440431Y16422268D01*
X24440432Y16422266D01*
X24570954Y16235859D01*
X24731858Y16074955D01*
X24731861Y16074953D01*
X24918266Y15944432D01*
X24976865Y15917107D01*
X25029305Y15870935D01*
X25048457Y15803742D01*
X25028242Y15736861D01*
X24976867Y15692343D01*
X24918511Y15665131D01*
X24845526Y15614027D01*
X25387133Y15072420D01*
X25420618Y15011097D01*
X25415634Y14941405D01*
X25373762Y14885472D01*
X25355748Y14874255D01*
X25332956Y14862642D01*
X25332949Y14862637D01*
X25243363Y14773051D01*
X25243358Y14773044D01*
X25231745Y14750252D01*
X25183770Y14699456D01*
X25115949Y14682662D01*
X25049814Y14705200D01*
X25033580Y14718867D01*
X24491973Y15260474D01*
X24440868Y15187487D01*
X24344734Y14981327D01*
X24344730Y14981318D01*
X24285860Y14761611D01*
X24285858Y14761600D01*
X24266034Y14535003D01*
X24266034Y14534998D01*
X24285858Y14308401D01*
X24285860Y14308390D01*
X24344730Y14088683D01*
X24344734Y14088674D01*
X24440865Y13882519D01*
X24440866Y13882517D01*
X24491973Y13809529D01*
X24491973Y13809528D01*
X25033580Y14351135D01*
X25094903Y14384620D01*
X25164594Y14379636D01*
X25220528Y14337765D01*
X25231742Y14319754D01*
X25237527Y14308401D01*
X25243358Y14296956D01*
X25243363Y14296950D01*
X25332949Y14207364D01*
X25332951Y14207363D01*
X25332955Y14207359D01*
X25355747Y14195746D01*
X25406542Y14147772D01*
X25423337Y14079951D01*
X25400799Y14013816D01*
X25387132Y13997581D01*
X24845526Y13455975D01*
X24845526Y13455974D01*
X24918512Y13404869D01*
X24918516Y13404867D01*
X25124673Y13308735D01*
X25124682Y13308731D01*
X25344389Y13249861D01*
X25344400Y13249859D01*
X25570998Y13230034D01*
X25571002Y13230034D01*
X25797599Y13249859D01*
X25797610Y13249861D01*
X26017317Y13308731D01*
X26017331Y13308736D01*
X26223478Y13404864D01*
X26296472Y13455975D01*
X25754866Y13997581D01*
X25721381Y14058904D01*
X25726365Y14128596D01*
X25768237Y14184529D01*
X25786245Y14195742D01*
X25809045Y14207359D01*
X25898641Y14296955D01*
X25910254Y14319748D01*
X25958225Y14370542D01*
X26026046Y14387339D01*
X26092181Y14364803D01*
X26108419Y14351134D01*
X26650025Y13809528D01*
X26701136Y13882522D01*
X26703842Y13887207D01*
X26705011Y13886532D01*
X26746901Y13934132D01*
X26814090Y13953302D01*
X26880976Y13933104D01*
X26925520Y13881713D01*
X26936964Y13857172D01*
X26936967Y13857166D01*
X27019922Y13738695D01*
X27072505Y13663599D01*
X27239599Y13496505D01*
X27316592Y13442594D01*
X27433165Y13360968D01*
X27433167Y13360967D01*
X27433170Y13360965D01*
X27647337Y13261097D01*
X27875592Y13199937D01*
X28063918Y13183461D01*
X28110999Y13179341D01*
X28111000Y13179341D01*
X28111001Y13179341D01*
X28150234Y13182774D01*
X28346408Y13199937D01*
X28574663Y13261097D01*
X28788830Y13360965D01*
X28982401Y13496505D01*
X29149495Y13663599D01*
X29285035Y13857170D01*
X29384903Y14071337D01*
X29446063Y14299592D01*
X29466659Y14535000D01*
X29446063Y14770408D01*
X29384903Y14998663D01*
X29285035Y15212829D01*
X29285033Y15212833D01*
X29149494Y15406403D01*
X28982402Y15573494D01*
X28982401Y15573495D01*
X28796842Y15703425D01*
X28796841Y15703426D01*
X28753216Y15758003D01*
X28746024Y15827502D01*
X28777546Y15889856D01*
X28796836Y15906572D01*
X28982401Y16036505D01*
X29149495Y16203599D01*
X29285035Y16397170D01*
X29384903Y16611337D01*
X29446063Y16839592D01*
X29466659Y17075000D01*
X29446063Y17310408D01*
X29384903Y17538663D01*
X29285035Y17752829D01*
X29285033Y17752833D01*
X29149494Y17946403D01*
X28982402Y18113494D01*
X28982396Y18113499D01*
X28796842Y18243425D01*
X28753217Y18298002D01*
X28746023Y18367500D01*
X28777546Y18429855D01*
X28796842Y18446575D01*
X28906049Y18523043D01*
X28982401Y18576505D01*
X29149495Y18743599D01*
X29285035Y18937170D01*
X29384903Y19151337D01*
X29446063Y19379592D01*
X29466659Y19615000D01*
X29446063Y19850408D01*
X29384903Y20078663D01*
X29285035Y20292829D01*
X29285033Y20292833D01*
X29149494Y20486403D01*
X28982402Y20653494D01*
X28982401Y20653495D01*
X28812276Y20772618D01*
X28796841Y20783426D01*
X28753216Y20838003D01*
X28746024Y20907502D01*
X28777546Y20969856D01*
X28796836Y20986572D01*
X28982401Y21116505D01*
X29149495Y21283599D01*
X29285035Y21477170D01*
X29384903Y21691337D01*
X29446063Y21919592D01*
X29466659Y22155000D01*
X29446063Y22390408D01*
X29384903Y22618663D01*
X29285035Y22832829D01*
X29285033Y22832833D01*
X29149494Y23026403D01*
X28982402Y23193494D01*
X28982396Y23193499D01*
X28796842Y23323425D01*
X28753217Y23378002D01*
X28746023Y23447500D01*
X28777546Y23509855D01*
X28796842Y23526575D01*
X28852285Y23565397D01*
X28982401Y23656505D01*
X29149495Y23823599D01*
X29285035Y24017170D01*
X29384903Y24231337D01*
X29446063Y24459592D01*
X29466659Y24695000D01*
X29446063Y24930408D01*
X29396970Y25113629D01*
X29384905Y25158656D01*
X29384904Y25158657D01*
X29384903Y25158663D01*
X29285035Y25372829D01*
X29237604Y25440569D01*
X29149494Y25566403D01*
X28982402Y25733494D01*
X28982401Y25733495D01*
X28812276Y25852618D01*
X28796841Y25863426D01*
X28753216Y25918003D01*
X28746024Y25987502D01*
X28777546Y26049856D01*
X28796836Y26066572D01*
X28982401Y26196505D01*
X29149495Y26363599D01*
X29285035Y26557170D01*
X29384903Y26771337D01*
X29446063Y26999592D01*
X29466659Y27235000D01*
X29446063Y27470408D01*
X29393211Y27667658D01*
X29384905Y27698656D01*
X29384904Y27698657D01*
X29384903Y27698663D01*
X29285035Y27912829D01*
X29285033Y27912833D01*
X29149494Y28106403D01*
X28982402Y28273494D01*
X28982396Y28273499D01*
X28796842Y28403425D01*
X28753217Y28458002D01*
X28746023Y28527500D01*
X28777546Y28589855D01*
X28796842Y28606575D01*
X28857985Y28649388D01*
X28982401Y28736505D01*
X29149495Y28903599D01*
X29285035Y29097170D01*
X29384903Y29311337D01*
X29446063Y29539592D01*
X29466659Y29775000D01*
X29446063Y30010408D01*
X29391381Y30214486D01*
X29384905Y30238656D01*
X29384904Y30238657D01*
X29384903Y30238663D01*
X29285035Y30452829D01*
X29259395Y30489448D01*
X29149494Y30646403D01*
X28982402Y30813494D01*
X28982401Y30813495D01*
X28850409Y30905917D01*
X28796841Y30943426D01*
X28753216Y30998003D01*
X28746024Y31067502D01*
X28777546Y31129856D01*
X28796836Y31146572D01*
X28982401Y31276505D01*
X29149495Y31443599D01*
X29285035Y31637170D01*
X29384903Y31851337D01*
X29446063Y32079592D01*
X29466659Y32315000D01*
X29446063Y32550408D01*
X29384903Y32778663D01*
X29285035Y32992829D01*
X29259395Y33029448D01*
X29149494Y33186403D01*
X28982402Y33353494D01*
X28982401Y33353495D01*
X28796405Y33483731D01*
X28752781Y33538308D01*
X28745588Y33607807D01*
X28777110Y33670161D01*
X28796405Y33686881D01*
X28982082Y33816895D01*
X29149105Y33983918D01*
X29284600Y34177422D01*
X29384429Y34391508D01*
X29384432Y34391514D01*
X29441636Y34605000D01*
X28724347Y34605000D01*
X28657308Y34624685D01*
X28611553Y34677489D01*
X28601609Y34746647D01*
X28605369Y34763933D01*
X28611000Y34783112D01*
X28611000Y34926889D01*
X28605369Y34946067D01*
X28605370Y35015936D01*
X28643145Y35074714D01*
X28706701Y35103738D01*
X28724347Y35105000D01*
X29441636Y35105000D01*
X29441635Y35105001D01*
X29384432Y35318487D01*
X29384429Y35318493D01*
X29284600Y35532578D01*
X29284599Y35532580D01*
X29149113Y35726074D01*
X29149108Y35726080D01*
X28982078Y35893110D01*
X28796405Y36023121D01*
X28752780Y36077698D01*
X28745588Y36147196D01*
X28777110Y36209551D01*
X28796406Y36226270D01*
X28850907Y36264432D01*
X28982401Y36356505D01*
X29149495Y36523599D01*
X29285035Y36717170D01*
X29384903Y36931337D01*
X29446063Y37159592D01*
X29466659Y37395000D01*
X29446063Y37630408D01*
X29392144Y37831640D01*
X29384905Y37858656D01*
X29384904Y37858657D01*
X29384903Y37858663D01*
X29285035Y38072829D01*
X29266439Y38099388D01*
X29149494Y38266403D01*
X28982402Y38433494D01*
X28982396Y38433499D01*
X28796842Y38563425D01*
X28753217Y38618002D01*
X28746023Y38687500D01*
X28777546Y38749855D01*
X28796842Y38766575D01*
X28862474Y38812531D01*
X28982401Y38896505D01*
X29149495Y39063599D01*
X29285035Y39257170D01*
X29384903Y39471337D01*
X29446063Y39699592D01*
X29448039Y39722180D01*
X29473488Y39787244D01*
X29530077Y39828224D01*
X29599839Y39832105D01*
X29660624Y39797653D01*
X29688498Y39746274D01*
X29689880Y39746757D01*
X29692178Y39740188D01*
X29692179Y39740185D01*
X29706383Y39699592D01*
X29751943Y39569388D01*
X29808110Y39480000D01*
X29848217Y39416170D01*
X29976170Y39288217D01*
X30129387Y39191944D01*
X30135037Y39189967D01*
X30140863Y39187928D01*
X30197639Y39147207D01*
X30223388Y39082255D01*
X30209933Y39013693D01*
X30187593Y38983206D01*
X30158216Y38953829D01*
X30061943Y38800613D01*
X30002178Y38629813D01*
X30002177Y38629807D01*
X29981919Y38450004D01*
X29981919Y38449997D01*
X30002177Y38270194D01*
X30002178Y38270188D01*
X30061943Y38099388D01*
X30158217Y37946170D01*
X30176981Y37927406D01*
X30210466Y37866083D01*
X30213300Y37839725D01*
X30213300Y29610277D01*
X30193615Y29543238D01*
X30176983Y29522598D01*
X30158219Y29503834D01*
X30061943Y29350613D01*
X30002178Y29179813D01*
X30002177Y29179807D01*
X29981919Y29000004D01*
X29981919Y28999997D01*
X30002177Y28820194D01*
X30002178Y28820188D01*
X30061943Y28649388D01*
X30110025Y28572867D01*
X30158217Y28496170D01*
X30286170Y28368217D01*
X30439387Y28271944D01*
X30610185Y28212179D01*
X30610191Y28212179D01*
X30610193Y28212178D01*
X30789996Y28191919D01*
X30790000Y28191919D01*
X30790004Y28191919D01*
X30969806Y28212178D01*
X30969805Y28212178D01*
X30969815Y28212179D01*
X31140613Y28271944D01*
X31293830Y28368217D01*
X31421783Y28496170D01*
X31518056Y28649387D01*
X31577821Y28820185D01*
X31586288Y28895334D01*
X31598081Y28999997D01*
X31598081Y29000004D01*
X31577822Y29179807D01*
X31577821Y29179813D01*
X31577821Y29179815D01*
X31518056Y29350613D01*
X31421783Y29503830D01*
X31413019Y29512594D01*
X31403017Y29522597D01*
X31369533Y29583920D01*
X31366700Y29610276D01*
X31366700Y37839725D01*
X31386385Y37906764D01*
X31403021Y37927408D01*
X31407787Y37932175D01*
X31421783Y37946170D01*
X31421783Y37946172D01*
X31421785Y37946172D01*
X31449506Y37990290D01*
X31501840Y38036582D01*
X31570894Y38047231D01*
X31634742Y38018856D01*
X31673114Y37960466D01*
X31678500Y37924319D01*
X31678500Y36296665D01*
X31677969Y36288564D01*
X31673524Y36254802D01*
X31673524Y36254798D01*
X31677692Y36223138D01*
X31677693Y36223133D01*
X31693344Y36104252D01*
X31693344Y36104251D01*
X31751452Y35963965D01*
X31751453Y35963963D01*
X31751454Y35963962D01*
X31843893Y35843493D01*
X31861762Y35829782D01*
X31870911Y35822761D01*
X31877006Y35817417D01*
X32354743Y35339680D01*
X32825171Y34869252D01*
X32858656Y34807929D01*
X32857265Y34749478D01*
X32824366Y34626698D01*
X32824364Y34626687D01*
X32804532Y34400002D01*
X32804532Y34399999D01*
X32824364Y34173314D01*
X32824366Y34173303D01*
X32883258Y33953512D01*
X32883261Y33953503D01*
X32979431Y33747268D01*
X32979432Y33747266D01*
X33109954Y33560859D01*
X33270858Y33399955D01*
X33270861Y33399953D01*
X33457266Y33269432D01*
X33513390Y33243261D01*
X33515275Y33242382D01*
X33567714Y33196209D01*
X33586866Y33129016D01*
X33566650Y33062135D01*
X33515275Y33017618D01*
X33457267Y32990569D01*
X33457265Y32990568D01*
X33270858Y32860046D01*
X33109954Y32699142D01*
X32979432Y32512735D01*
X32979431Y32512733D01*
X32883261Y32306498D01*
X32883258Y32306489D01*
X32824366Y32086698D01*
X32824364Y32086687D01*
X32804532Y31860002D01*
X32804532Y31859999D01*
X32824364Y31633314D01*
X32824367Y31633300D01*
X32857264Y31510522D01*
X32855601Y31440673D01*
X32825170Y31390749D01*
X32171813Y30737391D01*
X32165710Y30732040D01*
X32138694Y30711308D01*
X32138693Y30711307D01*
X32126692Y30695667D01*
X32103021Y30664820D01*
X32046253Y30590839D01*
X31988144Y30450550D01*
X31988143Y30450548D01*
X31968324Y30300002D01*
X31968324Y30300000D01*
X31972769Y30266239D01*
X31973300Y30258138D01*
X31973300Y27380240D01*
X31953615Y27313201D01*
X31936981Y27292559D01*
X31602233Y26957812D01*
X31540910Y26924327D01*
X31528436Y26922273D01*
X31400190Y26907823D01*
X31229387Y26848057D01*
X31076169Y26751783D01*
X30948217Y26623831D01*
X30851943Y26470613D01*
X30792178Y26299813D01*
X30792177Y26299807D01*
X30771919Y26120004D01*
X30771919Y26119997D01*
X30792177Y25940194D01*
X30792178Y25940188D01*
X30851943Y25769388D01*
X30927044Y25649866D01*
X30948217Y25616170D01*
X31076170Y25488217D01*
X31229387Y25391944D01*
X31400185Y25332179D01*
X31400191Y25332179D01*
X31400193Y25332178D01*
X31579996Y25311919D01*
X31580000Y25311919D01*
X31580004Y25311919D01*
X31759806Y25332178D01*
X31759805Y25332178D01*
X31759815Y25332179D01*
X31930613Y25391944D01*
X32083830Y25488217D01*
X32211783Y25616170D01*
X32308056Y25769387D01*
X32334196Y25844091D01*
X32367819Y25940178D01*
X32367822Y25940191D01*
X32382271Y26068436D01*
X32409337Y26132851D01*
X32417800Y26142225D01*
X32673862Y26398287D01*
X32735183Y26431770D01*
X32804875Y26426786D01*
X32860808Y26384914D01*
X32881315Y26342699D01*
X32883732Y26333676D01*
X32979865Y26127518D01*
X33110342Y25941180D01*
X33271179Y25780343D01*
X33457517Y25649866D01*
X33663673Y25553735D01*
X33663682Y25553731D01*
X33859999Y25501128D01*
X33860000Y25501129D01*
X33860000Y26269425D01*
X33879685Y26336464D01*
X33932489Y26382219D01*
X34001647Y26392163D01*
X34003331Y26391909D01*
X34035699Y26386782D01*
X34078515Y26380000D01*
X34078519Y26380000D01*
X34141485Y26380000D01*
X34184300Y26386782D01*
X34216602Y26391898D01*
X34285894Y26382944D01*
X34339347Y26337948D01*
X34359987Y26271197D01*
X34360000Y26269425D01*
X34360000Y25501128D01*
X34556317Y25553731D01*
X34556326Y25553735D01*
X34762482Y25649866D01*
X34948820Y25780343D01*
X34961619Y25793141D01*
X35022942Y25826626D01*
X35092634Y25821642D01*
X35148567Y25779770D01*
X35172984Y25714306D01*
X35173300Y25705460D01*
X35173300Y23120275D01*
X35153615Y23053236D01*
X35136981Y23032594D01*
X35118217Y23013831D01*
X35021943Y22860613D01*
X34962178Y22689813D01*
X34962177Y22689807D01*
X34941919Y22510004D01*
X34941919Y22509997D01*
X34962177Y22330194D01*
X34962178Y22330188D01*
X34962178Y22330186D01*
X34962179Y22330185D01*
X34962309Y22329813D01*
X35021943Y22159388D01*
X35074151Y22076300D01*
X35118217Y22006170D01*
X35246170Y21878217D01*
X35399387Y21781944D01*
X35570185Y21722179D01*
X35570191Y21722179D01*
X35570193Y21722178D01*
X35749996Y21701919D01*
X35750000Y21701919D01*
X35750003Y21701919D01*
X35877167Y21716248D01*
X35922474Y21721352D01*
X35991296Y21709298D01*
X36042676Y21661949D01*
X36059578Y21612016D01*
X36072177Y21500193D01*
X36072178Y21500188D01*
X36131943Y21329388D01*
X36160715Y21283598D01*
X36228217Y21176170D01*
X36356170Y21048217D01*
X36509387Y20951944D01*
X36680185Y20892179D01*
X36680191Y20892179D01*
X36680193Y20892178D01*
X36859996Y20871919D01*
X36860000Y20871919D01*
X36860004Y20871919D01*
X37039806Y20892178D01*
X37039805Y20892178D01*
X37039815Y20892179D01*
X37210613Y20951944D01*
X37363830Y21048217D01*
X37491783Y21176170D01*
X37588056Y21329387D01*
X37647821Y21500185D01*
X37661322Y21620007D01*
X37668081Y21679997D01*
X37668081Y21680004D01*
X37647822Y21859807D01*
X37647821Y21859813D01*
X37647821Y21859815D01*
X37588056Y22030613D01*
X37491783Y22183830D01*
X37461919Y22213694D01*
X37428434Y22275017D01*
X37425600Y22301375D01*
X37425600Y38868626D01*
X37445285Y38935665D01*
X37461916Y38956304D01*
X37481783Y38976170D01*
X37578056Y39129387D01*
X37637821Y39300185D01*
X37650890Y39416173D01*
X37658081Y39479997D01*
X37658081Y39480004D01*
X37637822Y39659807D01*
X37637821Y39659813D01*
X37637821Y39659815D01*
X37578056Y39830613D01*
X37481783Y39983830D01*
X37353830Y40111783D01*
X37332203Y40125372D01*
X37200612Y40208057D01*
X37029812Y40267822D01*
X37029806Y40267823D01*
X36850004Y40288081D01*
X36849996Y40288081D01*
X36670193Y40267823D01*
X36670187Y40267822D01*
X36492813Y40205756D01*
X36491874Y40208439D01*
X36435548Y40199169D01*
X36371416Y40226898D01*
X36332456Y40284897D01*
X36326700Y40322240D01*
X36326700Y50498137D01*
X36327231Y50506239D01*
X36328204Y50513629D01*
X36331676Y50540000D01*
X36324468Y50594747D01*
X36311856Y50690549D01*
X36253746Y50830838D01*
X36226198Y50866739D01*
X36184515Y50921062D01*
X36184514Y50921063D01*
X36161307Y50951307D01*
X36141655Y50966387D01*
X36134283Y50972044D01*
X36128180Y50977397D01*
X35394828Y51710749D01*
X35361343Y51772072D01*
X35362733Y51830522D01*
X35395635Y51953308D01*
X35415468Y52180000D01*
X35395635Y52406692D01*
X35339112Y52617641D01*
X35336741Y52626489D01*
X35336738Y52626498D01*
X35332773Y52635001D01*
X35240568Y52832734D01*
X35110047Y53019139D01*
X35110045Y53019142D01*
X34949143Y53180044D01*
X34924536Y53197274D01*
X34880912Y53251851D01*
X34873719Y53321350D01*
X34905241Y53383704D01*
X34965471Y53419118D01*
X34982404Y53422139D01*
X35017483Y53425909D01*
X35152331Y53476204D01*
X35267546Y53562454D01*
X35353796Y53677669D01*
X35404091Y53812517D01*
X35410500Y53872127D01*
X35410499Y55567872D01*
X35404091Y55627483D01*
X35403473Y55629139D01*
X35353797Y55762329D01*
X35353793Y55762336D01*
X35267547Y55877545D01*
X35267544Y55877548D01*
X35152335Y55963794D01*
X35152328Y55963798D01*
X35017482Y56014092D01*
X35017483Y56014092D01*
X34957883Y56020499D01*
X34957881Y56020500D01*
X34957873Y56020500D01*
X34957864Y56020500D01*
X33262129Y56020500D01*
X33262123Y56020499D01*
X33202516Y56014092D01*
X33067671Y55963798D01*
X33067664Y55963794D01*
X32952455Y55877548D01*
X32952452Y55877545D01*
X32866206Y55762336D01*
X32866202Y55762329D01*
X32815908Y55627483D01*
X32812166Y55592674D01*
X32809501Y55567877D01*
X32809500Y55567865D01*
X32809500Y53872130D01*
X32809501Y53872124D01*
X32815908Y53812517D01*
X32866202Y53677672D01*
X32866206Y53677665D01*
X32952452Y53562456D01*
X32952455Y53562453D01*
X33067664Y53476207D01*
X33067671Y53476203D01*
X33112618Y53459439D01*
X33202517Y53425909D01*
X33237596Y53422138D01*
X33302144Y53395401D01*
X33341993Y53338009D01*
X33344488Y53268184D01*
X33308836Y53208095D01*
X33295464Y53197275D01*
X33270858Y53180046D01*
X33109954Y53019142D01*
X32979432Y52832735D01*
X32979431Y52832733D01*
X32883261Y52626498D01*
X32883258Y52626489D01*
X32824366Y52406698D01*
X32824364Y52406688D01*
X32804695Y52181872D01*
X32779242Y52116804D01*
X32722651Y52075825D01*
X32652889Y52071947D01*
X32633716Y52078118D01*
X32619407Y52084045D01*
X32600549Y52091856D01*
X32600547Y52091857D01*
X32450001Y52111676D01*
X32449999Y52111676D01*
X32437005Y52109966D01*
X32416234Y52107231D01*
X32408136Y52106700D01*
X29529183Y52106700D01*
X29462144Y52126385D01*
X29416389Y52179189D01*
X29406445Y52248347D01*
X29409408Y52262793D01*
X29416534Y52289388D01*
X29446063Y52399592D01*
X29466659Y52635000D01*
X29446063Y52870408D01*
X29413855Y52990613D01*
X29398691Y53047207D01*
X29400354Y53117057D01*
X29439517Y53174919D01*
X29503746Y53202423D01*
X29518466Y53203300D01*
X30312111Y53203300D01*
X30379150Y53183615D01*
X30424905Y53130811D01*
X30429151Y53120259D01*
X30481944Y52969387D01*
X30578217Y52816170D01*
X30706170Y52688217D01*
X30859387Y52591944D01*
X31030185Y52532179D01*
X31030191Y52532179D01*
X31030193Y52532178D01*
X31209996Y52511919D01*
X31210000Y52511919D01*
X31210004Y52511919D01*
X31389806Y52532178D01*
X31389805Y52532178D01*
X31389815Y52532179D01*
X31560613Y52591944D01*
X31713830Y52688217D01*
X31841783Y52816170D01*
X31938056Y52969387D01*
X31997821Y53140185D01*
X32001735Y53174919D01*
X32018081Y53319997D01*
X32018081Y53320004D01*
X31997822Y53499807D01*
X31997821Y53499813D01*
X31997821Y53499815D01*
X31938056Y53670613D01*
X31841783Y53823830D01*
X31713830Y53951783D01*
X31653239Y53989855D01*
X31560612Y54048057D01*
X31389809Y54107823D01*
X31262198Y54122201D01*
X31197784Y54149268D01*
X31177706Y54169935D01*
X31161307Y54191307D01*
X31105019Y54234498D01*
X31040838Y54283746D01*
X31040834Y54283748D01*
X30900549Y54341856D01*
X30900547Y54341857D01*
X30855240Y54347821D01*
X30787797Y54356700D01*
X30750001Y54361676D01*
X30749999Y54361676D01*
X30737005Y54359966D01*
X30716234Y54357231D01*
X30708136Y54356700D01*
X29414174Y54356700D01*
X29347135Y54376385D01*
X29301380Y54429189D01*
X29291436Y54498347D01*
X29301792Y54533105D01*
X29315876Y54563308D01*
X29384903Y54711337D01*
X29442612Y54926714D01*
X29478977Y54986374D01*
X29541823Y55016903D01*
X29603341Y55011662D01*
X29760185Y54956779D01*
X29760191Y54956779D01*
X29760193Y54956778D01*
X29939996Y54936519D01*
X29940000Y54936519D01*
X29940004Y54936519D01*
X30119806Y54956778D01*
X30119805Y54956778D01*
X30119815Y54956779D01*
X30290613Y55016544D01*
X30443830Y55112817D01*
X30571783Y55240770D01*
X30668056Y55393987D01*
X30727821Y55564785D01*
X30742462Y55694725D01*
X30748081Y55744597D01*
X30748081Y55744604D01*
X30727822Y55924407D01*
X30727821Y55924413D01*
X30727821Y55924415D01*
X30668056Y56095213D01*
X30571783Y56248430D01*
X30443830Y56376383D01*
X30290613Y56472656D01*
X30130130Y56528812D01*
X30083405Y56558172D01*
X29436653Y57204924D01*
X29403168Y57266247D01*
X29404559Y57324699D01*
X29406881Y57333365D01*
X29446063Y57479592D01*
X29466659Y57715000D01*
X29446063Y57950408D01*
X29396970Y58133629D01*
X29384905Y58178656D01*
X29384904Y58178657D01*
X29384903Y58178663D01*
X29285035Y58392829D01*
X29281681Y58397620D01*
X29149494Y58586403D01*
X28982402Y58753494D01*
X28982396Y58753499D01*
X28796842Y58883425D01*
X28753217Y58938002D01*
X28746023Y59007500D01*
X28777546Y59069855D01*
X28796842Y59086575D01*
X28819026Y59102109D01*
X28982401Y59216505D01*
X29082481Y59316586D01*
X29143800Y59350068D01*
X29213492Y59345084D01*
X29257840Y59316583D01*
X29642188Y58932235D01*
X29675673Y58870912D01*
X29677727Y58858438D01*
X29692177Y58730191D01*
X29751943Y58559388D01*
X29797414Y58487022D01*
X29848217Y58406170D01*
X29976170Y58278217D01*
X30129387Y58181944D01*
X30300185Y58122179D01*
X30300191Y58122179D01*
X30300193Y58122178D01*
X30479996Y58101919D01*
X30480000Y58101919D01*
X30480004Y58101919D01*
X30659806Y58122178D01*
X30659805Y58122178D01*
X30659815Y58122179D01*
X30830613Y58181944D01*
X30983830Y58278217D01*
X31111783Y58406170D01*
X31208056Y58559387D01*
X31267821Y58730185D01*
X31270448Y58753499D01*
X31288081Y58909997D01*
X31288081Y58910004D01*
X31267822Y59089807D01*
X31267821Y59089813D01*
X31267821Y59089815D01*
X31208056Y59260613D01*
X31111783Y59413830D01*
X30983830Y59541783D01*
X30942369Y59567835D01*
X30830612Y59638057D01*
X30659809Y59697823D01*
X30531562Y59712273D01*
X30467148Y59739340D01*
X30457765Y59747812D01*
X29653958Y60551619D01*
X29620473Y60612942D01*
X29625457Y60682634D01*
X29667329Y60738567D01*
X29732793Y60762984D01*
X29741639Y60763300D01*
X30874980Y60763300D01*
X30942019Y60743615D01*
X30987361Y60691708D01*
X30989432Y60687266D01*
X31119954Y60500859D01*
X31280858Y60339955D01*
X31317156Y60314539D01*
X31467266Y60209432D01*
X31673504Y60113261D01*
X31893308Y60054365D01*
X32055230Y60040199D01*
X32119998Y60034532D01*
X32120000Y60034532D01*
X32120002Y60034532D01*
X32176672Y60039491D01*
X32346692Y60054365D01*
X32566496Y60113261D01*
X32772734Y60209432D01*
X32959139Y60339953D01*
X33120047Y60500861D01*
X33250568Y60687266D01*
X33346739Y60893504D01*
X33405635Y61113308D01*
X33425468Y61340000D01*
X33405635Y61566692D01*
X33346739Y61786496D01*
X33250568Y61992734D01*
X33120047Y62179139D01*
X33120045Y62179142D01*
X32959141Y62340046D01*
X32772734Y62470568D01*
X32772732Y62470569D01*
X32566497Y62566739D01*
X32566488Y62566742D01*
X32346697Y62625634D01*
X32346687Y62625636D01*
X32148500Y62642975D01*
X32083432Y62668428D01*
X32042453Y62725019D01*
X32038575Y62794781D01*
X32042267Y62807458D01*
X32043012Y62809585D01*
X32061394Y62972733D01*
X32063272Y62989397D01*
X32063272Y62989404D01*
X32043013Y63169207D01*
X32043012Y63169213D01*
X32043012Y63169215D01*
X31983247Y63340013D01*
X31886974Y63493230D01*
X31759021Y63621183D01*
X31745296Y63629807D01*
X31605803Y63717457D01*
X31435003Y63777222D01*
X31434997Y63777223D01*
X31255195Y63797481D01*
X31255187Y63797481D01*
X31075384Y63777223D01*
X31075378Y63777222D01*
X30904578Y63717457D01*
X30751360Y63621183D01*
X30623407Y63493230D01*
X30583507Y63429728D01*
X30531173Y63383437D01*
X30478513Y63371700D01*
X29585499Y63371700D01*
X29518460Y63391385D01*
X29472705Y63444189D01*
X29461499Y63495700D01*
X29461499Y63692871D01*
X29461498Y63692877D01*
X29461497Y63692884D01*
X29455091Y63752483D01*
X29445864Y63777221D01*
X29404797Y63887329D01*
X29404793Y63887336D01*
X29318547Y64002545D01*
X29318544Y64002548D01*
X29203335Y64088794D01*
X29203328Y64088798D01*
X29068482Y64139092D01*
X29068483Y64139092D01*
X29008883Y64145499D01*
X29008881Y64145500D01*
X29008873Y64145500D01*
X29008864Y64145500D01*
X27213129Y64145500D01*
X27213123Y64145499D01*
X27153516Y64139092D01*
X27018671Y64088798D01*
X27018664Y64088794D01*
X26903455Y64002548D01*
X26903452Y64002545D01*
X26817206Y63887336D01*
X26817202Y63887329D01*
X26766908Y63752484D01*
X26764112Y63726470D01*
X26737374Y63661919D01*
X26679982Y63622071D01*
X26610156Y63619578D01*
X26553142Y63652045D01*
X26410141Y63795046D01*
X26223734Y63925568D01*
X26223732Y63925569D01*
X26017497Y64021739D01*
X26017488Y64021742D01*
X25797697Y64080634D01*
X25797693Y64080635D01*
X25797692Y64080635D01*
X25797691Y64080636D01*
X25797686Y64080636D01*
X25571002Y64100468D01*
X25570998Y64100468D01*
X25344313Y64080636D01*
X25344302Y64080634D01*
X25124511Y64021742D01*
X25124502Y64021739D01*
X24918267Y63925569D01*
X24918265Y63925568D01*
X24731858Y63795046D01*
X24570954Y63634142D01*
X24440432Y63447735D01*
X24440431Y63447733D01*
X24344261Y63241498D01*
X24344259Y63241492D01*
X24324445Y63167542D01*
X24288080Y63107882D01*
X24225233Y63077353D01*
X24155857Y63085648D01*
X24101980Y63130133D01*
X24093302Y63145222D01*
X24001651Y63291082D01*
X23996783Y63298830D01*
X23868830Y63426783D01*
X23841129Y63444189D01*
X23715612Y63523057D01*
X23544812Y63582822D01*
X23544806Y63582823D01*
X23365004Y63603081D01*
X23364996Y63603081D01*
X23185193Y63582823D01*
X23185187Y63582822D01*
X23022126Y63525765D01*
X22952347Y63522204D01*
X22891720Y63556933D01*
X22876178Y63576835D01*
X22872416Y63582822D01*
X22871783Y63583830D01*
X22743830Y63711783D01*
X22720456Y63726470D01*
X22590612Y63808057D01*
X22420835Y63867464D01*
X22364058Y63908186D01*
X22356795Y63918534D01*
X22352375Y63925568D01*
X22271783Y64053830D01*
X22143830Y64181783D01*
X22022403Y64258081D01*
X21990610Y64278058D01*
X21930636Y64299044D01*
X21873860Y64339765D01*
X21848113Y64404718D01*
X21854550Y64457040D01*
X21897221Y64578985D01*
X21898030Y64586166D01*
X21917481Y64758797D01*
X21917481Y64758804D01*
X21897222Y64938607D01*
X21897221Y64938613D01*
X21897221Y64938615D01*
X21837456Y65109413D01*
X21741183Y65262630D01*
X21613230Y65390583D01*
X21537679Y65438055D01*
X21460012Y65486857D01*
X21289209Y65546623D01*
X21212064Y65555315D01*
X21147650Y65582382D01*
X21111466Y65633935D01*
X21111074Y65633745D01*
X21109925Y65636130D01*
X21108906Y65637582D01*
X21108056Y65640013D01*
X21011783Y65793230D01*
X20883830Y65921183D01*
X20771320Y65991878D01*
X20730612Y66017457D01*
X20559809Y66077223D01*
X20493075Y66084742D01*
X20428661Y66111809D01*
X20391762Y66164382D01*
X20391677Y66164340D01*
X20391426Y66164860D01*
X20389916Y66167012D01*
X20388656Y66170613D01*
X20388655Y66170614D01*
X20388656Y66170614D01*
X20292382Y66323831D01*
X20164430Y66451783D01*
X20011212Y66548057D01*
X19957869Y66566722D01*
X19901093Y66607444D01*
X19881781Y66642810D01*
X19858055Y66710615D01*
X19761782Y66863831D01*
X19633830Y66991783D01*
X19480612Y67088057D01*
X19355498Y67131836D01*
X19336100Y67138624D01*
X19279324Y67179345D01*
X19272301Y67190657D01*
X19271761Y67190317D01*
X19181585Y67333830D01*
X19171783Y67349430D01*
X19043830Y67477383D01*
X19028345Y67487113D01*
X18890612Y67573657D01*
X18719812Y67633422D01*
X18719806Y67633423D01*
X18540004Y67653681D01*
X18539998Y67653681D01*
X18539874Y67653667D01*
X18539794Y67653681D01*
X18533037Y67653681D01*
X18533037Y67654865D01*
X18471053Y67665725D01*
X18419675Y67713076D01*
X18402054Y67780688D01*
X18402354Y67786305D01*
X18405337Y67825477D01*
X18379631Y68027322D01*
X18379630Y68027324D01*
X18379630Y68027328D01*
X18313816Y68219872D01*
X18279524Y68278125D01*
X18210593Y68395222D01*
X18210592Y68395223D01*
X18210590Y68395227D01*
X18122821Y68492374D01*
X18092486Y68555313D01*
X18100994Y68624662D01*
X18145645Y68678403D01*
X18212262Y68699473D01*
X18214832Y68699500D01*
X40913671Y68699500D01*
X40980710Y68679815D01*
G37*
%TD.AperFunction*%
%TA.AperFunction,Conductor*%
G36*
X40459403Y25494574D02*
G01*
X40465881Y25488542D01*
X43286981Y22667442D01*
X43320466Y22606119D01*
X43323300Y22579761D01*
X43323300Y8084500D01*
X43303615Y8017461D01*
X43250811Y7971706D01*
X43199301Y7960500D01*
X43002130Y7960500D01*
X43002123Y7960499D01*
X42942516Y7954092D01*
X42807671Y7903798D01*
X42807664Y7903794D01*
X42692455Y7817548D01*
X42692452Y7817545D01*
X42606206Y7702336D01*
X42606203Y7702331D01*
X42557189Y7570917D01*
X42515317Y7514984D01*
X42449853Y7490567D01*
X42381580Y7505419D01*
X42353326Y7526570D01*
X42231402Y7648494D01*
X42231395Y7648499D01*
X42037834Y7784033D01*
X42037830Y7784035D01*
X41993042Y7804920D01*
X41823663Y7883903D01*
X41823659Y7883904D01*
X41823655Y7883906D01*
X41595413Y7945062D01*
X41595403Y7945064D01*
X41360001Y7965659D01*
X41359999Y7965659D01*
X41124596Y7945064D01*
X41124586Y7945062D01*
X40896344Y7883906D01*
X40896335Y7883902D01*
X40682171Y7784036D01*
X40682169Y7784035D01*
X40488597Y7648495D01*
X40321505Y7481403D01*
X40191575Y7295842D01*
X40136998Y7252217D01*
X40067500Y7245023D01*
X40005145Y7276546D01*
X39988425Y7295842D01*
X39858494Y7481403D01*
X39691402Y7648494D01*
X39691395Y7648499D01*
X39497834Y7784033D01*
X39497830Y7784035D01*
X39453042Y7804920D01*
X39283663Y7883903D01*
X39283659Y7883904D01*
X39283655Y7883906D01*
X39055413Y7945062D01*
X39055403Y7945064D01*
X38820001Y7965659D01*
X38819998Y7965659D01*
X38755268Y7959996D01*
X38686768Y7973763D01*
X38636585Y8022378D01*
X38620652Y8090407D01*
X38644028Y8156250D01*
X38656774Y8171199D01*
X40055691Y9570116D01*
X40061781Y9575457D01*
X40088807Y9596193D01*
X40136271Y9658049D01*
X40181247Y9716662D01*
X40239356Y9856952D01*
X40259176Y10007500D01*
X40254731Y10041264D01*
X40254200Y10049365D01*
X40254200Y25400861D01*
X40273885Y25467900D01*
X40326689Y25513655D01*
X40395847Y25523599D01*
X40459403Y25494574D01*
G37*
%TD.AperFunction*%
%TA.AperFunction,Conductor*%
G36*
X26881273Y16472500D02*
G01*
X26925796Y16421121D01*
X26931527Y16408831D01*
X26936965Y16397171D01*
X26936967Y16397166D01*
X27072501Y16203605D01*
X27072506Y16203598D01*
X27239597Y16036507D01*
X27239603Y16036502D01*
X27425158Y15906575D01*
X27468783Y15851998D01*
X27475977Y15782500D01*
X27444454Y15720145D01*
X27425158Y15703425D01*
X27239597Y15573495D01*
X27072505Y15406403D01*
X26936965Y15212831D01*
X26925520Y15188287D01*
X26879346Y15135849D01*
X26812151Y15116699D01*
X26745271Y15136917D01*
X26704959Y15183444D01*
X26703839Y15182797D01*
X26701131Y15187488D01*
X26650026Y15260474D01*
X26650025Y15260474D01*
X26108419Y14718868D01*
X26047096Y14685383D01*
X25977404Y14690367D01*
X25921471Y14732239D01*
X25910256Y14750249D01*
X25898641Y14773045D01*
X25898637Y14773049D01*
X25898636Y14773051D01*
X25809050Y14862637D01*
X25809044Y14862642D01*
X25799109Y14867704D01*
X25786250Y14874256D01*
X25735456Y14922227D01*
X25718660Y14990048D01*
X25741197Y15056183D01*
X25754865Y15072420D01*
X26296472Y15614027D01*
X26223483Y15665134D01*
X26223481Y15665135D01*
X26165133Y15692343D01*
X26112694Y15738516D01*
X26093542Y15805709D01*
X26113758Y15872590D01*
X26165129Y15917105D01*
X26223734Y15944432D01*
X26410139Y16074953D01*
X26571047Y16235861D01*
X26701568Y16422266D01*
X26701572Y16422275D01*
X26704276Y16426957D01*
X26705534Y16426231D01*
X26747198Y16473554D01*
X26814390Y16492711D01*
X26881273Y16472500D01*
G37*
%TD.AperFunction*%
%TA.AperFunction,Conductor*%
G36*
X16651228Y68679815D02*
G01*
X16696983Y68627011D01*
X16706927Y68557853D01*
X16677902Y68494297D01*
X16669623Y68485627D01*
X16626947Y68445060D01*
X16591899Y68394706D01*
X16589062Y68390944D01*
X16550302Y68343408D01*
X16550299Y68343403D01*
X16534392Y68312953D01*
X16530324Y68306239D01*
X16510702Y68278046D01*
X16486509Y68221670D01*
X16484488Y68217416D01*
X16456091Y68163049D01*
X16456090Y68163048D01*
X16446640Y68130025D01*
X16444007Y68122629D01*
X16430459Y68091057D01*
X16418113Y68030981D01*
X16416990Y68026405D01*
X16400113Y67967423D01*
X16400113Y67967421D01*
X16397503Y67933159D01*
X16396414Y67925392D01*
X16393465Y67911037D01*
X16389500Y67891742D01*
X16389500Y67830403D01*
X16389321Y67825694D01*
X16384662Y67764526D01*
X16386707Y67748473D01*
X16389003Y67730440D01*
X16389500Y67722612D01*
X16389500Y61542001D01*
X16369815Y61474962D01*
X16317011Y61429207D01*
X16279385Y61418781D01*
X16255792Y61416123D01*
X16255787Y61416122D01*
X16084987Y61356357D01*
X15931769Y61260083D01*
X15803817Y61132131D01*
X15707541Y60978911D01*
X15668041Y60866025D01*
X15627319Y60809249D01*
X15562366Y60783502D01*
X15537118Y60783760D01*
X15410005Y60798081D01*
X15409996Y60798081D01*
X15230193Y60777823D01*
X15230187Y60777822D01*
X15059387Y60718057D01*
X14906169Y60621783D01*
X14778217Y60493831D01*
X14681943Y60340613D01*
X14622178Y60169813D01*
X14622177Y60169807D01*
X14601919Y59990004D01*
X14601919Y59989997D01*
X14622177Y59810194D01*
X14622178Y59810188D01*
X14681943Y59639388D01*
X14778217Y59486170D01*
X14906170Y59358217D01*
X14945271Y59333648D01*
X14991562Y59281313D01*
X15003299Y59228654D01*
X15003299Y55553701D01*
X14983614Y55486662D01*
X14930810Y55440907D01*
X14893185Y55430481D01*
X14869591Y55427823D01*
X14869587Y55427822D01*
X14698787Y55368057D01*
X14545571Y55271784D01*
X14478381Y55204594D01*
X14417057Y55171110D01*
X14347366Y55176095D01*
X14291432Y55217966D01*
X14267016Y55283431D01*
X14266700Y55292276D01*
X14266700Y56439725D01*
X14286385Y56506764D01*
X14303021Y56527408D01*
X14321782Y56546169D01*
X14345823Y56584430D01*
X14418056Y56699387D01*
X14477821Y56870185D01*
X14493744Y57011508D01*
X14498081Y57049997D01*
X14498081Y57050004D01*
X14477822Y57229807D01*
X14477821Y57229813D01*
X14477821Y57229815D01*
X14418056Y57400613D01*
X14321783Y57553830D01*
X14193830Y57681783D01*
X14187848Y57685542D01*
X14040612Y57778057D01*
X13869812Y57837822D01*
X13869806Y57837823D01*
X13690004Y57858081D01*
X13689996Y57858081D01*
X13510193Y57837823D01*
X13510187Y57837822D01*
X13339387Y57778057D01*
X13186169Y57681783D01*
X13058217Y57553831D01*
X12961943Y57400613D01*
X12902178Y57229813D01*
X12902177Y57229807D01*
X12881919Y57050004D01*
X12881919Y57049997D01*
X12902177Y56870194D01*
X12902178Y56870188D01*
X12961943Y56699388D01*
X13058217Y56546170D01*
X13076981Y56527406D01*
X13110466Y56466083D01*
X13113300Y56439725D01*
X13113300Y54500275D01*
X13093615Y54433236D01*
X13076981Y54412594D01*
X13058217Y54393831D01*
X12961943Y54240613D01*
X12902178Y54069813D01*
X12902177Y54069807D01*
X12881919Y53890004D01*
X12881919Y53889997D01*
X12902177Y53710194D01*
X12902178Y53710188D01*
X12961943Y53539388D01*
X13032346Y53427343D01*
X13058217Y53386170D01*
X13186170Y53258217D01*
X13339387Y53161944D01*
X13510185Y53102179D01*
X13510189Y53102179D01*
X13510192Y53102178D01*
X13566076Y53095882D01*
X13654680Y53085899D01*
X13719093Y53058833D01*
X13758648Y53001239D01*
X13760787Y52931402D01*
X13757838Y52921726D01*
X13722179Y52819816D01*
X13722177Y52819807D01*
X13701919Y52640004D01*
X13701919Y52639997D01*
X13722177Y52460194D01*
X13722178Y52460188D01*
X13781943Y52289388D01*
X13878217Y52136170D01*
X13888081Y52126306D01*
X13921566Y52064983D01*
X13924400Y52038625D01*
X13924400Y51003701D01*
X13904715Y50936662D01*
X13851911Y50890907D01*
X13814285Y50880481D01*
X13790692Y50877823D01*
X13790687Y50877822D01*
X13619887Y50818057D01*
X13466669Y50721783D01*
X13338717Y50593831D01*
X13242443Y50440613D01*
X13182678Y50269813D01*
X13182677Y50269807D01*
X13162419Y50090004D01*
X13162419Y50089997D01*
X13182677Y49910194D01*
X13182678Y49910188D01*
X13242443Y49739388D01*
X13338717Y49586170D01*
X13357481Y49567406D01*
X13390966Y49506083D01*
X13393800Y49479725D01*
X13393800Y27290276D01*
X13374115Y27223237D01*
X13357481Y27202595D01*
X13338719Y27183834D01*
X13242443Y27030613D01*
X13182678Y26859813D01*
X13182677Y26859807D01*
X13162419Y26680004D01*
X13162419Y26679997D01*
X13182677Y26500194D01*
X13182678Y26500188D01*
X13242443Y26329388D01*
X13338716Y26176171D01*
X13338717Y26176170D01*
X13466670Y26048217D01*
X13599107Y25965001D01*
X13619889Y25951943D01*
X13790677Y25892181D01*
X13790682Y25892180D01*
X13790685Y25892179D01*
X13814282Y25889521D01*
X13878696Y25862455D01*
X13918252Y25804861D01*
X13924400Y25766300D01*
X13924400Y23063757D01*
X13904715Y22996718D01*
X13851911Y22950963D01*
X13814284Y22940537D01*
X13790190Y22937823D01*
X13619387Y22878057D01*
X13466169Y22781783D01*
X13338217Y22653831D01*
X13241943Y22500613D01*
X13182178Y22329813D01*
X13182177Y22329807D01*
X13161919Y22150004D01*
X13161919Y22149997D01*
X13182177Y21970194D01*
X13182178Y21970188D01*
X13241943Y21799388D01*
X13338217Y21646170D01*
X13356980Y21627407D01*
X13390465Y21566084D01*
X13393299Y21539726D01*
X13393299Y20535887D01*
X13373614Y20468848D01*
X13320810Y20423093D01*
X13283184Y20412667D01*
X13240190Y20407823D01*
X13069387Y20348057D01*
X12916169Y20251783D01*
X12788217Y20123831D01*
X12691943Y19970613D01*
X12632178Y19799813D01*
X12632177Y19799807D01*
X12611919Y19620004D01*
X12611919Y19619997D01*
X12632177Y19440194D01*
X12632178Y19440188D01*
X12691943Y19269388D01*
X12788217Y19116170D01*
X12806981Y19097406D01*
X12840466Y19036083D01*
X12843300Y19009725D01*
X12843300Y17761675D01*
X12823615Y17694636D01*
X12770811Y17648881D01*
X12701653Y17638937D01*
X12638097Y17667962D01*
X12631619Y17673994D01*
X12603830Y17701783D01*
X12450612Y17798057D01*
X12279812Y17857822D01*
X12279806Y17857823D01*
X12100004Y17878081D01*
X12099996Y17878081D01*
X11920193Y17857823D01*
X11920187Y17857822D01*
X11749387Y17798057D01*
X11615197Y17713739D01*
X11547960Y17694739D01*
X11481125Y17715107D01*
X11447652Y17747608D01*
X11331047Y17914139D01*
X11331045Y17914142D01*
X11170141Y18075046D01*
X10983734Y18205568D01*
X10983728Y18205571D01*
X10956038Y18218483D01*
X10925724Y18232619D01*
X10873285Y18278790D01*
X10854133Y18345983D01*
X10874348Y18412865D01*
X10925725Y18457382D01*
X10983734Y18484432D01*
X11170139Y18614953D01*
X11331047Y18775861D01*
X11461568Y18962266D01*
X11557739Y19168504D01*
X11616635Y19388308D01*
X11636468Y19615000D01*
X11616635Y19841692D01*
X11557739Y20061496D01*
X11461568Y20267734D01*
X11345295Y20433790D01*
X11331045Y20454142D01*
X11170141Y20615046D01*
X11061030Y20691445D01*
X10983734Y20745568D01*
X10925722Y20772620D01*
X10873284Y20818792D01*
X10854133Y20885986D01*
X10874349Y20952867D01*
X10925721Y20997381D01*
X10983734Y21024432D01*
X11170139Y21154953D01*
X11331047Y21315861D01*
X11461568Y21502266D01*
X11557739Y21708504D01*
X11616635Y21928308D01*
X11636468Y22155000D01*
X11633323Y22190942D01*
X11627843Y22253580D01*
X11616635Y22381692D01*
X11557739Y22601496D01*
X11461568Y22807734D01*
X11331047Y22994139D01*
X11331045Y22994142D01*
X11170141Y23155046D01*
X10986329Y23283751D01*
X10983734Y23285568D01*
X10925722Y23312620D01*
X10873284Y23358792D01*
X10854133Y23425986D01*
X10874349Y23492867D01*
X10925721Y23537381D01*
X10983734Y23564432D01*
X11170139Y23694953D01*
X11331047Y23855861D01*
X11461568Y24042266D01*
X11557739Y24248504D01*
X11616635Y24468308D01*
X11636468Y24695000D01*
X11616635Y24921692D01*
X11566749Y25107871D01*
X11557741Y25141489D01*
X11557738Y25141498D01*
X11545621Y25167483D01*
X11461568Y25347734D01*
X11331047Y25534139D01*
X11331045Y25534142D01*
X11170141Y25695046D01*
X11049141Y25779770D01*
X10983734Y25825568D01*
X10925722Y25852620D01*
X10873284Y25898792D01*
X10854133Y25965986D01*
X10874349Y26032867D01*
X10925721Y26077381D01*
X10983734Y26104432D01*
X11170139Y26234953D01*
X11331047Y26395861D01*
X11461568Y26582266D01*
X11557739Y26788504D01*
X11616635Y27008308D01*
X11636468Y27235000D01*
X11616635Y27461692D01*
X11557739Y27681496D01*
X11461568Y27887734D01*
X11331047Y28074139D01*
X11331045Y28074142D01*
X11170141Y28235046D01*
X11048881Y28319952D01*
X10983734Y28365568D01*
X10925722Y28392620D01*
X10873284Y28438792D01*
X10854133Y28505986D01*
X10874349Y28572867D01*
X10925721Y28617381D01*
X10983734Y28644432D01*
X11170139Y28774953D01*
X11331047Y28935861D01*
X11461568Y29122266D01*
X11557739Y29328504D01*
X11616635Y29548308D01*
X11636468Y29775000D01*
X11616635Y30001692D01*
X11557739Y30221496D01*
X11461568Y30427734D01*
X11331047Y30614139D01*
X11331045Y30614142D01*
X11170141Y30775046D01*
X10983734Y30905568D01*
X10983728Y30905571D01*
X10945384Y30923451D01*
X10925724Y30932619D01*
X10873285Y30978790D01*
X10854133Y31045983D01*
X10874348Y31112865D01*
X10925725Y31157382D01*
X10983734Y31184432D01*
X11170139Y31314953D01*
X11331047Y31475861D01*
X11461568Y31662266D01*
X11557739Y31868504D01*
X11616635Y32088308D01*
X11636468Y32315000D01*
X11633362Y32350496D01*
X11620299Y32499813D01*
X11616635Y32541692D01*
X11557739Y32761496D01*
X11461568Y32967734D01*
X11331047Y33154139D01*
X11331045Y33154142D01*
X11170141Y33315046D01*
X10983734Y33445568D01*
X10983728Y33445571D01*
X10956038Y33458483D01*
X10925724Y33472619D01*
X10873285Y33518790D01*
X10854133Y33585983D01*
X10874348Y33652865D01*
X10925725Y33697382D01*
X10983734Y33724432D01*
X11170139Y33854953D01*
X11331047Y34015861D01*
X11461568Y34202266D01*
X11557739Y34408504D01*
X11616635Y34628308D01*
X11636468Y34855000D01*
X11616635Y35081692D01*
X11557739Y35301496D01*
X11461568Y35507734D01*
X11331047Y35694139D01*
X11331045Y35694142D01*
X11170141Y35855046D01*
X10983734Y35985568D01*
X10983728Y35985571D01*
X10956038Y35998483D01*
X10925724Y36012619D01*
X10873285Y36058790D01*
X10854133Y36125983D01*
X10874348Y36192865D01*
X10925725Y36237382D01*
X10983734Y36264432D01*
X11170139Y36394953D01*
X11331047Y36555861D01*
X11461568Y36742266D01*
X11557739Y36948504D01*
X11616635Y37168308D01*
X11636468Y37395000D01*
X11616635Y37621692D01*
X11557739Y37841496D01*
X11461568Y38047734D01*
X11331047Y38234139D01*
X11331045Y38234142D01*
X11170141Y38395046D01*
X10983734Y38525568D01*
X10983728Y38525571D01*
X10940359Y38545794D01*
X10925724Y38552619D01*
X10873285Y38598790D01*
X10854133Y38665983D01*
X10874348Y38732865D01*
X10925725Y38777382D01*
X10983734Y38804432D01*
X11170139Y38934953D01*
X11331047Y39095861D01*
X11461568Y39282266D01*
X11557739Y39488504D01*
X11616635Y39708308D01*
X11636468Y39935000D01*
X11616635Y40161692D01*
X11557739Y40381496D01*
X11461568Y40587734D01*
X11331047Y40774139D01*
X11331045Y40774142D01*
X11170141Y40935046D01*
X10983734Y41065568D01*
X10983728Y41065571D01*
X10940359Y41085794D01*
X10925724Y41092619D01*
X10873285Y41138790D01*
X10854133Y41205983D01*
X10874348Y41272865D01*
X10925725Y41317382D01*
X10931985Y41320301D01*
X10983734Y41344432D01*
X11170139Y41474953D01*
X11331047Y41635861D01*
X11461568Y41822266D01*
X11557739Y42028504D01*
X11616635Y42248308D01*
X11636468Y42475000D01*
X11616635Y42701692D01*
X11565532Y42892412D01*
X11557741Y42921489D01*
X11557738Y42921498D01*
X11520415Y43001536D01*
X11461568Y43127734D01*
X11331047Y43314139D01*
X11331045Y43314142D01*
X11170141Y43475046D01*
X10983734Y43605568D01*
X10983728Y43605571D01*
X10940359Y43625794D01*
X10925724Y43632619D01*
X10873285Y43678790D01*
X10854133Y43745983D01*
X10874348Y43812865D01*
X10925725Y43857382D01*
X10983734Y43884432D01*
X11170139Y44014953D01*
X11331047Y44175861D01*
X11461568Y44362266D01*
X11557739Y44568504D01*
X11616635Y44788308D01*
X11636468Y45015000D01*
X11616635Y45241692D01*
X11557739Y45461496D01*
X11461568Y45667734D01*
X11363839Y45807307D01*
X11331045Y45854142D01*
X11170141Y46015046D01*
X10983734Y46145568D01*
X10983728Y46145571D01*
X10940359Y46165794D01*
X10925724Y46172619D01*
X10873285Y46218790D01*
X10854133Y46285983D01*
X10874348Y46352865D01*
X10925725Y46397382D01*
X10983734Y46424432D01*
X11170139Y46554953D01*
X11331047Y46715861D01*
X11461568Y46902266D01*
X11557739Y47108504D01*
X11616635Y47328308D01*
X11636468Y47555000D01*
X11616635Y47781692D01*
X11557739Y48001496D01*
X11461568Y48207734D01*
X11331047Y48394139D01*
X11331045Y48394142D01*
X11170141Y48555046D01*
X10983734Y48685568D01*
X10983728Y48685571D01*
X10956038Y48698483D01*
X10925724Y48712619D01*
X10873285Y48758790D01*
X10854133Y48825983D01*
X10874348Y48892865D01*
X10925725Y48937382D01*
X10983734Y48964432D01*
X11170139Y49094953D01*
X11331047Y49255861D01*
X11461568Y49442266D01*
X11557739Y49648504D01*
X11616635Y49868308D01*
X11636468Y50095000D01*
X11616635Y50321692D01*
X11557739Y50541496D01*
X11461568Y50747734D01*
X11345295Y50913790D01*
X11331045Y50934142D01*
X11170141Y51095046D01*
X10983734Y51225568D01*
X10983728Y51225571D01*
X10956038Y51238483D01*
X10925724Y51252619D01*
X10873285Y51298790D01*
X10854133Y51365983D01*
X10874348Y51432865D01*
X10925725Y51477382D01*
X10983734Y51504432D01*
X11170139Y51634953D01*
X11331047Y51795861D01*
X11461568Y51982266D01*
X11557739Y52188504D01*
X11616635Y52408308D01*
X11636468Y52635000D01*
X11616635Y52861692D01*
X11557739Y53081496D01*
X11461568Y53287734D01*
X11331047Y53474139D01*
X11331045Y53474142D01*
X11170141Y53635046D01*
X10983734Y53765568D01*
X10983728Y53765571D01*
X10956038Y53778483D01*
X10925724Y53792619D01*
X10873285Y53838790D01*
X10854133Y53905983D01*
X10874348Y53972865D01*
X10925725Y54017382D01*
X10983734Y54044432D01*
X11170139Y54174953D01*
X11331047Y54335861D01*
X11461568Y54522266D01*
X11557739Y54728504D01*
X11616635Y54948308D01*
X11636468Y55175000D01*
X11616635Y55401692D01*
X11557739Y55621496D01*
X11461568Y55827734D01*
X11349474Y55987822D01*
X11331045Y56014142D01*
X11170141Y56175046D01*
X10983734Y56305568D01*
X10983728Y56305571D01*
X10925725Y56332618D01*
X10873285Y56378790D01*
X10854133Y56445983D01*
X10874348Y56512865D01*
X10925725Y56557382D01*
X10983734Y56584432D01*
X11170139Y56714953D01*
X11331047Y56875861D01*
X11461568Y57062266D01*
X11557739Y57268504D01*
X11616635Y57488308D01*
X11636468Y57715000D01*
X11616635Y57941692D01*
X11557739Y58161496D01*
X11461568Y58367734D01*
X11349310Y58528057D01*
X11331045Y58554142D01*
X11170141Y58715046D01*
X10983735Y58845567D01*
X10983736Y58845567D01*
X10983734Y58845568D01*
X10925722Y58872620D01*
X10873284Y58918792D01*
X10854133Y58985986D01*
X10874349Y59052867D01*
X10925721Y59097381D01*
X10983734Y59124432D01*
X11170139Y59254953D01*
X11331047Y59415861D01*
X11461568Y59602266D01*
X11557739Y59808504D01*
X11616635Y60028308D01*
X11636468Y60255000D01*
X11635945Y60260974D01*
X11624768Y60388735D01*
X11616635Y60481692D01*
X11561484Y60687519D01*
X11557741Y60701489D01*
X11557738Y60701498D01*
X11549734Y60718663D01*
X11461568Y60907734D01*
X11355695Y61058938D01*
X11331045Y61094142D01*
X11170143Y61255044D01*
X11145536Y61272274D01*
X11101912Y61326851D01*
X11094719Y61396350D01*
X11126241Y61458704D01*
X11186471Y61494118D01*
X11203404Y61497139D01*
X11238483Y61500909D01*
X11373331Y61551204D01*
X11488546Y61637454D01*
X11574796Y61752669D01*
X11625091Y61887517D01*
X11631500Y61947127D01*
X11631499Y63642872D01*
X11625091Y63702483D01*
X11621622Y63711783D01*
X11574797Y63837329D01*
X11574793Y63837336D01*
X11488547Y63952545D01*
X11488544Y63952548D01*
X11373335Y64038794D01*
X11373328Y64038798D01*
X11238482Y64089092D01*
X11238483Y64089092D01*
X11178883Y64095499D01*
X11178881Y64095500D01*
X11178873Y64095500D01*
X11178864Y64095500D01*
X9483129Y64095500D01*
X9483123Y64095499D01*
X9423516Y64089092D01*
X9288671Y64038798D01*
X9288669Y64038796D01*
X9184616Y63960902D01*
X9119152Y63936485D01*
X9050879Y63951336D01*
X9011039Y63985857D01*
X8998546Y64002546D01*
X8975709Y64019642D01*
X8883335Y64088794D01*
X8883328Y64088798D01*
X8748482Y64139092D01*
X8748483Y64139092D01*
X8688883Y64145499D01*
X8688881Y64145500D01*
X8688873Y64145500D01*
X8688864Y64145500D01*
X6893129Y64145500D01*
X6893123Y64145499D01*
X6833516Y64139092D01*
X6698671Y64088798D01*
X6698664Y64088794D01*
X6583455Y64002548D01*
X6583452Y64002545D01*
X6497206Y63887336D01*
X6497202Y63887329D01*
X6446908Y63752483D01*
X6444112Y63726470D01*
X6440500Y63692873D01*
X6440500Y62891088D01*
X6440501Y62140700D01*
X6420816Y62073661D01*
X6368013Y62027906D01*
X6316501Y62016700D01*
X4334255Y62016700D01*
X4267216Y62036385D01*
X4221461Y62089189D01*
X4210727Y62151507D01*
X4225468Y62319998D01*
X4225468Y62320002D01*
X4215007Y62439572D01*
X4205635Y62546692D01*
X4146739Y62766496D01*
X4050568Y62972734D01*
X3920047Y63159139D01*
X3920045Y63159142D01*
X3759143Y63320044D01*
X3734536Y63337274D01*
X3690912Y63391851D01*
X3683719Y63461350D01*
X3715241Y63523704D01*
X3775471Y63559118D01*
X3792404Y63562139D01*
X3827483Y63565909D01*
X3962331Y63616204D01*
X4077546Y63702454D01*
X4163796Y63817669D01*
X4214091Y63952517D01*
X4220500Y64012127D01*
X4220499Y65707872D01*
X4214091Y65767483D01*
X4210302Y65777641D01*
X4163797Y65902329D01*
X4163793Y65902336D01*
X4077547Y66017545D01*
X4077544Y66017548D01*
X3962335Y66103794D01*
X3962328Y66103798D01*
X3827482Y66154092D01*
X3827483Y66154092D01*
X3767883Y66160499D01*
X3767881Y66160500D01*
X3767873Y66160500D01*
X3767864Y66160500D01*
X2072129Y66160500D01*
X2072123Y66160499D01*
X2012516Y66154092D01*
X1877671Y66103798D01*
X1877664Y66103794D01*
X1762455Y66017548D01*
X1762452Y66017545D01*
X1676206Y65902336D01*
X1676202Y65902329D01*
X1625908Y65767483D01*
X1623356Y65743741D01*
X1619501Y65707877D01*
X1619500Y65707865D01*
X1619500Y64012130D01*
X1619501Y64012124D01*
X1625908Y63952517D01*
X1676202Y63817672D01*
X1676206Y63817665D01*
X1762452Y63702456D01*
X1762455Y63702453D01*
X1877664Y63616207D01*
X1877671Y63616203D01*
X1922618Y63599439D01*
X2012517Y63565909D01*
X2047596Y63562138D01*
X2112144Y63535401D01*
X2151993Y63478009D01*
X2154488Y63408184D01*
X2118836Y63348095D01*
X2105464Y63337275D01*
X2080858Y63320046D01*
X1919954Y63159142D01*
X1789432Y62972735D01*
X1789431Y62972733D01*
X1693261Y62766498D01*
X1693258Y62766489D01*
X1634366Y62546698D01*
X1634364Y62546687D01*
X1614532Y62320002D01*
X1614532Y62319999D01*
X1634364Y62093314D01*
X1634366Y62093303D01*
X1693258Y61873512D01*
X1693261Y61873503D01*
X1789431Y61667268D01*
X1789432Y61667266D01*
X1919954Y61480859D01*
X2080858Y61319955D01*
X2266998Y61189620D01*
X2267266Y61189432D01*
X2325278Y61162381D01*
X2377713Y61116212D01*
X2396866Y61049018D01*
X2376651Y60982137D01*
X2325277Y60937620D01*
X2267268Y60910570D01*
X2267265Y60910568D01*
X2080858Y60780046D01*
X1919954Y60619142D01*
X1789432Y60432735D01*
X1789431Y60432733D01*
X1693261Y60226498D01*
X1693258Y60226489D01*
X1634366Y60006698D01*
X1634364Y60006687D01*
X1614532Y59780002D01*
X1614532Y59779999D01*
X1634364Y59553314D01*
X1634366Y59553303D01*
X1693258Y59333512D01*
X1693261Y59333503D01*
X1789431Y59127268D01*
X1789432Y59127266D01*
X1919954Y58940859D01*
X2080858Y58779955D01*
X2211481Y58688493D01*
X2267266Y58649432D01*
X2325278Y58622381D01*
X2377713Y58576212D01*
X2396866Y58509018D01*
X2376651Y58442137D01*
X2325277Y58397620D01*
X2267268Y58370570D01*
X2267265Y58370568D01*
X2080858Y58240046D01*
X1919954Y58079142D01*
X1789432Y57892735D01*
X1789431Y57892733D01*
X1693261Y57686498D01*
X1693258Y57686489D01*
X1634366Y57466698D01*
X1634364Y57466687D01*
X1614532Y57240002D01*
X1614532Y57239999D01*
X1634364Y57013314D01*
X1634366Y57013303D01*
X1693258Y56793512D01*
X1693261Y56793503D01*
X1789431Y56587268D01*
X1789432Y56587266D01*
X1919954Y56400859D01*
X2080858Y56239955D01*
X2080861Y56239953D01*
X2267266Y56109432D01*
X2321610Y56084091D01*
X2325275Y56082382D01*
X2377714Y56036209D01*
X2396866Y55969016D01*
X2376650Y55902135D01*
X2325275Y55857618D01*
X2267267Y55830569D01*
X2267265Y55830568D01*
X2080858Y55700046D01*
X1919954Y55539142D01*
X1789432Y55352735D01*
X1789431Y55352733D01*
X1693261Y55146498D01*
X1693258Y55146489D01*
X1634366Y54926698D01*
X1634364Y54926687D01*
X1614532Y54700002D01*
X1614532Y54699999D01*
X1634364Y54473314D01*
X1634366Y54473303D01*
X1693258Y54253512D01*
X1693261Y54253503D01*
X1789431Y54047268D01*
X1789432Y54047266D01*
X1919954Y53860859D01*
X2080858Y53699955D01*
X2080861Y53699953D01*
X2267266Y53569432D01*
X2473504Y53473261D01*
X2693308Y53414365D01*
X2855230Y53400199D01*
X2919998Y53394532D01*
X2920000Y53394532D01*
X2920002Y53394532D01*
X2976672Y53399491D01*
X3146692Y53414365D01*
X3366496Y53473261D01*
X3572734Y53569432D01*
X3759139Y53699953D01*
X3920047Y53860861D01*
X4050568Y54047266D01*
X4146739Y54253504D01*
X4205635Y54473308D01*
X4225468Y54700000D01*
X4224475Y54711345D01*
X4205635Y54926687D01*
X4205635Y54926692D01*
X4146739Y55146496D01*
X4050568Y55352734D01*
X3920047Y55539139D01*
X3920045Y55539142D01*
X3759141Y55700046D01*
X3572734Y55830568D01*
X3572728Y55830571D01*
X3525004Y55852825D01*
X3514724Y55857619D01*
X3462285Y55903790D01*
X3443133Y55970983D01*
X3463348Y56037865D01*
X3514725Y56082382D01*
X3518390Y56084091D01*
X3572734Y56109432D01*
X3759139Y56239953D01*
X3920047Y56400861D01*
X4050568Y56587266D01*
X4146739Y56793504D01*
X4152913Y56816548D01*
X4189276Y56876206D01*
X4252122Y56906737D01*
X4321498Y56898443D01*
X4375377Y56853959D01*
X4396653Y56787408D01*
X4396688Y56784454D01*
X4396688Y55494475D01*
X4396157Y55486376D01*
X4392157Y55455988D01*
X4391713Y55452611D01*
X4391713Y55452610D01*
X4391712Y55452610D01*
X4411532Y55302064D01*
X4411533Y55302062D01*
X4469642Y55161774D01*
X4531746Y55080838D01*
X4562078Y55041308D01*
X4562080Y55041307D01*
X4562082Y55041304D01*
X4581079Y55026728D01*
X4589100Y55020572D01*
X4595195Y55015228D01*
X5540608Y54069815D01*
X6465346Y53145077D01*
X6498831Y53083754D01*
X6497440Y53025303D01*
X6455938Y52870414D01*
X6455936Y52870404D01*
X6435341Y52635001D01*
X6435341Y52635000D01*
X6455936Y52399597D01*
X6455938Y52399587D01*
X6517094Y52171345D01*
X6517096Y52171341D01*
X6517097Y52171337D01*
X6586124Y52023308D01*
X6616965Y51957170D01*
X6616967Y51957166D01*
X6710501Y51823587D01*
X6740496Y51780749D01*
X6752501Y51763605D01*
X6752506Y51763598D01*
X6919597Y51596507D01*
X6919603Y51596502D01*
X7105158Y51466575D01*
X7148783Y51411998D01*
X7155977Y51342500D01*
X7124454Y51280145D01*
X7105158Y51263425D01*
X6919597Y51133495D01*
X6752505Y50966403D01*
X6616965Y50772831D01*
X6616964Y50772829D01*
X6517098Y50558665D01*
X6517094Y50558656D01*
X6455938Y50330414D01*
X6455936Y50330404D01*
X6435341Y50095001D01*
X6435341Y50095000D01*
X6455936Y49859597D01*
X6455938Y49859587D01*
X6517094Y49631345D01*
X6517096Y49631341D01*
X6517097Y49631337D01*
X6586124Y49483308D01*
X6616965Y49417170D01*
X6616967Y49417166D01*
X6680685Y49326168D01*
X6749547Y49227823D01*
X6752501Y49223605D01*
X6752506Y49223598D01*
X6919597Y49056507D01*
X6919603Y49056502D01*
X7105158Y48926575D01*
X7148783Y48871998D01*
X7155977Y48802500D01*
X7124454Y48740145D01*
X7105158Y48723425D01*
X6919597Y48593495D01*
X6752505Y48426403D01*
X6616965Y48232831D01*
X6616964Y48232829D01*
X6517098Y48018665D01*
X6517094Y48018656D01*
X6455938Y47790414D01*
X6455936Y47790404D01*
X6435341Y47555001D01*
X6435341Y47555000D01*
X6455936Y47319597D01*
X6455938Y47319587D01*
X6517094Y47091345D01*
X6517096Y47091341D01*
X6517097Y47091337D01*
X6586124Y46943308D01*
X6616965Y46877170D01*
X6616967Y46877166D01*
X6696236Y46763959D01*
X6739055Y46702807D01*
X6752501Y46683605D01*
X6752506Y46683598D01*
X6919597Y46516507D01*
X6919603Y46516502D01*
X7105158Y46386575D01*
X7148783Y46331998D01*
X7155977Y46262500D01*
X7124454Y46200145D01*
X7105158Y46183425D01*
X6919597Y46053495D01*
X6752505Y45886403D01*
X6616965Y45692831D01*
X6616964Y45692829D01*
X6517098Y45478665D01*
X6517094Y45478656D01*
X6455938Y45250414D01*
X6455936Y45250404D01*
X6435341Y45015001D01*
X6435341Y45015000D01*
X6455936Y44779597D01*
X6455938Y44779587D01*
X6517094Y44551345D01*
X6517096Y44551341D01*
X6517097Y44551337D01*
X6586124Y44403308D01*
X6616965Y44337170D01*
X6616967Y44337166D01*
X6752501Y44143605D01*
X6752506Y44143598D01*
X6919597Y43976507D01*
X6919603Y43976502D01*
X7105158Y43846575D01*
X7148783Y43791998D01*
X7155977Y43722500D01*
X7124454Y43660145D01*
X7105158Y43643425D01*
X6919597Y43513495D01*
X6752505Y43346403D01*
X6616965Y43152831D01*
X6616964Y43152829D01*
X6517098Y42938665D01*
X6517094Y42938656D01*
X6455938Y42710414D01*
X6455936Y42710404D01*
X6435341Y42475001D01*
X6435341Y42475000D01*
X6455936Y42239597D01*
X6455938Y42239587D01*
X6517094Y42011345D01*
X6517096Y42011341D01*
X6517097Y42011337D01*
X6586124Y41863308D01*
X6616965Y41797170D01*
X6616967Y41797166D01*
X6752501Y41603605D01*
X6752506Y41603598D01*
X6919597Y41436507D01*
X6919603Y41436502D01*
X7105158Y41306575D01*
X7148783Y41251998D01*
X7155977Y41182500D01*
X7124454Y41120145D01*
X7105158Y41103425D01*
X6919597Y40973495D01*
X6752505Y40806403D01*
X6616965Y40612831D01*
X6616964Y40612829D01*
X6517098Y40398665D01*
X6517094Y40398656D01*
X6455938Y40170414D01*
X6455936Y40170404D01*
X6435341Y39935001D01*
X6435341Y39935000D01*
X6455936Y39699597D01*
X6455938Y39699587D01*
X6517094Y39471345D01*
X6517096Y39471341D01*
X6517097Y39471337D01*
X6586124Y39323308D01*
X6616965Y39257170D01*
X6616967Y39257166D01*
X6695882Y39144465D01*
X6739772Y39081783D01*
X6752501Y39063605D01*
X6752506Y39063598D01*
X6919597Y38896507D01*
X6919603Y38896502D01*
X7105158Y38766575D01*
X7148783Y38711998D01*
X7155977Y38642500D01*
X7124454Y38580145D01*
X7105158Y38563425D01*
X6919597Y38433495D01*
X6752505Y38266403D01*
X6616965Y38072831D01*
X6616964Y38072829D01*
X6517098Y37858665D01*
X6517094Y37858656D01*
X6455938Y37630414D01*
X6455936Y37630404D01*
X6435341Y37395001D01*
X6435341Y37395000D01*
X6455936Y37159597D01*
X6455938Y37159587D01*
X6517094Y36931345D01*
X6517096Y36931341D01*
X6517097Y36931337D01*
X6603075Y36746957D01*
X6616965Y36717170D01*
X6616967Y36717166D01*
X6752501Y36523605D01*
X6752506Y36523598D01*
X6919597Y36356507D01*
X6919603Y36356502D01*
X7105158Y36226575D01*
X7148783Y36171998D01*
X7155977Y36102500D01*
X7124454Y36040145D01*
X7105158Y36023425D01*
X6919597Y35893495D01*
X6752505Y35726403D01*
X6616965Y35532831D01*
X6616964Y35532829D01*
X6517098Y35318665D01*
X6517094Y35318656D01*
X6455938Y35090414D01*
X6455936Y35090404D01*
X6435341Y34855001D01*
X6435341Y34855000D01*
X6455936Y34619597D01*
X6455938Y34619587D01*
X6517094Y34391345D01*
X6517096Y34391341D01*
X6517097Y34391337D01*
X6586124Y34243308D01*
X6616965Y34177170D01*
X6616967Y34177166D01*
X6752501Y33983605D01*
X6752506Y33983598D01*
X6919597Y33816507D01*
X6919603Y33816502D01*
X7105158Y33686575D01*
X7148783Y33631998D01*
X7155977Y33562500D01*
X7124454Y33500145D01*
X7105158Y33483425D01*
X6919597Y33353495D01*
X6752505Y33186403D01*
X6616965Y32992831D01*
X6616964Y32992829D01*
X6517098Y32778665D01*
X6517094Y32778656D01*
X6455938Y32550414D01*
X6455936Y32550404D01*
X6435341Y32315001D01*
X6435341Y32315000D01*
X6455936Y32079597D01*
X6455938Y32079587D01*
X6497440Y31924699D01*
X6495777Y31854849D01*
X6465346Y31804925D01*
X5562181Y30901759D01*
X5500858Y30868274D01*
X5431167Y30873258D01*
X5375233Y30915130D01*
X5350816Y30980594D01*
X5350500Y30989440D01*
X5350500Y37430744D01*
X5340818Y37525952D01*
X5340500Y37532229D01*
X5340500Y42892412D01*
X5360185Y42959451D01*
X5362925Y42963535D01*
X5385687Y42996043D01*
X5470568Y43117266D01*
X5566739Y43323504D01*
X5625635Y43543308D01*
X5645468Y43770000D01*
X5643543Y43791998D01*
X5633459Y43907266D01*
X5625635Y43996692D01*
X5566739Y44216496D01*
X5470568Y44422734D01*
X5340047Y44609139D01*
X5340045Y44609142D01*
X5179141Y44770046D01*
X4992734Y44900568D01*
X4992730Y44900570D01*
X4977022Y44907895D01*
X4924583Y44954069D01*
X4905433Y45021263D01*
X4925650Y45088143D01*
X4977028Y45132660D01*
X4992481Y45139866D01*
X5065472Y45190975D01*
X4523866Y45732581D01*
X4490381Y45793904D01*
X4495365Y45863596D01*
X4537237Y45919529D01*
X4555245Y45930742D01*
X4578045Y45942359D01*
X4667641Y46031955D01*
X4679254Y46054748D01*
X4727225Y46105542D01*
X4795046Y46122339D01*
X4861181Y46099803D01*
X4877419Y46086134D01*
X5419025Y45544528D01*
X5470136Y45617522D01*
X5566264Y45823669D01*
X5566269Y45823683D01*
X5625139Y46043390D01*
X5625141Y46043401D01*
X5644966Y46269998D01*
X5644966Y46270003D01*
X5625141Y46496600D01*
X5625139Y46496611D01*
X5566269Y46716318D01*
X5566265Y46716327D01*
X5470133Y46922484D01*
X5470131Y46922488D01*
X5419026Y46995474D01*
X5419025Y46995474D01*
X4877419Y46453868D01*
X4816096Y46420383D01*
X4746404Y46425367D01*
X4690471Y46467239D01*
X4679256Y46485249D01*
X4667641Y46508045D01*
X4667637Y46508049D01*
X4667636Y46508051D01*
X4578050Y46597637D01*
X4578044Y46597642D01*
X4568109Y46602704D01*
X4555250Y46609256D01*
X4504456Y46657227D01*
X4487660Y46725048D01*
X4510197Y46791183D01*
X4523865Y46807420D01*
X5065472Y47349027D01*
X4992483Y47400134D01*
X4992481Y47400135D01*
X4786326Y47496266D01*
X4786317Y47496270D01*
X4566610Y47555140D01*
X4566599Y47555142D01*
X4340002Y47574966D01*
X4339998Y47574966D01*
X4113400Y47555142D01*
X4113389Y47555140D01*
X3893682Y47496270D01*
X3893673Y47496266D01*
X3687513Y47400132D01*
X3614526Y47349027D01*
X4156133Y46807420D01*
X4189618Y46746097D01*
X4184634Y46676405D01*
X4142762Y46620472D01*
X4124748Y46609255D01*
X4101956Y46597642D01*
X4101949Y46597637D01*
X4012363Y46508051D01*
X4012358Y46508044D01*
X4000745Y46485252D01*
X3952770Y46434456D01*
X3884949Y46417662D01*
X3818814Y46440200D01*
X3802580Y46453867D01*
X3260973Y46995474D01*
X3209868Y46922487D01*
X3131882Y46755246D01*
X3085710Y46702807D01*
X3018516Y46683655D01*
X2951635Y46703871D01*
X2906300Y46757036D01*
X2895500Y46807651D01*
X2895500Y47838525D01*
X2915185Y47905564D01*
X2931822Y47926209D01*
X2933585Y47927974D01*
X2941783Y47936170D01*
X3038056Y48089387D01*
X3097821Y48260185D01*
X3110083Y48369016D01*
X3118081Y48439997D01*
X3118081Y48440004D01*
X3097822Y48619807D01*
X3097821Y48619813D01*
X3097821Y48619815D01*
X3038056Y48790613D01*
X2941783Y48943830D01*
X2813830Y49071783D01*
X2776952Y49094955D01*
X2660612Y49168057D01*
X2489812Y49227822D01*
X2489806Y49227823D01*
X2310004Y49248081D01*
X2309996Y49248081D01*
X2130193Y49227823D01*
X2130187Y49227822D01*
X1959387Y49168057D01*
X1806169Y49071783D01*
X1678217Y48943831D01*
X1581943Y48790613D01*
X1522178Y48619813D01*
X1522177Y48619807D01*
X1501919Y48440004D01*
X1501919Y48439997D01*
X1522177Y48260194D01*
X1522178Y48260188D01*
X1581943Y48089388D01*
X1678217Y47936170D01*
X1705781Y47908606D01*
X1739266Y47847283D01*
X1742100Y47820925D01*
X1742100Y43223701D01*
X1722415Y43156662D01*
X1669611Y43110907D01*
X1631985Y43100481D01*
X1608392Y43097823D01*
X1608387Y43097822D01*
X1437587Y43038057D01*
X1284369Y42941783D01*
X1156417Y42813831D01*
X1060143Y42660613D01*
X1000378Y42489813D01*
X1000377Y42489807D01*
X980119Y42310004D01*
X980119Y42309997D01*
X1000377Y42130194D01*
X1000378Y42130188D01*
X1049659Y41989351D01*
X1053220Y41919572D01*
X1018491Y41858945D01*
X973571Y41831355D01*
X906987Y41808057D01*
X753769Y41711783D01*
X625817Y41583831D01*
X625812Y41583825D01*
X529493Y41430534D01*
X477159Y41384243D01*
X408105Y41373595D01*
X344257Y41401970D01*
X305885Y41460360D01*
X300500Y41496506D01*
X300500Y66997787D01*
X300658Y67002211D01*
X302491Y67027844D01*
X317165Y67233023D01*
X319683Y67250530D01*
X337804Y67333830D01*
X367459Y67470149D01*
X372436Y67487100D01*
X450985Y67697701D01*
X458325Y67713773D01*
X566044Y67911044D01*
X575600Y67925914D01*
X710294Y68105844D01*
X721868Y68119201D01*
X880799Y68278132D01*
X894156Y68289706D01*
X1074086Y68424400D01*
X1088956Y68433956D01*
X1286227Y68541675D01*
X1302299Y68549015D01*
X1512900Y68627564D01*
X1529851Y68632541D01*
X1749472Y68680318D01*
X1766977Y68682835D01*
X1997791Y68699343D01*
X2002214Y68699500D01*
X2047595Y68699500D01*
X16584189Y68699500D01*
X16651228Y68679815D01*
G37*
%TD.AperFunction*%
%TA.AperFunction,Conductor*%
G36*
X61190710Y68679815D02*
G01*
X61236465Y68627011D01*
X61246409Y68557853D01*
X61217384Y68494297D01*
X61209104Y68485627D01*
X61176950Y68455062D01*
X61176948Y68455060D01*
X61060705Y68288051D01*
X60980459Y68101057D01*
X60939500Y67901742D01*
X60939500Y66356152D01*
X60919815Y66289113D01*
X60917075Y66285029D01*
X60789432Y66102735D01*
X60789431Y66102733D01*
X60693261Y65896498D01*
X60693258Y65896489D01*
X60634366Y65676698D01*
X60634364Y65676687D01*
X60614532Y65450002D01*
X60614532Y65449999D01*
X60634364Y65223314D01*
X60634366Y65223303D01*
X60693258Y65003512D01*
X60693261Y65003503D01*
X60742433Y64898055D01*
X60789432Y64797266D01*
X60875861Y64673831D01*
X60897075Y64643535D01*
X60919402Y64577329D01*
X60919500Y64572412D01*
X60919500Y60945599D01*
X60899815Y60878560D01*
X60847011Y60832805D01*
X60809384Y60822379D01*
X60680192Y60807823D01*
X60680187Y60807822D01*
X60509387Y60748057D01*
X60356169Y60651783D01*
X60228217Y60523831D01*
X60131943Y60370613D01*
X60072178Y60199813D01*
X60072177Y60199807D01*
X60051919Y60020004D01*
X60051919Y60019997D01*
X60072177Y59840194D01*
X60072178Y59840188D01*
X60072178Y59840186D01*
X60072179Y59840185D01*
X60072239Y59840013D01*
X60131943Y59669388D01*
X60204885Y59553303D01*
X60228217Y59516170D01*
X60246980Y59497407D01*
X60280466Y59436087D01*
X60283300Y59409726D01*
X60283300Y53370865D01*
X60282769Y53362764D01*
X60278324Y53329002D01*
X60278324Y53328999D01*
X60298143Y53178453D01*
X60298144Y53178451D01*
X60356254Y53038161D01*
X60398939Y52982533D01*
X60448690Y52917696D01*
X60448691Y52917695D01*
X60448693Y52917693D01*
X60465979Y52904429D01*
X60475711Y52896961D01*
X60481806Y52891617D01*
X60585418Y52788005D01*
X60654171Y52719252D01*
X60687656Y52657929D01*
X60686265Y52599478D01*
X60653366Y52476698D01*
X60653364Y52476687D01*
X60633532Y52250002D01*
X60633532Y52249999D01*
X60653364Y52023314D01*
X60653367Y52023300D01*
X60686264Y51900522D01*
X60684601Y51830673D01*
X60654170Y51780749D01*
X59281813Y50408391D01*
X59275710Y50403040D01*
X59248694Y50382308D01*
X59248693Y50382307D01*
X59233673Y50362733D01*
X59213021Y50335820D01*
X59156253Y50261839D01*
X59098144Y50121550D01*
X59098143Y50121548D01*
X59093528Y50086489D01*
X59078324Y49971000D01*
X59079547Y49961707D01*
X59082769Y49937239D01*
X59083300Y49929138D01*
X59083300Y38960394D01*
X59063615Y38893355D01*
X59010811Y38847600D01*
X58973185Y38837174D01*
X58890191Y38827823D01*
X58890187Y38827822D01*
X58719387Y38768057D01*
X58566171Y38671784D01*
X58508380Y38613993D01*
X58447056Y38580509D01*
X58377365Y38585494D01*
X58321431Y38627365D01*
X58297015Y38692830D01*
X58296699Y38701675D01*
X58296699Y50564252D01*
X58296699Y62839729D01*
X58316384Y62906764D01*
X58333014Y62927402D01*
X58351783Y62946170D01*
X58448056Y63099387D01*
X58507821Y63270185D01*
X58508630Y63277366D01*
X58528081Y63449997D01*
X58528081Y63450004D01*
X58507822Y63629807D01*
X58507821Y63629813D01*
X58507821Y63629815D01*
X58448056Y63800613D01*
X58351783Y63953830D01*
X58223830Y64081783D01*
X58194093Y64100468D01*
X58070612Y64178057D01*
X57899812Y64237822D01*
X57899806Y64237823D01*
X57720004Y64258081D01*
X57719996Y64258081D01*
X57540193Y64237823D01*
X57540187Y64237822D01*
X57369387Y64178057D01*
X57216169Y64081783D01*
X57088217Y63953831D01*
X56991942Y63800611D01*
X56946390Y63670431D01*
X56905669Y63613655D01*
X56846914Y63589666D01*
X56846981Y63589373D01*
X56845201Y63588967D01*
X56843243Y63588167D01*
X56840192Y63587824D01*
X56669387Y63528057D01*
X56516169Y63431783D01*
X56388217Y63303831D01*
X56291943Y63150613D01*
X56232178Y62979813D01*
X56232177Y62979807D01*
X56211919Y62800004D01*
X56211919Y62799997D01*
X56232177Y62620194D01*
X56232178Y62620188D01*
X56291943Y62449388D01*
X56388217Y62296169D01*
X56406979Y62277408D01*
X56440466Y62216086D01*
X56443300Y62189725D01*
X56443300Y58618778D01*
X56423615Y58551739D01*
X56370811Y58505984D01*
X56301653Y58496040D01*
X56253329Y58513783D01*
X56230611Y58528057D01*
X56059812Y58587822D01*
X56053027Y58589370D01*
X56053571Y58591755D01*
X55999656Y58614428D01*
X55960939Y58669604D01*
X55945038Y58715046D01*
X55938656Y58733285D01*
X55842383Y58886502D01*
X55714430Y59014455D01*
X55616059Y59076266D01*
X55561215Y59110727D01*
X55561211Y59110729D01*
X55514777Y59126977D01*
X55458001Y59167699D01*
X55438691Y59203062D01*
X55408056Y59290613D01*
X55396129Y59309594D01*
X55330633Y59413830D01*
X55311783Y59443830D01*
X55183830Y59571783D01*
X55129007Y59606231D01*
X55030611Y59668058D01*
X54958908Y59693148D01*
X54902133Y59733870D01*
X54882822Y59769235D01*
X54869081Y59808504D01*
X54858056Y59840013D01*
X54857942Y59840194D01*
X54763814Y59989997D01*
X54761783Y59993230D01*
X54633830Y60121183D01*
X54556433Y60169815D01*
X54480612Y60217457D01*
X54309812Y60277222D01*
X54309806Y60277223D01*
X54130004Y60297481D01*
X54129996Y60297481D01*
X53950193Y60277223D01*
X53950187Y60277222D01*
X53779387Y60217457D01*
X53626169Y60121183D01*
X53498217Y59993231D01*
X53401943Y59840013D01*
X53342178Y59669213D01*
X53342177Y59669207D01*
X53321919Y59489404D01*
X53321919Y59489397D01*
X53342177Y59309594D01*
X53342178Y59309588D01*
X53401943Y59138788D01*
X53498217Y58985570D01*
X53516981Y58966806D01*
X53550466Y58905483D01*
X53553300Y58879125D01*
X53553300Y53991293D01*
X53533615Y53924254D01*
X53480811Y53878499D01*
X53411653Y53868555D01*
X53348097Y53897580D01*
X53341619Y53903612D01*
X46917819Y60327412D01*
X46884334Y60388735D01*
X46881500Y60415093D01*
X46881500Y62307943D01*
X46901185Y62374982D01*
X46939526Y62412936D01*
X47045450Y62479492D01*
X47173403Y62607445D01*
X47269676Y62760662D01*
X47329441Y62931460D01*
X47349701Y63111275D01*
X47347576Y63130133D01*
X47329442Y63291082D01*
X47329441Y63291088D01*
X47329441Y63291090D01*
X47269676Y63461888D01*
X47173403Y63615105D01*
X47045450Y63743058D01*
X46962712Y63795046D01*
X46892235Y63839330D01*
X46892234Y63839331D01*
X46821833Y63863966D01*
X46765057Y63904689D01*
X46745750Y63940046D01*
X46728056Y63990613D01*
X46631783Y64143830D01*
X46503830Y64271783D01*
X46350613Y64368056D01*
X46350614Y64368056D01*
X46350612Y64368057D01*
X46288862Y64389664D01*
X46271173Y64395854D01*
X46214398Y64436574D01*
X46195087Y64471941D01*
X46178057Y64520612D01*
X46103385Y64639451D01*
X46081783Y64673830D01*
X45953830Y64801783D01*
X45800615Y64898055D01*
X45800614Y64898056D01*
X45713765Y64928446D01*
X45656990Y64969168D01*
X45637679Y65004533D01*
X45636484Y65007948D01*
X45618056Y65060613D01*
X45521783Y65213830D01*
X45393830Y65341783D01*
X45240615Y65438055D01*
X45240614Y65438056D01*
X45161461Y65465753D01*
X45104686Y65506475D01*
X45085375Y65541840D01*
X45068340Y65590523D01*
X44999550Y65700001D01*
X53021127Y65700001D01*
X53021128Y65700000D01*
X53789424Y65700000D01*
X53856463Y65680315D01*
X53902218Y65627511D01*
X53912162Y65558353D01*
X53911897Y65556603D01*
X53895014Y65450004D01*
X53895014Y65449997D01*
X53911897Y65343397D01*
X53902942Y65274104D01*
X53857946Y65220652D01*
X53791194Y65200013D01*
X53789424Y65200000D01*
X53021128Y65200000D01*
X53073730Y65003683D01*
X53073734Y65003674D01*
X53169865Y64797518D01*
X53300342Y64611180D01*
X53461179Y64450343D01*
X53647517Y64319866D01*
X53853673Y64223735D01*
X53853682Y64223731D01*
X54049999Y64171128D01*
X54050000Y64171129D01*
X54050000Y64939425D01*
X54069685Y65006464D01*
X54122489Y65052219D01*
X54191647Y65062163D01*
X54193331Y65061909D01*
X54225699Y65056782D01*
X54268515Y65050000D01*
X54268519Y65050000D01*
X54331485Y65050000D01*
X54374300Y65056782D01*
X54406602Y65061898D01*
X54475894Y65052944D01*
X54529347Y65007948D01*
X54549987Y64941197D01*
X54550000Y64939425D01*
X54550000Y64171128D01*
X54746317Y64223731D01*
X54746326Y64223735D01*
X54952482Y64319866D01*
X55138820Y64450343D01*
X55299657Y64611180D01*
X55430134Y64797518D01*
X55526265Y65003674D01*
X55526269Y65003683D01*
X55578872Y65200000D01*
X54810576Y65200000D01*
X54743537Y65219685D01*
X54697782Y65272489D01*
X54687838Y65341647D01*
X54688103Y65343397D01*
X54704986Y65449997D01*
X54704986Y65450004D01*
X54688103Y65556603D01*
X54697058Y65625896D01*
X54742054Y65679348D01*
X54808806Y65699987D01*
X54810576Y65700000D01*
X55578872Y65700000D01*
X55578872Y65700001D01*
X55526269Y65896318D01*
X55526265Y65896327D01*
X55430134Y66102483D01*
X55299657Y66288821D01*
X55138820Y66449658D01*
X54952482Y66580135D01*
X54746328Y66676266D01*
X54550000Y66728873D01*
X54550000Y65960576D01*
X54530315Y65893537D01*
X54477511Y65847782D01*
X54408353Y65837838D01*
X54406602Y65838103D01*
X54331486Y65850000D01*
X54331481Y65850000D01*
X54268519Y65850000D01*
X54268514Y65850000D01*
X54193398Y65838103D01*
X54124104Y65847058D01*
X54070652Y65892054D01*
X54050013Y65958806D01*
X54050000Y65960576D01*
X54050000Y66728873D01*
X53853671Y66676266D01*
X53647517Y66580135D01*
X53461179Y66449658D01*
X53300342Y66288821D01*
X53169865Y66102483D01*
X53073734Y65896327D01*
X53073730Y65896318D01*
X53021127Y65700001D01*
X44999550Y65700001D01*
X44972067Y65743740D01*
X44844114Y65871693D01*
X44804924Y65896318D01*
X44690894Y65967969D01*
X44622565Y65991878D01*
X44565789Y66032600D01*
X44546478Y66067965D01*
X44543239Y66077221D01*
X44528056Y66120613D01*
X44498901Y66167012D01*
X44460641Y66227903D01*
X44431783Y66273830D01*
X44303830Y66401783D01*
X44150613Y66498056D01*
X44150614Y66498056D01*
X44150612Y66498057D01*
X44088862Y66519664D01*
X44071173Y66525854D01*
X44014398Y66566574D01*
X43995087Y66601941D01*
X43978057Y66650612D01*
X43881782Y66803831D01*
X43753830Y66931783D01*
X43600610Y67028059D01*
X43503397Y67062075D01*
X43446621Y67102797D01*
X43427310Y67138162D01*
X43422911Y67150733D01*
X43412456Y67180613D01*
X43316183Y67333830D01*
X43188230Y67461783D01*
X43147918Y67487113D01*
X43035012Y67558057D01*
X42864212Y67617822D01*
X42864207Y67617823D01*
X42840615Y67620481D01*
X42776201Y67647549D01*
X42736647Y67705144D01*
X42730500Y67743701D01*
X42730500Y67850744D01*
X42715074Y68002440D01*
X42654162Y68196580D01*
X42654160Y68196584D01*
X42654159Y68196588D01*
X42555409Y68374502D01*
X42452195Y68494731D01*
X42423464Y68558418D01*
X42433726Y68627530D01*
X42479723Y68680123D01*
X42546282Y68699500D01*
X61123671Y68699500D01*
X61190710Y68679815D01*
G37*
%TD.AperFunction*%
%TA.AperFunction,Conductor*%
G36*
X3933594Y46114636D02*
G01*
X3989528Y46072765D01*
X4000742Y46054754D01*
X4006527Y46043401D01*
X4012358Y46031956D01*
X4012363Y46031950D01*
X4101949Y45942364D01*
X4101951Y45942363D01*
X4101955Y45942359D01*
X4124747Y45930746D01*
X4175542Y45882772D01*
X4192337Y45814951D01*
X4169799Y45748816D01*
X4156132Y45732581D01*
X3614526Y45190975D01*
X3614526Y45190974D01*
X3687512Y45139869D01*
X3687515Y45139868D01*
X3702974Y45132659D01*
X3755414Y45086487D01*
X3774567Y45019294D01*
X3754352Y44952413D01*
X3702978Y44907895D01*
X3687269Y44900570D01*
X3687265Y44900568D01*
X3500858Y44770046D01*
X3339954Y44609142D01*
X3209432Y44422735D01*
X3209431Y44422733D01*
X3131882Y44256429D01*
X3085709Y44203990D01*
X3018516Y44184838D01*
X2951635Y44205054D01*
X2906300Y44258220D01*
X2895500Y44308834D01*
X2895500Y45732350D01*
X2915185Y45799389D01*
X2967989Y45845144D01*
X3037147Y45855088D01*
X3100703Y45826063D01*
X3131882Y45784755D01*
X3209863Y45617523D01*
X3209866Y45617517D01*
X3260973Y45544529D01*
X3260973Y45544528D01*
X3802580Y46086135D01*
X3863903Y46119620D01*
X3933594Y46114636D01*
G37*
%TD.AperFunction*%
%TA.AperFunction,Conductor*%
G36*
X31926339Y50933615D02*
G01*
X31972094Y50880811D01*
X31983300Y50829300D01*
X31983299Y46851640D01*
X31963614Y46784601D01*
X31910810Y46738846D01*
X31841652Y46728902D01*
X31778096Y46757927D01*
X31771618Y46763959D01*
X29307392Y49228185D01*
X29302040Y49234287D01*
X29281540Y49261003D01*
X29256346Y49326168D01*
X29270383Y49394613D01*
X29278345Y49407616D01*
X29282327Y49413303D01*
X29285035Y49417170D01*
X29384903Y49631337D01*
X29446063Y49859592D01*
X29466659Y50095000D01*
X29446063Y50330408D01*
X29384903Y50558663D01*
X29285035Y50772829D01*
X29285034Y50772831D01*
X29283139Y50776895D01*
X29272647Y50845973D01*
X29301167Y50909757D01*
X29359643Y50947996D01*
X29395521Y50953300D01*
X31859300Y50953300D01*
X31926339Y50933615D01*
G37*
%TD.AperFunction*%
%TA.AperFunction,Conductor*%
G36*
X63312365Y54322780D02*
G01*
X63356881Y54271407D01*
X63372537Y54237832D01*
X63419431Y54137268D01*
X63419432Y54137266D01*
X63549954Y53950859D01*
X63710858Y53789955D01*
X63710861Y53789953D01*
X63897266Y53659432D01*
X63912975Y53652107D01*
X63965414Y53605936D01*
X63984567Y53538743D01*
X63964352Y53471862D01*
X63912979Y53427344D01*
X63897512Y53420132D01*
X63824526Y53369027D01*
X64366133Y52827420D01*
X64399618Y52766097D01*
X64394634Y52696405D01*
X64352762Y52640472D01*
X64334748Y52629255D01*
X64311956Y52617642D01*
X64311949Y52617637D01*
X64222363Y52528051D01*
X64222358Y52528044D01*
X64210745Y52505252D01*
X64162770Y52454456D01*
X64094949Y52437662D01*
X64028814Y52460200D01*
X64012580Y52473867D01*
X63470973Y53015474D01*
X63419868Y52942487D01*
X63347831Y52788005D01*
X63301658Y52735566D01*
X63234465Y52716414D01*
X63167584Y52736630D01*
X63123067Y52788005D01*
X63112259Y52811183D01*
X63069568Y52902734D01*
X62944397Y53081498D01*
X62939045Y53089142D01*
X62778141Y53250046D01*
X62591734Y53380568D01*
X62591728Y53380571D01*
X62533725Y53407618D01*
X62481285Y53453790D01*
X62462133Y53520983D01*
X62482348Y53587865D01*
X62533725Y53632382D01*
X62591734Y53659432D01*
X62778139Y53789953D01*
X62939047Y53950861D01*
X63069568Y54137266D01*
X63132118Y54271407D01*
X63178290Y54323844D01*
X63245484Y54342996D01*
X63312365Y54322780D01*
G37*
%TD.AperFunction*%
M02*
