%TF.GenerationSoftware,KiCad,Pcbnew,7.0.7*%
%TF.CreationDate,2025-02-21T09:52:27+09:00*%
%TF.ProjectId,w65c_Rev1.6,77363563-5f52-4657-9631-2e362e6b6963,Rev1.6*%
%TF.SameCoordinates,PX5f6f270PY775a330*%
%TF.FileFunction,Soldermask,Bot*%
%TF.FilePolarity,Negative*%
%FSLAX46Y46*%
G04 Gerber Fmt 4.6, Leading zero omitted, Abs format (unit mm)*
G04 Created by KiCad (PCBNEW 7.0.7) date 2025-02-21 09:52:27*
%MOMM*%
%LPD*%
G01*
G04 APERTURE LIST*
%ADD10R,1.800000X1.800000*%
%ADD11C,1.800000*%
%ADD12C,1.600000*%
%ADD13O,1.600000X1.600000*%
%ADD14R,1.600000X1.600000*%
%ADD15R,1.700000X1.700000*%
%ADD16O,1.700000X1.700000*%
%ADD17C,0.605000*%
G04 APERTURE END LIST*
D10*
X4060000Y24160000D03*
D11*
X4060000Y21620000D03*
D12*
X9700000Y6110000D03*
D13*
X17320000Y6110000D03*
D12*
X17330000Y3040000D03*
D13*
X9710000Y3040000D03*
D12*
X61920000Y65450000D03*
D13*
X54300000Y65450000D03*
D12*
X39740000Y61340000D03*
D13*
X32120000Y61340000D03*
D10*
X4060000Y16510000D03*
D11*
X4060000Y13970000D03*
D10*
X4060000Y9340000D03*
D11*
X4060000Y6800000D03*
D12*
X41730000Y57850000D03*
X39230000Y57850000D03*
X64550000Y54790000D03*
X64550000Y52290000D03*
D14*
X2920000Y64860000D03*
D13*
X2920000Y62320000D03*
X2920000Y59780000D03*
X2920000Y57240000D03*
X2920000Y54700000D03*
D14*
X10331000Y62795000D03*
D13*
X10331000Y60255000D03*
X10331000Y57715000D03*
X10331000Y55175000D03*
X10331000Y52635000D03*
X10331000Y50095000D03*
X10331000Y47555000D03*
X10331000Y45015000D03*
X10331000Y42475000D03*
X10331000Y39935000D03*
X10331000Y37395000D03*
X10331000Y34855000D03*
X10331000Y32315000D03*
X10331000Y29775000D03*
X10331000Y27235000D03*
X10331000Y24695000D03*
X10331000Y22155000D03*
X10331000Y19615000D03*
X10331000Y17075000D03*
X10331000Y14535000D03*
X25571000Y14535000D03*
X25571000Y17075000D03*
X25571000Y19615000D03*
X25571000Y22155000D03*
X25571000Y24695000D03*
X25571000Y27235000D03*
X25571000Y29775000D03*
X25571000Y32315000D03*
X25571000Y34855000D03*
X25571000Y37395000D03*
X25571000Y39935000D03*
X25571000Y42475000D03*
X25571000Y45015000D03*
X25571000Y47555000D03*
X25571000Y50095000D03*
X25571000Y52635000D03*
X25571000Y55175000D03*
X25571000Y57715000D03*
X25571000Y60255000D03*
X25571000Y62795000D03*
D12*
X17320000Y9170000D03*
D13*
X9700000Y9170000D03*
D15*
X43900000Y6610000D03*
D16*
X41360000Y6610000D03*
X38820000Y6610000D03*
X36280000Y6610000D03*
X33740000Y6610000D03*
X31200000Y6610000D03*
D14*
X46699000Y54790000D03*
D13*
X46699000Y52250000D03*
X46699000Y49710000D03*
X46699000Y47170000D03*
X46699000Y44630000D03*
X46699000Y42090000D03*
X46699000Y39550000D03*
X46699000Y37010000D03*
X46699000Y34470000D03*
X46699000Y31930000D03*
X46699000Y29390000D03*
X46699000Y26850000D03*
X46699000Y24310000D03*
X46699000Y21770000D03*
X46699000Y19230000D03*
X46699000Y16690000D03*
X61939000Y16690000D03*
X61939000Y19230000D03*
X61939000Y21770000D03*
X61939000Y24310000D03*
X61939000Y26850000D03*
X61939000Y29390000D03*
X61939000Y31930000D03*
X61939000Y34470000D03*
X61939000Y37010000D03*
X61939000Y39550000D03*
X61939000Y42090000D03*
X61939000Y44630000D03*
X61939000Y47170000D03*
X61939000Y49710000D03*
X61939000Y52250000D03*
X61939000Y54790000D03*
D14*
X34110000Y54720000D03*
D13*
X34110000Y52180000D03*
X34110000Y49640000D03*
X34110000Y47100000D03*
X34110000Y44560000D03*
X34110000Y42020000D03*
X34110000Y39480000D03*
X34110000Y36940000D03*
X34110000Y34400000D03*
X34110000Y31860000D03*
X34110000Y29320000D03*
X34110000Y26780000D03*
X41730000Y26780000D03*
X41730000Y29320000D03*
X41730000Y31860000D03*
X41730000Y34400000D03*
X41730000Y36940000D03*
X41730000Y39480000D03*
X41730000Y42020000D03*
X41730000Y44560000D03*
X41730000Y47100000D03*
X41730000Y49640000D03*
X41730000Y52180000D03*
X41730000Y54720000D03*
D12*
X4340000Y43770000D03*
X4340000Y46270000D03*
D15*
X28111000Y62795000D03*
D16*
X28111000Y60255000D03*
X28111000Y57715000D03*
X28111000Y55175000D03*
X28111000Y52635000D03*
X28111000Y50095000D03*
X28111000Y47555000D03*
X28111000Y45015000D03*
X28111000Y42475000D03*
X28111000Y39935000D03*
X28111000Y37395000D03*
X28111000Y34855000D03*
X28111000Y32315000D03*
X28111000Y29775000D03*
X28111000Y27235000D03*
X28111000Y24695000D03*
X28111000Y22155000D03*
X28111000Y19615000D03*
X28111000Y17075000D03*
X28111000Y14535000D03*
D15*
X7791000Y62795000D03*
D16*
X7791000Y60255000D03*
X7791000Y57715000D03*
X7791000Y55175000D03*
X7791000Y52635000D03*
X7791000Y50095000D03*
X7791000Y47555000D03*
X7791000Y45015000D03*
X7791000Y42475000D03*
X7791000Y39935000D03*
X7791000Y37395000D03*
X7791000Y34855000D03*
X7791000Y32315000D03*
X7791000Y29775000D03*
X7791000Y27235000D03*
X7791000Y24695000D03*
X7791000Y22155000D03*
X7791000Y19615000D03*
X7791000Y17075000D03*
X7791000Y14535000D03*
D17*
X17400000Y67800000D03*
X2290000Y11300000D03*
X41730000Y67800000D03*
X61940000Y67800000D03*
X17409998Y11359999D03*
X4340000Y37390000D03*
X17390000Y45020000D03*
X59660000Y20410000D03*
X63700000Y61340000D03*
X52970000Y55120000D03*
X49710000Y20850000D03*
X53770000Y20710000D03*
X48570000Y33100900D03*
X64590000Y66420000D03*
X59660000Y17830000D03*
X59640000Y23010000D03*
X54280000Y61340000D03*
X31700000Y54740000D03*
X64550000Y33060000D03*
X48630000Y48280000D03*
X38570000Y35840000D03*
X5710000Y35450000D03*
X49960000Y4850016D03*
X41640000Y20020000D03*
X31780000Y27480000D03*
X49970000Y16690000D03*
X20740000Y22230000D03*
X12620000Y52250000D03*
X31780000Y34850000D03*
X12830000Y24570000D03*
X33310000Y19330000D03*
X48670000Y28680000D03*
X20470000Y18440000D03*
X31670000Y24450000D03*
X45760000Y11120000D03*
X30120000Y50130000D03*
X33320000Y16390000D03*
X12510000Y41780000D03*
X60050000Y9160000D03*
X12650000Y32410000D03*
X34300000Y10200000D03*
X20800000Y24790000D03*
X41570000Y10910000D03*
X1110000Y46500000D03*
X38580000Y16700000D03*
X22130000Y14530000D03*
X48700000Y52040000D03*
X12500000Y47540000D03*
X13780000Y65690000D03*
X5340000Y51330000D03*
X5943700Y31978312D03*
X38570000Y47190000D03*
X38570000Y26780000D03*
X59520000Y53990000D03*
X48630000Y40820000D03*
X52320000Y10710000D03*
X24550000Y5720000D03*
X30870000Y48300000D03*
X58700000Y28600000D03*
X57020000Y62800000D03*
X57020000Y12380000D03*
X57020000Y37010000D03*
X54525000Y15905000D03*
X16435600Y56805800D03*
X16435600Y60628300D03*
X54680000Y47170000D03*
X54680000Y58940000D03*
X55330000Y17760000D03*
X55210600Y58382672D03*
X55320000Y44620000D03*
X54130000Y59489400D03*
X54130000Y49710000D03*
X5730000Y58470000D03*
X54139400Y23230000D03*
X60860000Y60020000D03*
X4973389Y58448983D03*
X59630000Y25380000D03*
X16310000Y43110000D03*
X31630000Y42020000D03*
X31070000Y43710000D03*
X16310000Y48770000D03*
X45230000Y37020000D03*
X45230000Y29929400D03*
X2310000Y48440000D03*
X2318800Y33390000D03*
X1788200Y42310000D03*
X1788200Y33930896D03*
X30790000Y29000000D03*
X30790000Y38450000D03*
X2849400Y28990000D03*
X2860000Y41780000D03*
X3380000Y28310000D03*
X3385600Y39930000D03*
X16240000Y34020000D03*
X16240000Y37400000D03*
X44310000Y44630000D03*
X44310000Y23930000D03*
X45010000Y22220000D03*
X16330000Y21480000D03*
X16330000Y30559400D03*
X1240000Y27270000D03*
X1257600Y41080000D03*
X31580000Y26120000D03*
X39660000Y31880000D03*
X36860000Y21680000D03*
X15031700Y20850000D03*
X36850000Y39480000D03*
X15031700Y18120000D03*
X14501100Y15660000D03*
X14510000Y52640000D03*
X12100000Y17070000D03*
X57720000Y63450000D03*
X57750000Y12920000D03*
X31255191Y62989400D03*
X12100000Y14250000D03*
X57720000Y31928900D03*
X44490000Y56870000D03*
X30480000Y58910000D03*
X13410000Y14610000D03*
X13420000Y19620000D03*
X56430000Y39550000D03*
X56430000Y13450600D03*
X56430000Y57280000D03*
X43710000Y58910000D03*
X29940000Y55744600D03*
X13970000Y17110000D03*
X55880000Y57800000D03*
X55830000Y15900000D03*
X55880000Y42090000D03*
X13970000Y22150000D03*
X18540000Y27240000D03*
X42684400Y66830000D03*
X49830000Y26860000D03*
X18540000Y66845600D03*
X18540000Y54100000D03*
X19130000Y66360000D03*
X19130000Y29780000D03*
X50360000Y24310000D03*
X19130000Y51590000D03*
X43250000Y66300000D03*
X19650000Y32320000D03*
X50910000Y21760000D03*
X19660600Y65820000D03*
X19660000Y48590000D03*
X43800000Y65770000D03*
X20380000Y65289400D03*
X20380000Y46100000D03*
X51441100Y19251100D03*
X44340284Y65239910D03*
X20380000Y34860000D03*
X21109400Y64758800D03*
X51990000Y16720000D03*
X21110000Y37390000D03*
X44890000Y64710000D03*
X21109400Y43875000D03*
X45450000Y64170000D03*
X21640000Y63550000D03*
X21640000Y39935000D03*
X52520600Y19780600D03*
X47870000Y9270000D03*
X46000000Y63640000D03*
X22270000Y42475000D03*
X53051200Y22300600D03*
X22240000Y63080000D03*
X30480000Y39920000D03*
X30480000Y45530000D03*
X53590000Y24840600D03*
X22790000Y45007500D03*
X48400600Y10250000D03*
X46541620Y63111275D03*
X22800000Y61690000D03*
X22790000Y38432500D03*
X15040000Y33470000D03*
X15049400Y54640000D03*
X13970500Y50090000D03*
X13970500Y26680000D03*
X35750000Y22510000D03*
X23350000Y18890000D03*
X23365000Y62795000D03*
X15580000Y16579400D03*
X15410000Y59990000D03*
X39678000Y29320000D03*
X23880600Y55200000D03*
X24000000Y19660000D03*
X13690000Y57050000D03*
X13690000Y53890000D03*
X59070000Y34470000D03*
X59070000Y38040000D03*
X31210000Y53320000D03*
X60350000Y35530000D03*
X60350000Y47170000D03*
M02*
