%TF.GenerationSoftware,KiCad,Pcbnew,7.0.7*%
%TF.CreationDate,2025-02-21T09:52:26+09:00*%
%TF.ProjectId,w65c_Rev1.6,77363563-5f52-4657-9631-2e362e6b6963,Rev1.6*%
%TF.SameCoordinates,PX5f6f270PY775a330*%
%TF.FileFunction,Legend,Top*%
%TF.FilePolarity,Positive*%
%FSLAX46Y46*%
G04 Gerber Fmt 4.6, Leading zero omitted, Abs format (unit mm)*
G04 Created by KiCad (PCBNEW 7.0.7) date 2025-02-21 09:52:26*
%MOMM*%
%LPD*%
G01*
G04 APERTURE LIST*
%ADD10C,0.586077*%
%ADD11C,0.150000*%
%ADD12C,0.160000*%
%ADD13C,0.100000*%
%ADD14C,0.125000*%
%ADD15C,0.120000*%
G04 APERTURE END LIST*
D10*
X3193038Y67520000D02*
G75*
G03*
X3193038Y67520000I-293038J0D01*
G01*
D11*
X36674295Y2099161D02*
X35874295Y2099161D01*
X35874295Y2099161D02*
X36445723Y2365827D01*
X36445723Y2365827D02*
X35874295Y2632494D01*
X35874295Y2632494D02*
X36674295Y2632494D01*
X36674295Y3013447D02*
X35874295Y3013447D01*
X36636200Y3356303D02*
X36674295Y3470589D01*
X36674295Y3470589D02*
X36674295Y3661065D01*
X36674295Y3661065D02*
X36636200Y3737256D01*
X36636200Y3737256D02*
X36598104Y3775351D01*
X36598104Y3775351D02*
X36521914Y3813446D01*
X36521914Y3813446D02*
X36445723Y3813446D01*
X36445723Y3813446D02*
X36369533Y3775351D01*
X36369533Y3775351D02*
X36331438Y3737256D01*
X36331438Y3737256D02*
X36293342Y3661065D01*
X36293342Y3661065D02*
X36255247Y3508684D01*
X36255247Y3508684D02*
X36217152Y3432494D01*
X36217152Y3432494D02*
X36179057Y3394399D01*
X36179057Y3394399D02*
X36102866Y3356303D01*
X36102866Y3356303D02*
X36026676Y3356303D01*
X36026676Y3356303D02*
X35950485Y3394399D01*
X35950485Y3394399D02*
X35912390Y3432494D01*
X35912390Y3432494D02*
X35874295Y3508684D01*
X35874295Y3508684D02*
X35874295Y3699161D01*
X35874295Y3699161D02*
X35912390Y3813446D01*
X35874295Y4308685D02*
X35874295Y4461066D01*
X35874295Y4461066D02*
X35912390Y4537256D01*
X35912390Y4537256D02*
X35988580Y4613447D01*
X35988580Y4613447D02*
X36140961Y4651542D01*
X36140961Y4651542D02*
X36407628Y4651542D01*
X36407628Y4651542D02*
X36560009Y4613447D01*
X36560009Y4613447D02*
X36636200Y4537256D01*
X36636200Y4537256D02*
X36674295Y4461066D01*
X36674295Y4461066D02*
X36674295Y4308685D01*
X36674295Y4308685D02*
X36636200Y4232494D01*
X36636200Y4232494D02*
X36560009Y4156304D01*
X36560009Y4156304D02*
X36407628Y4118208D01*
X36407628Y4118208D02*
X36140961Y4118208D01*
X36140961Y4118208D02*
X35988580Y4156304D01*
X35988580Y4156304D02*
X35912390Y4232494D01*
X35912390Y4232494D02*
X35874295Y4308685D01*
X30812390Y2968208D02*
X30774295Y2892018D01*
X30774295Y2892018D02*
X30774295Y2777732D01*
X30774295Y2777732D02*
X30812390Y2663446D01*
X30812390Y2663446D02*
X30888580Y2587256D01*
X30888580Y2587256D02*
X30964771Y2549161D01*
X30964771Y2549161D02*
X31117152Y2511065D01*
X31117152Y2511065D02*
X31231438Y2511065D01*
X31231438Y2511065D02*
X31383819Y2549161D01*
X31383819Y2549161D02*
X31460009Y2587256D01*
X31460009Y2587256D02*
X31536200Y2663446D01*
X31536200Y2663446D02*
X31574295Y2777732D01*
X31574295Y2777732D02*
X31574295Y2853923D01*
X31574295Y2853923D02*
X31536200Y2968208D01*
X31536200Y2968208D02*
X31498104Y3006304D01*
X31498104Y3006304D02*
X31231438Y3006304D01*
X31231438Y3006304D02*
X31231438Y2853923D01*
X31574295Y3349161D02*
X30774295Y3349161D01*
X30774295Y3349161D02*
X31574295Y3806304D01*
X31574295Y3806304D02*
X30774295Y3806304D01*
X31574295Y4187256D02*
X30774295Y4187256D01*
X30774295Y4187256D02*
X30774295Y4377732D01*
X30774295Y4377732D02*
X30812390Y4492018D01*
X30812390Y4492018D02*
X30888580Y4568208D01*
X30888580Y4568208D02*
X30964771Y4606303D01*
X30964771Y4606303D02*
X31117152Y4644399D01*
X31117152Y4644399D02*
X31231438Y4644399D01*
X31231438Y4644399D02*
X31383819Y4606303D01*
X31383819Y4606303D02*
X31460009Y4568208D01*
X31460009Y4568208D02*
X31536200Y4492018D01*
X31536200Y4492018D02*
X31574295Y4377732D01*
X31574295Y4377732D02*
X31574295Y4187256D01*
X39214295Y2069161D02*
X38414295Y2069161D01*
X38414295Y2069161D02*
X38985723Y2335827D01*
X38985723Y2335827D02*
X38414295Y2602494D01*
X38414295Y2602494D02*
X39214295Y2602494D01*
X38414295Y3135828D02*
X38414295Y3288209D01*
X38414295Y3288209D02*
X38452390Y3364399D01*
X38452390Y3364399D02*
X38528580Y3440590D01*
X38528580Y3440590D02*
X38680961Y3478685D01*
X38680961Y3478685D02*
X38947628Y3478685D01*
X38947628Y3478685D02*
X39100009Y3440590D01*
X39100009Y3440590D02*
X39176200Y3364399D01*
X39176200Y3364399D02*
X39214295Y3288209D01*
X39214295Y3288209D02*
X39214295Y3135828D01*
X39214295Y3135828D02*
X39176200Y3059637D01*
X39176200Y3059637D02*
X39100009Y2983447D01*
X39100009Y2983447D02*
X38947628Y2945351D01*
X38947628Y2945351D02*
X38680961Y2945351D01*
X38680961Y2945351D02*
X38528580Y2983447D01*
X38528580Y2983447D02*
X38452390Y3059637D01*
X38452390Y3059637D02*
X38414295Y3135828D01*
X39176200Y3783446D02*
X39214295Y3897732D01*
X39214295Y3897732D02*
X39214295Y4088208D01*
X39214295Y4088208D02*
X39176200Y4164399D01*
X39176200Y4164399D02*
X39138104Y4202494D01*
X39138104Y4202494D02*
X39061914Y4240589D01*
X39061914Y4240589D02*
X38985723Y4240589D01*
X38985723Y4240589D02*
X38909533Y4202494D01*
X38909533Y4202494D02*
X38871438Y4164399D01*
X38871438Y4164399D02*
X38833342Y4088208D01*
X38833342Y4088208D02*
X38795247Y3935827D01*
X38795247Y3935827D02*
X38757152Y3859637D01*
X38757152Y3859637D02*
X38719057Y3821542D01*
X38719057Y3821542D02*
X38642866Y3783446D01*
X38642866Y3783446D02*
X38566676Y3783446D01*
X38566676Y3783446D02*
X38490485Y3821542D01*
X38490485Y3821542D02*
X38452390Y3859637D01*
X38452390Y3859637D02*
X38414295Y3935827D01*
X38414295Y3935827D02*
X38414295Y4126304D01*
X38414295Y4126304D02*
X38452390Y4240589D01*
X39214295Y4583447D02*
X38414295Y4583447D01*
D12*
X2187643Y19184320D02*
X2301929Y19146225D01*
X2301929Y19146225D02*
X2492405Y19146225D01*
X2492405Y19146225D02*
X2568596Y19184320D01*
X2568596Y19184320D02*
X2606691Y19222416D01*
X2606691Y19222416D02*
X2644786Y19298606D01*
X2644786Y19298606D02*
X2644786Y19374797D01*
X2644786Y19374797D02*
X2606691Y19450987D01*
X2606691Y19450987D02*
X2568596Y19489082D01*
X2568596Y19489082D02*
X2492405Y19527178D01*
X2492405Y19527178D02*
X2340024Y19565273D01*
X2340024Y19565273D02*
X2263834Y19603368D01*
X2263834Y19603368D02*
X2225739Y19641463D01*
X2225739Y19641463D02*
X2187643Y19717654D01*
X2187643Y19717654D02*
X2187643Y19793844D01*
X2187643Y19793844D02*
X2225739Y19870035D01*
X2225739Y19870035D02*
X2263834Y19908130D01*
X2263834Y19908130D02*
X2340024Y19946225D01*
X2340024Y19946225D02*
X2530501Y19946225D01*
X2530501Y19946225D02*
X2644786Y19908130D01*
X2987644Y19146225D02*
X2987644Y19946225D01*
X2987644Y19946225D02*
X3292406Y19946225D01*
X3292406Y19946225D02*
X3368596Y19908130D01*
X3368596Y19908130D02*
X3406691Y19870035D01*
X3406691Y19870035D02*
X3444787Y19793844D01*
X3444787Y19793844D02*
X3444787Y19679559D01*
X3444787Y19679559D02*
X3406691Y19603368D01*
X3406691Y19603368D02*
X3368596Y19565273D01*
X3368596Y19565273D02*
X3292406Y19527178D01*
X3292406Y19527178D02*
X2987644Y19527178D01*
X3787644Y19146225D02*
X3787644Y19946225D01*
X3978120Y19070035D02*
X4587643Y19070035D01*
X4740024Y19184320D02*
X4854310Y19146225D01*
X4854310Y19146225D02*
X5044786Y19146225D01*
X5044786Y19146225D02*
X5120977Y19184320D01*
X5120977Y19184320D02*
X5159072Y19222416D01*
X5159072Y19222416D02*
X5197167Y19298606D01*
X5197167Y19298606D02*
X5197167Y19374797D01*
X5197167Y19374797D02*
X5159072Y19450987D01*
X5159072Y19450987D02*
X5120977Y19489082D01*
X5120977Y19489082D02*
X5044786Y19527178D01*
X5044786Y19527178D02*
X4892405Y19565273D01*
X4892405Y19565273D02*
X4816215Y19603368D01*
X4816215Y19603368D02*
X4778120Y19641463D01*
X4778120Y19641463D02*
X4740024Y19717654D01*
X4740024Y19717654D02*
X4740024Y19793844D01*
X4740024Y19793844D02*
X4778120Y19870035D01*
X4778120Y19870035D02*
X4816215Y19908130D01*
X4816215Y19908130D02*
X4892405Y19946225D01*
X4892405Y19946225D02*
X5082882Y19946225D01*
X5082882Y19946225D02*
X5197167Y19908130D01*
X5501929Y19184320D02*
X5616215Y19146225D01*
X5616215Y19146225D02*
X5806691Y19146225D01*
X5806691Y19146225D02*
X5882882Y19184320D01*
X5882882Y19184320D02*
X5920977Y19222416D01*
X5920977Y19222416D02*
X5959072Y19298606D01*
X5959072Y19298606D02*
X5959072Y19374797D01*
X5959072Y19374797D02*
X5920977Y19450987D01*
X5920977Y19450987D02*
X5882882Y19489082D01*
X5882882Y19489082D02*
X5806691Y19527178D01*
X5806691Y19527178D02*
X5654310Y19565273D01*
X5654310Y19565273D02*
X5578120Y19603368D01*
X5578120Y19603368D02*
X5540025Y19641463D01*
X5540025Y19641463D02*
X5501929Y19717654D01*
X5501929Y19717654D02*
X5501929Y19793844D01*
X5501929Y19793844D02*
X5540025Y19870035D01*
X5540025Y19870035D02*
X5578120Y19908130D01*
X5578120Y19908130D02*
X5654310Y19946225D01*
X5654310Y19946225D02*
X5844787Y19946225D01*
X5844787Y19946225D02*
X5959072Y19908130D01*
X2115263Y20168320D02*
X6031454Y20168320D01*
D11*
X41696200Y2541065D02*
X41734295Y2655351D01*
X41734295Y2655351D02*
X41734295Y2845827D01*
X41734295Y2845827D02*
X41696200Y2922018D01*
X41696200Y2922018D02*
X41658104Y2960113D01*
X41658104Y2960113D02*
X41581914Y2998208D01*
X41581914Y2998208D02*
X41505723Y2998208D01*
X41505723Y2998208D02*
X41429533Y2960113D01*
X41429533Y2960113D02*
X41391438Y2922018D01*
X41391438Y2922018D02*
X41353342Y2845827D01*
X41353342Y2845827D02*
X41315247Y2693446D01*
X41315247Y2693446D02*
X41277152Y2617256D01*
X41277152Y2617256D02*
X41239057Y2579161D01*
X41239057Y2579161D02*
X41162866Y2541065D01*
X41162866Y2541065D02*
X41086676Y2541065D01*
X41086676Y2541065D02*
X41010485Y2579161D01*
X41010485Y2579161D02*
X40972390Y2617256D01*
X40972390Y2617256D02*
X40934295Y2693446D01*
X40934295Y2693446D02*
X40934295Y2883923D01*
X40934295Y2883923D02*
X40972390Y2998208D01*
X41658104Y3798209D02*
X41696200Y3760113D01*
X41696200Y3760113D02*
X41734295Y3645828D01*
X41734295Y3645828D02*
X41734295Y3569637D01*
X41734295Y3569637D02*
X41696200Y3455351D01*
X41696200Y3455351D02*
X41620009Y3379161D01*
X41620009Y3379161D02*
X41543819Y3341066D01*
X41543819Y3341066D02*
X41391438Y3302970D01*
X41391438Y3302970D02*
X41277152Y3302970D01*
X41277152Y3302970D02*
X41124771Y3341066D01*
X41124771Y3341066D02*
X41048580Y3379161D01*
X41048580Y3379161D02*
X40972390Y3455351D01*
X40972390Y3455351D02*
X40934295Y3569637D01*
X40934295Y3569637D02*
X40934295Y3645828D01*
X40934295Y3645828D02*
X40972390Y3760113D01*
X40972390Y3760113D02*
X41010485Y3798209D01*
X41734295Y4141066D02*
X40934295Y4141066D01*
X41734295Y4598209D02*
X41277152Y4255351D01*
X40934295Y4598209D02*
X41391438Y4141066D01*
X44218104Y3876304D02*
X44256200Y3838208D01*
X44256200Y3838208D02*
X44294295Y3723923D01*
X44294295Y3723923D02*
X44294295Y3647732D01*
X44294295Y3647732D02*
X44256200Y3533446D01*
X44256200Y3533446D02*
X44180009Y3457256D01*
X44180009Y3457256D02*
X44103819Y3419161D01*
X44103819Y3419161D02*
X43951438Y3381065D01*
X43951438Y3381065D02*
X43837152Y3381065D01*
X43837152Y3381065D02*
X43684771Y3419161D01*
X43684771Y3419161D02*
X43608580Y3457256D01*
X43608580Y3457256D02*
X43532390Y3533446D01*
X43532390Y3533446D02*
X43494295Y3647732D01*
X43494295Y3647732D02*
X43494295Y3723923D01*
X43494295Y3723923D02*
X43532390Y3838208D01*
X43532390Y3838208D02*
X43570485Y3876304D01*
X44256200Y4181065D02*
X44294295Y4295351D01*
X44294295Y4295351D02*
X44294295Y4485827D01*
X44294295Y4485827D02*
X44256200Y4562018D01*
X44256200Y4562018D02*
X44218104Y4600113D01*
X44218104Y4600113D02*
X44141914Y4638208D01*
X44141914Y4638208D02*
X44065723Y4638208D01*
X44065723Y4638208D02*
X43989533Y4600113D01*
X43989533Y4600113D02*
X43951438Y4562018D01*
X43951438Y4562018D02*
X43913342Y4485827D01*
X43913342Y4485827D02*
X43875247Y4333446D01*
X43875247Y4333446D02*
X43837152Y4257256D01*
X43837152Y4257256D02*
X43799057Y4219161D01*
X43799057Y4219161D02*
X43722866Y4181065D01*
X43722866Y4181065D02*
X43646676Y4181065D01*
X43646676Y4181065D02*
X43570485Y4219161D01*
X43570485Y4219161D02*
X43532390Y4257256D01*
X43532390Y4257256D02*
X43494295Y4333446D01*
X43494295Y4333446D02*
X43494295Y4523923D01*
X43494295Y4523923D02*
X43532390Y4638208D01*
D12*
X49086643Y14234797D02*
X49467596Y14234797D01*
X49010453Y14006225D02*
X49277120Y14806225D01*
X49277120Y14806225D02*
X49543786Y14006225D01*
X49772357Y14044320D02*
X49886643Y14006225D01*
X49886643Y14006225D02*
X50077119Y14006225D01*
X50077119Y14006225D02*
X50153310Y14044320D01*
X50153310Y14044320D02*
X50191405Y14082416D01*
X50191405Y14082416D02*
X50229500Y14158606D01*
X50229500Y14158606D02*
X50229500Y14234797D01*
X50229500Y14234797D02*
X50191405Y14310987D01*
X50191405Y14310987D02*
X50153310Y14349082D01*
X50153310Y14349082D02*
X50077119Y14387178D01*
X50077119Y14387178D02*
X49924738Y14425273D01*
X49924738Y14425273D02*
X49848548Y14463368D01*
X49848548Y14463368D02*
X49810453Y14501463D01*
X49810453Y14501463D02*
X49772357Y14577654D01*
X49772357Y14577654D02*
X49772357Y14653844D01*
X49772357Y14653844D02*
X49810453Y14730035D01*
X49810453Y14730035D02*
X49848548Y14768130D01*
X49848548Y14768130D02*
X49924738Y14806225D01*
X49924738Y14806225D02*
X50115215Y14806225D01*
X50115215Y14806225D02*
X50229500Y14768130D01*
X50915215Y14806225D02*
X50762834Y14806225D01*
X50762834Y14806225D02*
X50686643Y14768130D01*
X50686643Y14768130D02*
X50648548Y14730035D01*
X50648548Y14730035D02*
X50572358Y14615749D01*
X50572358Y14615749D02*
X50534262Y14463368D01*
X50534262Y14463368D02*
X50534262Y14158606D01*
X50534262Y14158606D02*
X50572358Y14082416D01*
X50572358Y14082416D02*
X50610453Y14044320D01*
X50610453Y14044320D02*
X50686643Y14006225D01*
X50686643Y14006225D02*
X50839024Y14006225D01*
X50839024Y14006225D02*
X50915215Y14044320D01*
X50915215Y14044320D02*
X50953310Y14082416D01*
X50953310Y14082416D02*
X50991405Y14158606D01*
X50991405Y14158606D02*
X50991405Y14349082D01*
X50991405Y14349082D02*
X50953310Y14425273D01*
X50953310Y14425273D02*
X50915215Y14463368D01*
X50915215Y14463368D02*
X50839024Y14501463D01*
X50839024Y14501463D02*
X50686643Y14501463D01*
X50686643Y14501463D02*
X50610453Y14463368D01*
X50610453Y14463368D02*
X50572358Y14425273D01*
X50572358Y14425273D02*
X50534262Y14349082D01*
X51791406Y14082416D02*
X51753310Y14044320D01*
X51753310Y14044320D02*
X51639025Y14006225D01*
X51639025Y14006225D02*
X51562834Y14006225D01*
X51562834Y14006225D02*
X51448548Y14044320D01*
X51448548Y14044320D02*
X51372358Y14120511D01*
X51372358Y14120511D02*
X51334263Y14196701D01*
X51334263Y14196701D02*
X51296167Y14349082D01*
X51296167Y14349082D02*
X51296167Y14463368D01*
X51296167Y14463368D02*
X51334263Y14615749D01*
X51334263Y14615749D02*
X51372358Y14691940D01*
X51372358Y14691940D02*
X51448548Y14768130D01*
X51448548Y14768130D02*
X51562834Y14806225D01*
X51562834Y14806225D02*
X51639025Y14806225D01*
X51639025Y14806225D02*
X51753310Y14768130D01*
X51753310Y14768130D02*
X51791406Y14730035D01*
X52477120Y14539559D02*
X52477120Y14006225D01*
X52286644Y14844320D02*
X52096167Y14272892D01*
X52096167Y14272892D02*
X52591406Y14272892D01*
X53048549Y14806225D02*
X53124739Y14806225D01*
X53124739Y14806225D02*
X53200930Y14768130D01*
X53200930Y14768130D02*
X53239025Y14730035D01*
X53239025Y14730035D02*
X53277120Y14653844D01*
X53277120Y14653844D02*
X53315215Y14501463D01*
X53315215Y14501463D02*
X53315215Y14310987D01*
X53315215Y14310987D02*
X53277120Y14158606D01*
X53277120Y14158606D02*
X53239025Y14082416D01*
X53239025Y14082416D02*
X53200930Y14044320D01*
X53200930Y14044320D02*
X53124739Y14006225D01*
X53124739Y14006225D02*
X53048549Y14006225D01*
X53048549Y14006225D02*
X52972358Y14044320D01*
X52972358Y14044320D02*
X52934263Y14082416D01*
X52934263Y14082416D02*
X52896168Y14158606D01*
X52896168Y14158606D02*
X52858072Y14310987D01*
X52858072Y14310987D02*
X52858072Y14501463D01*
X52858072Y14501463D02*
X52896168Y14653844D01*
X52896168Y14653844D02*
X52934263Y14730035D01*
X52934263Y14730035D02*
X52972358Y14768130D01*
X52972358Y14768130D02*
X53048549Y14806225D01*
X53810454Y14806225D02*
X53886644Y14806225D01*
X53886644Y14806225D02*
X53962835Y14768130D01*
X53962835Y14768130D02*
X54000930Y14730035D01*
X54000930Y14730035D02*
X54039025Y14653844D01*
X54039025Y14653844D02*
X54077120Y14501463D01*
X54077120Y14501463D02*
X54077120Y14310987D01*
X54077120Y14310987D02*
X54039025Y14158606D01*
X54039025Y14158606D02*
X54000930Y14082416D01*
X54000930Y14082416D02*
X53962835Y14044320D01*
X53962835Y14044320D02*
X53886644Y14006225D01*
X53886644Y14006225D02*
X53810454Y14006225D01*
X53810454Y14006225D02*
X53734263Y14044320D01*
X53734263Y14044320D02*
X53696168Y14082416D01*
X53696168Y14082416D02*
X53658073Y14158606D01*
X53658073Y14158606D02*
X53619977Y14310987D01*
X53619977Y14310987D02*
X53619977Y14501463D01*
X53619977Y14501463D02*
X53658073Y14653844D01*
X53658073Y14653844D02*
X53696168Y14730035D01*
X53696168Y14730035D02*
X53734263Y14768130D01*
X53734263Y14768130D02*
X53810454Y14806225D01*
X54534263Y14463368D02*
X54458073Y14501463D01*
X54458073Y14501463D02*
X54419978Y14539559D01*
X54419978Y14539559D02*
X54381882Y14615749D01*
X54381882Y14615749D02*
X54381882Y14653844D01*
X54381882Y14653844D02*
X54419978Y14730035D01*
X54419978Y14730035D02*
X54458073Y14768130D01*
X54458073Y14768130D02*
X54534263Y14806225D01*
X54534263Y14806225D02*
X54686644Y14806225D01*
X54686644Y14806225D02*
X54762835Y14768130D01*
X54762835Y14768130D02*
X54800930Y14730035D01*
X54800930Y14730035D02*
X54839025Y14653844D01*
X54839025Y14653844D02*
X54839025Y14615749D01*
X54839025Y14615749D02*
X54800930Y14539559D01*
X54800930Y14539559D02*
X54762835Y14501463D01*
X54762835Y14501463D02*
X54686644Y14463368D01*
X54686644Y14463368D02*
X54534263Y14463368D01*
X54534263Y14463368D02*
X54458073Y14425273D01*
X54458073Y14425273D02*
X54419978Y14387178D01*
X54419978Y14387178D02*
X54381882Y14310987D01*
X54381882Y14310987D02*
X54381882Y14158606D01*
X54381882Y14158606D02*
X54419978Y14082416D01*
X54419978Y14082416D02*
X54458073Y14044320D01*
X54458073Y14044320D02*
X54534263Y14006225D01*
X54534263Y14006225D02*
X54686644Y14006225D01*
X54686644Y14006225D02*
X54762835Y14044320D01*
X54762835Y14044320D02*
X54800930Y14082416D01*
X54800930Y14082416D02*
X54839025Y14158606D01*
X54839025Y14158606D02*
X54839025Y14310987D01*
X54839025Y14310987D02*
X54800930Y14387178D01*
X54800930Y14387178D02*
X54762835Y14425273D01*
X54762835Y14425273D02*
X54686644Y14463368D01*
X55181883Y14310987D02*
X55791407Y14310987D01*
X56553311Y14806225D02*
X56172359Y14806225D01*
X56172359Y14806225D02*
X56134263Y14425273D01*
X56134263Y14425273D02*
X56172359Y14463368D01*
X56172359Y14463368D02*
X56248549Y14501463D01*
X56248549Y14501463D02*
X56439025Y14501463D01*
X56439025Y14501463D02*
X56515216Y14463368D01*
X56515216Y14463368D02*
X56553311Y14425273D01*
X56553311Y14425273D02*
X56591406Y14349082D01*
X56591406Y14349082D02*
X56591406Y14158606D01*
X56591406Y14158606D02*
X56553311Y14082416D01*
X56553311Y14082416D02*
X56515216Y14044320D01*
X56515216Y14044320D02*
X56439025Y14006225D01*
X56439025Y14006225D02*
X56248549Y14006225D01*
X56248549Y14006225D02*
X56172359Y14044320D01*
X56172359Y14044320D02*
X56134263Y14082416D01*
X57315216Y14806225D02*
X56934264Y14806225D01*
X56934264Y14806225D02*
X56896168Y14425273D01*
X56896168Y14425273D02*
X56934264Y14463368D01*
X56934264Y14463368D02*
X57010454Y14501463D01*
X57010454Y14501463D02*
X57200930Y14501463D01*
X57200930Y14501463D02*
X57277121Y14463368D01*
X57277121Y14463368D02*
X57315216Y14425273D01*
X57315216Y14425273D02*
X57353311Y14349082D01*
X57353311Y14349082D02*
X57353311Y14158606D01*
X57353311Y14158606D02*
X57315216Y14082416D01*
X57315216Y14082416D02*
X57277121Y14044320D01*
X57277121Y14044320D02*
X57200930Y14006225D01*
X57200930Y14006225D02*
X57010454Y14006225D01*
X57010454Y14006225D02*
X56934264Y14044320D01*
X56934264Y14044320D02*
X56896168Y14082416D01*
X57696169Y14006225D02*
X57696169Y14806225D01*
X57696169Y14806225D02*
X58000931Y14806225D01*
X58000931Y14806225D02*
X58077121Y14768130D01*
X58077121Y14768130D02*
X58115216Y14730035D01*
X58115216Y14730035D02*
X58153312Y14653844D01*
X58153312Y14653844D02*
X58153312Y14539559D01*
X58153312Y14539559D02*
X58115216Y14463368D01*
X58115216Y14463368D02*
X58077121Y14425273D01*
X58077121Y14425273D02*
X58000931Y14387178D01*
X58000931Y14387178D02*
X57696169Y14387178D01*
X58953312Y14082416D02*
X58915216Y14044320D01*
X58915216Y14044320D02*
X58800931Y14006225D01*
X58800931Y14006225D02*
X58724740Y14006225D01*
X58724740Y14006225D02*
X58610454Y14044320D01*
X58610454Y14044320D02*
X58534264Y14120511D01*
X58534264Y14120511D02*
X58496169Y14196701D01*
X58496169Y14196701D02*
X58458073Y14349082D01*
X58458073Y14349082D02*
X58458073Y14463368D01*
X58458073Y14463368D02*
X58496169Y14615749D01*
X58496169Y14615749D02*
X58534264Y14691940D01*
X58534264Y14691940D02*
X58610454Y14768130D01*
X58610454Y14768130D02*
X58724740Y14806225D01*
X58724740Y14806225D02*
X58800931Y14806225D01*
X58800931Y14806225D02*
X58915216Y14768130D01*
X58915216Y14768130D02*
X58953312Y14730035D01*
X59296169Y14006225D02*
X59296169Y14806225D01*
X59296169Y14806225D02*
X59753312Y14006225D01*
X59753312Y14006225D02*
X59753312Y14806225D01*
D13*
X47011503Y7101105D02*
X47111503Y7901105D01*
X47354360Y7101105D02*
X47406741Y7520153D01*
X47406741Y7520153D02*
X47378169Y7596343D01*
X47378169Y7596343D02*
X47306741Y7634439D01*
X47306741Y7634439D02*
X47192455Y7634439D01*
X47192455Y7634439D02*
X47111503Y7596343D01*
X47111503Y7596343D02*
X47068646Y7558248D01*
X47687694Y7634439D02*
X47992456Y7634439D01*
X47835313Y7901105D02*
X47749599Y7215391D01*
X47749599Y7215391D02*
X47778170Y7139200D01*
X47778170Y7139200D02*
X47849599Y7101105D01*
X47849599Y7101105D02*
X47925789Y7101105D01*
X48144837Y7634439D02*
X48449599Y7634439D01*
X48292456Y7901105D02*
X48206742Y7215391D01*
X48206742Y7215391D02*
X48235313Y7139200D01*
X48235313Y7139200D02*
X48306742Y7101105D01*
X48306742Y7101105D02*
X48382932Y7101105D01*
X48716265Y7634439D02*
X48616265Y6834439D01*
X48711504Y7596343D02*
X48792456Y7634439D01*
X48792456Y7634439D02*
X48944837Y7634439D01*
X48944837Y7634439D02*
X49016265Y7596343D01*
X49016265Y7596343D02*
X49049599Y7558248D01*
X49049599Y7558248D02*
X49078170Y7482058D01*
X49078170Y7482058D02*
X49049599Y7253486D01*
X49049599Y7253486D02*
X49001980Y7177296D01*
X49001980Y7177296D02*
X48959123Y7139200D01*
X48959123Y7139200D02*
X48878170Y7101105D01*
X48878170Y7101105D02*
X48725789Y7101105D01*
X48725789Y7101105D02*
X48654361Y7139200D01*
X49340075Y7139200D02*
X49411504Y7101105D01*
X49411504Y7101105D02*
X49563885Y7101105D01*
X49563885Y7101105D02*
X49644837Y7139200D01*
X49644837Y7139200D02*
X49692456Y7215391D01*
X49692456Y7215391D02*
X49697218Y7253486D01*
X49697218Y7253486D02*
X49668647Y7329677D01*
X49668647Y7329677D02*
X49597218Y7367772D01*
X49597218Y7367772D02*
X49482933Y7367772D01*
X49482933Y7367772D02*
X49411504Y7405867D01*
X49411504Y7405867D02*
X49382933Y7482058D01*
X49382933Y7482058D02*
X49387695Y7520153D01*
X49387695Y7520153D02*
X49435314Y7596343D01*
X49435314Y7596343D02*
X49516266Y7634439D01*
X49516266Y7634439D02*
X49630552Y7634439D01*
X49630552Y7634439D02*
X49701980Y7596343D01*
X50030552Y7177296D02*
X50063885Y7139200D01*
X50063885Y7139200D02*
X50021028Y7101105D01*
X50021028Y7101105D02*
X49987694Y7139200D01*
X49987694Y7139200D02*
X50030552Y7177296D01*
X50030552Y7177296D02*
X50021028Y7101105D01*
X50082933Y7596343D02*
X50116266Y7558248D01*
X50116266Y7558248D02*
X50073409Y7520153D01*
X50073409Y7520153D02*
X50040075Y7558248D01*
X50040075Y7558248D02*
X50082933Y7596343D01*
X50082933Y7596343D02*
X50073409Y7520153D01*
X51078170Y7939200D02*
X50263885Y6910629D01*
X51916265Y7939200D02*
X51101980Y6910629D01*
X52001979Y7101105D02*
X52487694Y7634439D01*
X52068646Y7634439D02*
X52421027Y7101105D01*
X52735313Y7177296D02*
X52768646Y7139200D01*
X52768646Y7139200D02*
X52725789Y7101105D01*
X52725789Y7101105D02*
X52692455Y7139200D01*
X52692455Y7139200D02*
X52735313Y7177296D01*
X52735313Y7177296D02*
X52725789Y7101105D01*
X53454360Y7139200D02*
X53373407Y7101105D01*
X53373407Y7101105D02*
X53221027Y7101105D01*
X53221027Y7101105D02*
X53149598Y7139200D01*
X53149598Y7139200D02*
X53116265Y7177296D01*
X53116265Y7177296D02*
X53087693Y7253486D01*
X53087693Y7253486D02*
X53116265Y7482058D01*
X53116265Y7482058D02*
X53163884Y7558248D01*
X53163884Y7558248D02*
X53206741Y7596343D01*
X53206741Y7596343D02*
X53287693Y7634439D01*
X53287693Y7634439D02*
X53440074Y7634439D01*
X53440074Y7634439D02*
X53511503Y7596343D01*
X53906741Y7101105D02*
X53835312Y7139200D01*
X53835312Y7139200D02*
X53801979Y7177296D01*
X53801979Y7177296D02*
X53773407Y7253486D01*
X53773407Y7253486D02*
X53801979Y7482058D01*
X53801979Y7482058D02*
X53849598Y7558248D01*
X53849598Y7558248D02*
X53892455Y7596343D01*
X53892455Y7596343D02*
X53973407Y7634439D01*
X53973407Y7634439D02*
X54087693Y7634439D01*
X54087693Y7634439D02*
X54159121Y7596343D01*
X54159121Y7596343D02*
X54192455Y7558248D01*
X54192455Y7558248D02*
X54221026Y7482058D01*
X54221026Y7482058D02*
X54192455Y7253486D01*
X54192455Y7253486D02*
X54144836Y7177296D01*
X54144836Y7177296D02*
X54101979Y7139200D01*
X54101979Y7139200D02*
X54021026Y7101105D01*
X54021026Y7101105D02*
X53906741Y7101105D01*
X54516265Y7101105D02*
X54582931Y7634439D01*
X54573408Y7558248D02*
X54616265Y7596343D01*
X54616265Y7596343D02*
X54697217Y7634439D01*
X54697217Y7634439D02*
X54811503Y7634439D01*
X54811503Y7634439D02*
X54882931Y7596343D01*
X54882931Y7596343D02*
X54911503Y7520153D01*
X54911503Y7520153D02*
X54859122Y7101105D01*
X54911503Y7520153D02*
X54959122Y7596343D01*
X54959122Y7596343D02*
X55040074Y7634439D01*
X55040074Y7634439D02*
X55154360Y7634439D01*
X55154360Y7634439D02*
X55225789Y7596343D01*
X55225789Y7596343D02*
X55254360Y7520153D01*
X55254360Y7520153D02*
X55201979Y7101105D01*
X56259122Y7939200D02*
X55444837Y6910629D01*
X56763884Y7101105D02*
X56816265Y7520153D01*
X56816265Y7520153D02*
X56787693Y7596343D01*
X56787693Y7596343D02*
X56716265Y7634439D01*
X56716265Y7634439D02*
X56563884Y7634439D01*
X56563884Y7634439D02*
X56482932Y7596343D01*
X56768646Y7139200D02*
X56687693Y7101105D01*
X56687693Y7101105D02*
X56497217Y7101105D01*
X56497217Y7101105D02*
X56425789Y7139200D01*
X56425789Y7139200D02*
X56397217Y7215391D01*
X56397217Y7215391D02*
X56406741Y7291581D01*
X56406741Y7291581D02*
X56454360Y7367772D01*
X56454360Y7367772D02*
X56535313Y7405867D01*
X56535313Y7405867D02*
X56725789Y7405867D01*
X56725789Y7405867D02*
X56806741Y7443962D01*
X57144837Y7101105D02*
X57244837Y7901105D01*
X57259123Y7405867D02*
X57449599Y7101105D01*
X57516265Y7634439D02*
X57173408Y7329677D01*
X57792456Y7101105D02*
X57859122Y7634439D01*
X57892456Y7901105D02*
X57849599Y7863010D01*
X57849599Y7863010D02*
X57882932Y7824915D01*
X57882932Y7824915D02*
X57925789Y7863010D01*
X57925789Y7863010D02*
X57892456Y7901105D01*
X57892456Y7901105D02*
X57882932Y7824915D01*
X58173408Y7101105D02*
X58273408Y7901105D01*
X58516265Y7101105D02*
X58568646Y7520153D01*
X58568646Y7520153D02*
X58540074Y7596343D01*
X58540074Y7596343D02*
X58468646Y7634439D01*
X58468646Y7634439D02*
X58354360Y7634439D01*
X58354360Y7634439D02*
X58273408Y7596343D01*
X58273408Y7596343D02*
X58230551Y7558248D01*
X58697218Y7024915D02*
X59306742Y7024915D01*
X59473408Y7139200D02*
X59544837Y7101105D01*
X59544837Y7101105D02*
X59697218Y7101105D01*
X59697218Y7101105D02*
X59778170Y7139200D01*
X59778170Y7139200D02*
X59825789Y7215391D01*
X59825789Y7215391D02*
X59830551Y7253486D01*
X59830551Y7253486D02*
X59801980Y7329677D01*
X59801980Y7329677D02*
X59730551Y7367772D01*
X59730551Y7367772D02*
X59616266Y7367772D01*
X59616266Y7367772D02*
X59544837Y7405867D01*
X59544837Y7405867D02*
X59516266Y7482058D01*
X59516266Y7482058D02*
X59521028Y7520153D01*
X59521028Y7520153D02*
X59568647Y7596343D01*
X59568647Y7596343D02*
X59649599Y7634439D01*
X59649599Y7634439D02*
X59763885Y7634439D01*
X59763885Y7634439D02*
X59835313Y7596343D01*
X60497218Y7101105D02*
X60549599Y7520153D01*
X60549599Y7520153D02*
X60521027Y7596343D01*
X60521027Y7596343D02*
X60449599Y7634439D01*
X60449599Y7634439D02*
X60297218Y7634439D01*
X60297218Y7634439D02*
X60216266Y7596343D01*
X60501980Y7139200D02*
X60421027Y7101105D01*
X60421027Y7101105D02*
X60230551Y7101105D01*
X60230551Y7101105D02*
X60159123Y7139200D01*
X60159123Y7139200D02*
X60130551Y7215391D01*
X60130551Y7215391D02*
X60140075Y7291581D01*
X60140075Y7291581D02*
X60187694Y7367772D01*
X60187694Y7367772D02*
X60268647Y7405867D01*
X60268647Y7405867D02*
X60459123Y7405867D01*
X60459123Y7405867D02*
X60540075Y7443962D01*
X60944837Y7634439D02*
X60878171Y7101105D01*
X60935314Y7558248D02*
X60978171Y7596343D01*
X60978171Y7596343D02*
X61059123Y7634439D01*
X61059123Y7634439D02*
X61173409Y7634439D01*
X61173409Y7634439D02*
X61244837Y7596343D01*
X61244837Y7596343D02*
X61273409Y7520153D01*
X61273409Y7520153D02*
X61221028Y7101105D01*
X47011503Y5813105D02*
X47111503Y6613105D01*
X47354360Y5813105D02*
X47406741Y6232153D01*
X47406741Y6232153D02*
X47378169Y6308343D01*
X47378169Y6308343D02*
X47306741Y6346439D01*
X47306741Y6346439D02*
X47192455Y6346439D01*
X47192455Y6346439D02*
X47111503Y6308343D01*
X47111503Y6308343D02*
X47068646Y6270248D01*
X47687694Y6346439D02*
X47992456Y6346439D01*
X47835313Y6613105D02*
X47749599Y5927391D01*
X47749599Y5927391D02*
X47778170Y5851200D01*
X47778170Y5851200D02*
X47849599Y5813105D01*
X47849599Y5813105D02*
X47925789Y5813105D01*
X48144837Y6346439D02*
X48449599Y6346439D01*
X48292456Y6613105D02*
X48206742Y5927391D01*
X48206742Y5927391D02*
X48235313Y5851200D01*
X48235313Y5851200D02*
X48306742Y5813105D01*
X48306742Y5813105D02*
X48382932Y5813105D01*
X48716265Y6346439D02*
X48616265Y5546439D01*
X48711504Y6308343D02*
X48792456Y6346439D01*
X48792456Y6346439D02*
X48944837Y6346439D01*
X48944837Y6346439D02*
X49016265Y6308343D01*
X49016265Y6308343D02*
X49049599Y6270248D01*
X49049599Y6270248D02*
X49078170Y6194058D01*
X49078170Y6194058D02*
X49049599Y5965486D01*
X49049599Y5965486D02*
X49001980Y5889296D01*
X49001980Y5889296D02*
X48959123Y5851200D01*
X48959123Y5851200D02*
X48878170Y5813105D01*
X48878170Y5813105D02*
X48725789Y5813105D01*
X48725789Y5813105D02*
X48654361Y5851200D01*
X49340075Y5851200D02*
X49411504Y5813105D01*
X49411504Y5813105D02*
X49563885Y5813105D01*
X49563885Y5813105D02*
X49644837Y5851200D01*
X49644837Y5851200D02*
X49692456Y5927391D01*
X49692456Y5927391D02*
X49697218Y5965486D01*
X49697218Y5965486D02*
X49668647Y6041677D01*
X49668647Y6041677D02*
X49597218Y6079772D01*
X49597218Y6079772D02*
X49482933Y6079772D01*
X49482933Y6079772D02*
X49411504Y6117867D01*
X49411504Y6117867D02*
X49382933Y6194058D01*
X49382933Y6194058D02*
X49387695Y6232153D01*
X49387695Y6232153D02*
X49435314Y6308343D01*
X49435314Y6308343D02*
X49516266Y6346439D01*
X49516266Y6346439D02*
X49630552Y6346439D01*
X49630552Y6346439D02*
X49701980Y6308343D01*
X50030552Y5889296D02*
X50063885Y5851200D01*
X50063885Y5851200D02*
X50021028Y5813105D01*
X50021028Y5813105D02*
X49987694Y5851200D01*
X49987694Y5851200D02*
X50030552Y5889296D01*
X50030552Y5889296D02*
X50021028Y5813105D01*
X50082933Y6308343D02*
X50116266Y6270248D01*
X50116266Y6270248D02*
X50073409Y6232153D01*
X50073409Y6232153D02*
X50040075Y6270248D01*
X50040075Y6270248D02*
X50082933Y6308343D01*
X50082933Y6308343D02*
X50073409Y6232153D01*
X51078170Y6651200D02*
X50263885Y5622629D01*
X51916265Y6651200D02*
X51101980Y5622629D01*
X52487694Y6346439D02*
X52406741Y5698820D01*
X52406741Y5698820D02*
X52359122Y5622629D01*
X52359122Y5622629D02*
X52316265Y5584534D01*
X52316265Y5584534D02*
X52235313Y5546439D01*
X52235313Y5546439D02*
X52121027Y5546439D01*
X52121027Y5546439D02*
X52049598Y5584534D01*
X52425789Y5851200D02*
X52344836Y5813105D01*
X52344836Y5813105D02*
X52192456Y5813105D01*
X52192456Y5813105D02*
X52121027Y5851200D01*
X52121027Y5851200D02*
X52087694Y5889296D01*
X52087694Y5889296D02*
X52059122Y5965486D01*
X52059122Y5965486D02*
X52087694Y6194058D01*
X52087694Y6194058D02*
X52135313Y6270248D01*
X52135313Y6270248D02*
X52178170Y6308343D01*
X52178170Y6308343D02*
X52259122Y6346439D01*
X52259122Y6346439D02*
X52411503Y6346439D01*
X52411503Y6346439D02*
X52482932Y6308343D01*
X52801980Y5813105D02*
X52868646Y6346439D01*
X52901980Y6613105D02*
X52859123Y6575010D01*
X52859123Y6575010D02*
X52892456Y6536915D01*
X52892456Y6536915D02*
X52935313Y6575010D01*
X52935313Y6575010D02*
X52901980Y6613105D01*
X52901980Y6613105D02*
X52892456Y6536915D01*
X53135313Y6346439D02*
X53440075Y6346439D01*
X53282932Y6613105D02*
X53197218Y5927391D01*
X53197218Y5927391D02*
X53225789Y5851200D01*
X53225789Y5851200D02*
X53297218Y5813105D01*
X53297218Y5813105D02*
X53373408Y5813105D01*
X53640075Y5813105D02*
X53740075Y6613105D01*
X53982932Y5813105D02*
X54035313Y6232153D01*
X54035313Y6232153D02*
X54006741Y6308343D01*
X54006741Y6308343D02*
X53935313Y6346439D01*
X53935313Y6346439D02*
X53821027Y6346439D01*
X53821027Y6346439D02*
X53740075Y6308343D01*
X53740075Y6308343D02*
X53697218Y6270248D01*
X54773409Y6346439D02*
X54706742Y5813105D01*
X54430551Y6346439D02*
X54378171Y5927391D01*
X54378171Y5927391D02*
X54406742Y5851200D01*
X54406742Y5851200D02*
X54478171Y5813105D01*
X54478171Y5813105D02*
X54592456Y5813105D01*
X54592456Y5813105D02*
X54673409Y5851200D01*
X54673409Y5851200D02*
X54716266Y5889296D01*
X55087695Y5813105D02*
X55187695Y6613105D01*
X55149600Y6308343D02*
X55230552Y6346439D01*
X55230552Y6346439D02*
X55382933Y6346439D01*
X55382933Y6346439D02*
X55454361Y6308343D01*
X55454361Y6308343D02*
X55487695Y6270248D01*
X55487695Y6270248D02*
X55516266Y6194058D01*
X55516266Y6194058D02*
X55487695Y5965486D01*
X55487695Y5965486D02*
X55440076Y5889296D01*
X55440076Y5889296D02*
X55397219Y5851200D01*
X55397219Y5851200D02*
X55316266Y5813105D01*
X55316266Y5813105D02*
X55163885Y5813105D01*
X55163885Y5813105D02*
X55092457Y5851200D01*
X55821029Y5889296D02*
X55854362Y5851200D01*
X55854362Y5851200D02*
X55811505Y5813105D01*
X55811505Y5813105D02*
X55778171Y5851200D01*
X55778171Y5851200D02*
X55821029Y5889296D01*
X55821029Y5889296D02*
X55811505Y5813105D01*
X56540076Y5851200D02*
X56459123Y5813105D01*
X56459123Y5813105D02*
X56306743Y5813105D01*
X56306743Y5813105D02*
X56235314Y5851200D01*
X56235314Y5851200D02*
X56201981Y5889296D01*
X56201981Y5889296D02*
X56173409Y5965486D01*
X56173409Y5965486D02*
X56201981Y6194058D01*
X56201981Y6194058D02*
X56249600Y6270248D01*
X56249600Y6270248D02*
X56292457Y6308343D01*
X56292457Y6308343D02*
X56373409Y6346439D01*
X56373409Y6346439D02*
X56525790Y6346439D01*
X56525790Y6346439D02*
X56597219Y6308343D01*
X56992457Y5813105D02*
X56921028Y5851200D01*
X56921028Y5851200D02*
X56887695Y5889296D01*
X56887695Y5889296D02*
X56859123Y5965486D01*
X56859123Y5965486D02*
X56887695Y6194058D01*
X56887695Y6194058D02*
X56935314Y6270248D01*
X56935314Y6270248D02*
X56978171Y6308343D01*
X56978171Y6308343D02*
X57059123Y6346439D01*
X57059123Y6346439D02*
X57173409Y6346439D01*
X57173409Y6346439D02*
X57244837Y6308343D01*
X57244837Y6308343D02*
X57278171Y6270248D01*
X57278171Y6270248D02*
X57306742Y6194058D01*
X57306742Y6194058D02*
X57278171Y5965486D01*
X57278171Y5965486D02*
X57230552Y5889296D01*
X57230552Y5889296D02*
X57187695Y5851200D01*
X57187695Y5851200D02*
X57106742Y5813105D01*
X57106742Y5813105D02*
X56992457Y5813105D01*
X57601981Y5813105D02*
X57668647Y6346439D01*
X57659124Y6270248D02*
X57701981Y6308343D01*
X57701981Y6308343D02*
X57782933Y6346439D01*
X57782933Y6346439D02*
X57897219Y6346439D01*
X57897219Y6346439D02*
X57968647Y6308343D01*
X57968647Y6308343D02*
X57997219Y6232153D01*
X57997219Y6232153D02*
X57944838Y5813105D01*
X57997219Y6232153D02*
X58044838Y6308343D01*
X58044838Y6308343D02*
X58125790Y6346439D01*
X58125790Y6346439D02*
X58240076Y6346439D01*
X58240076Y6346439D02*
X58311505Y6308343D01*
X58311505Y6308343D02*
X58340076Y6232153D01*
X58340076Y6232153D02*
X58287695Y5813105D01*
X59344838Y6651200D02*
X58530553Y5622629D01*
X59849600Y5813105D02*
X59901981Y6232153D01*
X59901981Y6232153D02*
X59873409Y6308343D01*
X59873409Y6308343D02*
X59801981Y6346439D01*
X59801981Y6346439D02*
X59649600Y6346439D01*
X59649600Y6346439D02*
X59568648Y6308343D01*
X59854362Y5851200D02*
X59773409Y5813105D01*
X59773409Y5813105D02*
X59582933Y5813105D01*
X59582933Y5813105D02*
X59511505Y5851200D01*
X59511505Y5851200D02*
X59482933Y5927391D01*
X59482933Y5927391D02*
X59492457Y6003581D01*
X59492457Y6003581D02*
X59540076Y6079772D01*
X59540076Y6079772D02*
X59621029Y6117867D01*
X59621029Y6117867D02*
X59811505Y6117867D01*
X59811505Y6117867D02*
X59892457Y6155962D01*
X60230553Y5813105D02*
X60330553Y6613105D01*
X60344839Y6117867D02*
X60535315Y5813105D01*
X60601981Y6346439D02*
X60259124Y6041677D01*
X60878172Y5813105D02*
X60944838Y6346439D01*
X60978172Y6613105D02*
X60935315Y6575010D01*
X60935315Y6575010D02*
X60968648Y6536915D01*
X60968648Y6536915D02*
X61011505Y6575010D01*
X61011505Y6575010D02*
X60978172Y6613105D01*
X60978172Y6613105D02*
X60968648Y6536915D01*
X61259124Y5813105D02*
X61359124Y6613105D01*
X61601981Y5813105D02*
X61654362Y6232153D01*
X61654362Y6232153D02*
X61625790Y6308343D01*
X61625790Y6308343D02*
X61554362Y6346439D01*
X61554362Y6346439D02*
X61440076Y6346439D01*
X61440076Y6346439D02*
X61359124Y6308343D01*
X61359124Y6308343D02*
X61316267Y6270248D01*
X62021029Y6117867D02*
X62630553Y6117867D01*
X62940076Y5851200D02*
X63011505Y5813105D01*
X63011505Y5813105D02*
X63163886Y5813105D01*
X63163886Y5813105D02*
X63244838Y5851200D01*
X63244838Y5851200D02*
X63292457Y5927391D01*
X63292457Y5927391D02*
X63297219Y5965486D01*
X63297219Y5965486D02*
X63268648Y6041677D01*
X63268648Y6041677D02*
X63197219Y6079772D01*
X63197219Y6079772D02*
X63082934Y6079772D01*
X63082934Y6079772D02*
X63011505Y6117867D01*
X63011505Y6117867D02*
X62982934Y6194058D01*
X62982934Y6194058D02*
X62987696Y6232153D01*
X62987696Y6232153D02*
X63035315Y6308343D01*
X63035315Y6308343D02*
X63116267Y6346439D01*
X63116267Y6346439D02*
X63230553Y6346439D01*
X63230553Y6346439D02*
X63301981Y6308343D01*
X63963886Y5813105D02*
X64016267Y6232153D01*
X64016267Y6232153D02*
X63987695Y6308343D01*
X63987695Y6308343D02*
X63916267Y6346439D01*
X63916267Y6346439D02*
X63763886Y6346439D01*
X63763886Y6346439D02*
X63682934Y6308343D01*
X63968648Y5851200D02*
X63887695Y5813105D01*
X63887695Y5813105D02*
X63697219Y5813105D01*
X63697219Y5813105D02*
X63625791Y5851200D01*
X63625791Y5851200D02*
X63597219Y5927391D01*
X63597219Y5927391D02*
X63606743Y6003581D01*
X63606743Y6003581D02*
X63654362Y6079772D01*
X63654362Y6079772D02*
X63735315Y6117867D01*
X63735315Y6117867D02*
X63925791Y6117867D01*
X63925791Y6117867D02*
X64006743Y6155962D01*
X64411505Y6346439D02*
X64344839Y5813105D01*
X64401982Y6270248D02*
X64444839Y6308343D01*
X64444839Y6308343D02*
X64525791Y6346439D01*
X64525791Y6346439D02*
X64640077Y6346439D01*
X64640077Y6346439D02*
X64711505Y6308343D01*
X64711505Y6308343D02*
X64740077Y6232153D01*
X64740077Y6232153D02*
X64687696Y5813105D01*
D14*
X48481760Y3432691D02*
X48815093Y3432691D01*
X48892474Y2908881D02*
X48416283Y2908881D01*
X48416283Y2908881D02*
X48541283Y3908881D01*
X48541283Y3908881D02*
X49017474Y3908881D01*
X49321045Y2908881D02*
X49446045Y3908881D01*
X49446045Y3908881D02*
X49690093Y3194596D01*
X49690093Y3194596D02*
X50112712Y3908881D01*
X50112712Y3908881D02*
X49987712Y2908881D01*
X50588902Y3908881D02*
X50487712Y3099358D01*
X50487712Y3099358D02*
X50523426Y3004120D01*
X50523426Y3004120D02*
X50565093Y2956500D01*
X50565093Y2956500D02*
X50654379Y2908881D01*
X50654379Y2908881D02*
X50844855Y2908881D01*
X50844855Y2908881D02*
X50946045Y2956500D01*
X50946045Y2956500D02*
X50999617Y3004120D01*
X50999617Y3004120D02*
X51059140Y3099358D01*
X51059140Y3099358D02*
X51160331Y3908881D01*
X51541283Y3908881D02*
X52207950Y3908881D01*
X52207950Y3908881D02*
X51416283Y2908881D01*
X51416283Y2908881D02*
X52082950Y2908881D01*
X52678188Y3480310D02*
X52588902Y3527929D01*
X52588902Y3527929D02*
X52547236Y3575548D01*
X52547236Y3575548D02*
X52511521Y3670786D01*
X52511521Y3670786D02*
X52517474Y3718405D01*
X52517474Y3718405D02*
X52576998Y3813643D01*
X52576998Y3813643D02*
X52630569Y3861262D01*
X52630569Y3861262D02*
X52731760Y3908881D01*
X52731760Y3908881D02*
X52922236Y3908881D01*
X52922236Y3908881D02*
X53011521Y3861262D01*
X53011521Y3861262D02*
X53053188Y3813643D01*
X53053188Y3813643D02*
X53088902Y3718405D01*
X53088902Y3718405D02*
X53082950Y3670786D01*
X53082950Y3670786D02*
X53023426Y3575548D01*
X53023426Y3575548D02*
X52969855Y3527929D01*
X52969855Y3527929D02*
X52868664Y3480310D01*
X52868664Y3480310D02*
X52678188Y3480310D01*
X52678188Y3480310D02*
X52576998Y3432691D01*
X52576998Y3432691D02*
X52523426Y3385072D01*
X52523426Y3385072D02*
X52463902Y3289834D01*
X52463902Y3289834D02*
X52440093Y3099358D01*
X52440093Y3099358D02*
X52475807Y3004120D01*
X52475807Y3004120D02*
X52517474Y2956500D01*
X52517474Y2956500D02*
X52606760Y2908881D01*
X52606760Y2908881D02*
X52797236Y2908881D01*
X52797236Y2908881D02*
X52898426Y2956500D01*
X52898426Y2956500D02*
X52951998Y3004120D01*
X52951998Y3004120D02*
X53011521Y3099358D01*
X53011521Y3099358D02*
X53035331Y3289834D01*
X53035331Y3289834D02*
X52999617Y3385072D01*
X52999617Y3385072D02*
X52957950Y3432691D01*
X52957950Y3432691D02*
X52868664Y3480310D01*
X53731760Y3908881D02*
X53826998Y3908881D01*
X53826998Y3908881D02*
X53916283Y3861262D01*
X53916283Y3861262D02*
X53957950Y3813643D01*
X53957950Y3813643D02*
X53993664Y3718405D01*
X53993664Y3718405D02*
X54017474Y3527929D01*
X54017474Y3527929D02*
X53987712Y3289834D01*
X53987712Y3289834D02*
X53916283Y3099358D01*
X53916283Y3099358D02*
X53856760Y3004120D01*
X53856760Y3004120D02*
X53803188Y2956500D01*
X53803188Y2956500D02*
X53701998Y2908881D01*
X53701998Y2908881D02*
X53606760Y2908881D01*
X53606760Y2908881D02*
X53517474Y2956500D01*
X53517474Y2956500D02*
X53475807Y3004120D01*
X53475807Y3004120D02*
X53440093Y3099358D01*
X53440093Y3099358D02*
X53416283Y3289834D01*
X53416283Y3289834D02*
X53446045Y3527929D01*
X53446045Y3527929D02*
X53517474Y3718405D01*
X53517474Y3718405D02*
X53576998Y3813643D01*
X53576998Y3813643D02*
X53630569Y3861262D01*
X53630569Y3861262D02*
X53731760Y3908881D01*
X55118665Y3194596D02*
X55594855Y3194596D01*
X54987712Y2908881D02*
X55446046Y3908881D01*
X55446046Y3908881D02*
X55654379Y2908881D01*
X55987712Y2908881D02*
X56112712Y3908881D01*
X56112712Y3908881D02*
X56350808Y3908881D01*
X56350808Y3908881D02*
X56487712Y3861262D01*
X56487712Y3861262D02*
X56571046Y3766024D01*
X56571046Y3766024D02*
X56606760Y3670786D01*
X56606760Y3670786D02*
X56630570Y3480310D01*
X56630570Y3480310D02*
X56612712Y3337453D01*
X56612712Y3337453D02*
X56541284Y3146977D01*
X56541284Y3146977D02*
X56481760Y3051739D01*
X56481760Y3051739D02*
X56374617Y2956500D01*
X56374617Y2956500D02*
X56225808Y2908881D01*
X56225808Y2908881D02*
X55987712Y2908881D01*
X56987712Y2908881D02*
X57112712Y3908881D01*
X57112712Y3908881D02*
X57350808Y3908881D01*
X57350808Y3908881D02*
X57487712Y3861262D01*
X57487712Y3861262D02*
X57571046Y3766024D01*
X57571046Y3766024D02*
X57606760Y3670786D01*
X57606760Y3670786D02*
X57630570Y3480310D01*
X57630570Y3480310D02*
X57612712Y3337453D01*
X57612712Y3337453D02*
X57541284Y3146977D01*
X57541284Y3146977D02*
X57481760Y3051739D01*
X57481760Y3051739D02*
X57374617Y2956500D01*
X57374617Y2956500D02*
X57225808Y2908881D01*
X57225808Y2908881D02*
X56987712Y2908881D01*
X58035331Y3289834D02*
X58797236Y3289834D01*
X59368665Y2908881D02*
X59279379Y2956500D01*
X59279379Y2956500D02*
X59237712Y3004120D01*
X59237712Y3004120D02*
X59201998Y3099358D01*
X59201998Y3099358D02*
X59237712Y3385072D01*
X59237712Y3385072D02*
X59297236Y3480310D01*
X59297236Y3480310D02*
X59350807Y3527929D01*
X59350807Y3527929D02*
X59451998Y3575548D01*
X59451998Y3575548D02*
X59594855Y3575548D01*
X59594855Y3575548D02*
X59684141Y3527929D01*
X59684141Y3527929D02*
X59725807Y3480310D01*
X59725807Y3480310D02*
X59761522Y3385072D01*
X59761522Y3385072D02*
X59725807Y3099358D01*
X59725807Y3099358D02*
X59666284Y3004120D01*
X59666284Y3004120D02*
X59612712Y2956500D01*
X59612712Y2956500D02*
X59511522Y2908881D01*
X59511522Y2908881D02*
X59368665Y2908881D01*
X60213903Y3575548D02*
X60130569Y2908881D01*
X60201998Y3480310D02*
X60255569Y3527929D01*
X60255569Y3527929D02*
X60356760Y3575548D01*
X60356760Y3575548D02*
X60499617Y3575548D01*
X60499617Y3575548D02*
X60588903Y3527929D01*
X60588903Y3527929D02*
X60624617Y3432691D01*
X60624617Y3432691D02*
X60559141Y2908881D01*
X62380570Y3004120D02*
X62326998Y2956500D01*
X62326998Y2956500D02*
X62178189Y2908881D01*
X62178189Y2908881D02*
X62082951Y2908881D01*
X62082951Y2908881D02*
X61946046Y2956500D01*
X61946046Y2956500D02*
X61862713Y3051739D01*
X61862713Y3051739D02*
X61826998Y3146977D01*
X61826998Y3146977D02*
X61803189Y3337453D01*
X61803189Y3337453D02*
X61821046Y3480310D01*
X61821046Y3480310D02*
X61892474Y3670786D01*
X61892474Y3670786D02*
X61951998Y3766024D01*
X61951998Y3766024D02*
X62059141Y3861262D01*
X62059141Y3861262D02*
X62207951Y3908881D01*
X62207951Y3908881D02*
X62303189Y3908881D01*
X62303189Y3908881D02*
X62440094Y3861262D01*
X62440094Y3861262D02*
X62481760Y3813643D01*
X63225808Y2908881D02*
X63291284Y3432691D01*
X63291284Y3432691D02*
X63255570Y3527929D01*
X63255570Y3527929D02*
X63166284Y3575548D01*
X63166284Y3575548D02*
X62975808Y3575548D01*
X62975808Y3575548D02*
X62874617Y3527929D01*
X63231760Y2956500D02*
X63130570Y2908881D01*
X63130570Y2908881D02*
X62892474Y2908881D01*
X62892474Y2908881D02*
X62803189Y2956500D01*
X62803189Y2956500D02*
X62767474Y3051739D01*
X62767474Y3051739D02*
X62779379Y3146977D01*
X62779379Y3146977D02*
X62838903Y3242215D01*
X62838903Y3242215D02*
X62940094Y3289834D01*
X62940094Y3289834D02*
X63178189Y3289834D01*
X63178189Y3289834D02*
X63279379Y3337453D01*
X63701998Y2908881D02*
X63785332Y3575548D01*
X63761522Y3385072D02*
X63821046Y3480310D01*
X63821046Y3480310D02*
X63874617Y3527929D01*
X63874617Y3527929D02*
X63975808Y3575548D01*
X63975808Y3575548D02*
X64071046Y3575548D01*
X64749618Y2908881D02*
X64874618Y3908881D01*
X64755570Y2956500D02*
X64654380Y2908881D01*
X64654380Y2908881D02*
X64463904Y2908881D01*
X64463904Y2908881D02*
X64374618Y2956500D01*
X64374618Y2956500D02*
X64332951Y3004120D01*
X64332951Y3004120D02*
X64297237Y3099358D01*
X64297237Y3099358D02*
X64332951Y3385072D01*
X64332951Y3385072D02*
X64392475Y3480310D01*
X64392475Y3480310D02*
X64446046Y3527929D01*
X64446046Y3527929D02*
X64547237Y3575548D01*
X64547237Y3575548D02*
X64737713Y3575548D01*
X64737713Y3575548D02*
X64826999Y3527929D01*
X47654378Y1298881D02*
X47779378Y2298881D01*
X47779378Y2298881D02*
X48023426Y1584596D01*
X48023426Y1584596D02*
X48446045Y2298881D01*
X48446045Y2298881D02*
X48321045Y1298881D01*
X48862712Y1822691D02*
X49196045Y1822691D01*
X49273426Y1298881D02*
X48797235Y1298881D01*
X48797235Y1298881D02*
X48922235Y2298881D01*
X48922235Y2298881D02*
X49398426Y2298881D01*
X49731759Y2298881D02*
X50398426Y2298881D01*
X50398426Y2298881D02*
X49606759Y1298881D01*
X49606759Y1298881D02*
X50273426Y1298881D01*
X50684140Y2298881D02*
X50797236Y1298881D01*
X50797236Y1298881D02*
X51076997Y2013167D01*
X51076997Y2013167D02*
X51178188Y1298881D01*
X51178188Y1298881D02*
X51541283Y2298881D01*
X52350807Y2298881D02*
X52160331Y2298881D01*
X52160331Y2298881D02*
X52059140Y2251262D01*
X52059140Y2251262D02*
X52005569Y2203643D01*
X52005569Y2203643D02*
X51892473Y2060786D01*
X51892473Y2060786D02*
X51821045Y1870310D01*
X51821045Y1870310D02*
X51773426Y1489358D01*
X51773426Y1489358D02*
X51809140Y1394120D01*
X51809140Y1394120D02*
X51850807Y1346500D01*
X51850807Y1346500D02*
X51940093Y1298881D01*
X51940093Y1298881D02*
X52130569Y1298881D01*
X52130569Y1298881D02*
X52231759Y1346500D01*
X52231759Y1346500D02*
X52285331Y1394120D01*
X52285331Y1394120D02*
X52344854Y1489358D01*
X52344854Y1489358D02*
X52374616Y1727453D01*
X52374616Y1727453D02*
X52338902Y1822691D01*
X52338902Y1822691D02*
X52297235Y1870310D01*
X52297235Y1870310D02*
X52207950Y1917929D01*
X52207950Y1917929D02*
X52017473Y1917929D01*
X52017473Y1917929D02*
X51916283Y1870310D01*
X51916283Y1870310D02*
X51862712Y1822691D01*
X51862712Y1822691D02*
X51803188Y1727453D01*
X53350807Y2298881D02*
X52874616Y2298881D01*
X52874616Y2298881D02*
X52767474Y1822691D01*
X52767474Y1822691D02*
X52821045Y1870310D01*
X52821045Y1870310D02*
X52922235Y1917929D01*
X52922235Y1917929D02*
X53160331Y1917929D01*
X53160331Y1917929D02*
X53249616Y1870310D01*
X53249616Y1870310D02*
X53291283Y1822691D01*
X53291283Y1822691D02*
X53326997Y1727453D01*
X53326997Y1727453D02*
X53297235Y1489358D01*
X53297235Y1489358D02*
X53237712Y1394120D01*
X53237712Y1394120D02*
X53184140Y1346500D01*
X53184140Y1346500D02*
X53082950Y1298881D01*
X53082950Y1298881D02*
X52844854Y1298881D01*
X52844854Y1298881D02*
X52755569Y1346500D01*
X52755569Y1346500D02*
X52713902Y1394120D01*
X54285331Y1394120D02*
X54231759Y1346500D01*
X54231759Y1346500D02*
X54082950Y1298881D01*
X54082950Y1298881D02*
X53987712Y1298881D01*
X53987712Y1298881D02*
X53850807Y1346500D01*
X53850807Y1346500D02*
X53767474Y1441739D01*
X53767474Y1441739D02*
X53731759Y1536977D01*
X53731759Y1536977D02*
X53707950Y1727453D01*
X53707950Y1727453D02*
X53725807Y1870310D01*
X53725807Y1870310D02*
X53797235Y2060786D01*
X53797235Y2060786D02*
X53856759Y2156024D01*
X53856759Y2156024D02*
X53963902Y2251262D01*
X53963902Y2251262D02*
X54112712Y2298881D01*
X54112712Y2298881D02*
X54207950Y2298881D01*
X54207950Y2298881D02*
X54344855Y2251262D01*
X54344855Y2251262D02*
X54386521Y2203643D01*
X54451997Y1203643D02*
X55213902Y1203643D01*
X56035331Y1298881D02*
X55761521Y1775072D01*
X55463902Y1298881D02*
X55588902Y2298881D01*
X55588902Y2298881D02*
X55969855Y2298881D01*
X55969855Y2298881D02*
X56059140Y2251262D01*
X56059140Y2251262D02*
X56100807Y2203643D01*
X56100807Y2203643D02*
X56136521Y2108405D01*
X56136521Y2108405D02*
X56118664Y1965548D01*
X56118664Y1965548D02*
X56059140Y1870310D01*
X56059140Y1870310D02*
X56005569Y1822691D01*
X56005569Y1822691D02*
X55904379Y1775072D01*
X55904379Y1775072D02*
X55523426Y1775072D01*
X56451998Y1584596D02*
X56928188Y1584596D01*
X56321045Y1298881D02*
X56779379Y2298881D01*
X56779379Y2298881D02*
X56987712Y1298881D01*
X57321045Y1298881D02*
X57446045Y2298881D01*
X57446045Y2298881D02*
X57690093Y1584596D01*
X57690093Y1584596D02*
X58112712Y2298881D01*
X58112712Y2298881D02*
X57987712Y1298881D01*
X59797236Y1298881D02*
X59523426Y1775072D01*
X59225807Y1298881D02*
X59350807Y2298881D01*
X59350807Y2298881D02*
X59731760Y2298881D01*
X59731760Y2298881D02*
X59821045Y2251262D01*
X59821045Y2251262D02*
X59862712Y2203643D01*
X59862712Y2203643D02*
X59898426Y2108405D01*
X59898426Y2108405D02*
X59880569Y1965548D01*
X59880569Y1965548D02*
X59821045Y1870310D01*
X59821045Y1870310D02*
X59767474Y1822691D01*
X59767474Y1822691D02*
X59666284Y1775072D01*
X59666284Y1775072D02*
X59285331Y1775072D01*
X60612712Y1346500D02*
X60511522Y1298881D01*
X60511522Y1298881D02*
X60321045Y1298881D01*
X60321045Y1298881D02*
X60231760Y1346500D01*
X60231760Y1346500D02*
X60196045Y1441739D01*
X60196045Y1441739D02*
X60243665Y1822691D01*
X60243665Y1822691D02*
X60303188Y1917929D01*
X60303188Y1917929D02*
X60404379Y1965548D01*
X60404379Y1965548D02*
X60594855Y1965548D01*
X60594855Y1965548D02*
X60684141Y1917929D01*
X60684141Y1917929D02*
X60719855Y1822691D01*
X60719855Y1822691D02*
X60707950Y1727453D01*
X60707950Y1727453D02*
X60219855Y1632215D01*
X61071046Y1965548D02*
X61225808Y1298881D01*
X61225808Y1298881D02*
X61547236Y1965548D01*
X62368665Y1298881D02*
X61797236Y1298881D01*
X62082951Y1298881D02*
X62207951Y2298881D01*
X62207951Y2298881D02*
X62094855Y2156024D01*
X62094855Y2156024D02*
X61987713Y2060786D01*
X61987713Y2060786D02*
X61886522Y2013167D01*
X62809141Y1394120D02*
X62850808Y1346500D01*
X62850808Y1346500D02*
X62797236Y1298881D01*
X62797236Y1298881D02*
X62755570Y1346500D01*
X62755570Y1346500D02*
X62809141Y1394120D01*
X62809141Y1394120D02*
X62797236Y1298881D01*
X63826998Y2298881D02*
X63636522Y2298881D01*
X63636522Y2298881D02*
X63535331Y2251262D01*
X63535331Y2251262D02*
X63481760Y2203643D01*
X63481760Y2203643D02*
X63368664Y2060786D01*
X63368664Y2060786D02*
X63297236Y1870310D01*
X63297236Y1870310D02*
X63249617Y1489358D01*
X63249617Y1489358D02*
X63285331Y1394120D01*
X63285331Y1394120D02*
X63326998Y1346500D01*
X63326998Y1346500D02*
X63416284Y1298881D01*
X63416284Y1298881D02*
X63606760Y1298881D01*
X63606760Y1298881D02*
X63707950Y1346500D01*
X63707950Y1346500D02*
X63761522Y1394120D01*
X63761522Y1394120D02*
X63821045Y1489358D01*
X63821045Y1489358D02*
X63850807Y1727453D01*
X63850807Y1727453D02*
X63815093Y1822691D01*
X63815093Y1822691D02*
X63773426Y1870310D01*
X63773426Y1870310D02*
X63684141Y1917929D01*
X63684141Y1917929D02*
X63493664Y1917929D01*
X63493664Y1917929D02*
X63392474Y1870310D01*
X63392474Y1870310D02*
X63338903Y1822691D01*
X63338903Y1822691D02*
X63279379Y1727453D01*
D11*
X33324295Y2534875D02*
X34124295Y2801542D01*
X34124295Y2801542D02*
X33324295Y3068208D01*
X34048104Y3792018D02*
X34086200Y3753922D01*
X34086200Y3753922D02*
X34124295Y3639637D01*
X34124295Y3639637D02*
X34124295Y3563446D01*
X34124295Y3563446D02*
X34086200Y3449160D01*
X34086200Y3449160D02*
X34010009Y3372970D01*
X34010009Y3372970D02*
X33933819Y3334875D01*
X33933819Y3334875D02*
X33781438Y3296779D01*
X33781438Y3296779D02*
X33667152Y3296779D01*
X33667152Y3296779D02*
X33514771Y3334875D01*
X33514771Y3334875D02*
X33438580Y3372970D01*
X33438580Y3372970D02*
X33362390Y3449160D01*
X33362390Y3449160D02*
X33324295Y3563446D01*
X33324295Y3563446D02*
X33324295Y3639637D01*
X33324295Y3639637D02*
X33362390Y3753922D01*
X33362390Y3753922D02*
X33400485Y3792018D01*
X34048104Y4592018D02*
X34086200Y4553922D01*
X34086200Y4553922D02*
X34124295Y4439637D01*
X34124295Y4439637D02*
X34124295Y4363446D01*
X34124295Y4363446D02*
X34086200Y4249160D01*
X34086200Y4249160D02*
X34010009Y4172970D01*
X34010009Y4172970D02*
X33933819Y4134875D01*
X33933819Y4134875D02*
X33781438Y4096779D01*
X33781438Y4096779D02*
X33667152Y4096779D01*
X33667152Y4096779D02*
X33514771Y4134875D01*
X33514771Y4134875D02*
X33438580Y4172970D01*
X33438580Y4172970D02*
X33362390Y4249160D01*
X33362390Y4249160D02*
X33324295Y4363446D01*
X33324295Y4363446D02*
X33324295Y4439637D01*
X33324295Y4439637D02*
X33362390Y4553922D01*
X33362390Y4553922D02*
X33400485Y4592018D01*
D12*
X5515739Y10166225D02*
X5515739Y10966225D01*
X5972882Y10166225D02*
X5630024Y10623368D01*
X5972882Y10966225D02*
X5515739Y10509082D01*
D11*
X36089160Y8667800D02*
X36232017Y8620181D01*
X36232017Y8620181D02*
X36470112Y8620181D01*
X36470112Y8620181D02*
X36565350Y8667800D01*
X36565350Y8667800D02*
X36612969Y8715420D01*
X36612969Y8715420D02*
X36660588Y8810658D01*
X36660588Y8810658D02*
X36660588Y8905896D01*
X36660588Y8905896D02*
X36612969Y9001134D01*
X36612969Y9001134D02*
X36565350Y9048753D01*
X36565350Y9048753D02*
X36470112Y9096372D01*
X36470112Y9096372D02*
X36279636Y9143991D01*
X36279636Y9143991D02*
X36184398Y9191610D01*
X36184398Y9191610D02*
X36136779Y9239229D01*
X36136779Y9239229D02*
X36089160Y9334467D01*
X36089160Y9334467D02*
X36089160Y9429705D01*
X36089160Y9429705D02*
X36136779Y9524943D01*
X36136779Y9524943D02*
X36184398Y9572562D01*
X36184398Y9572562D02*
X36279636Y9620181D01*
X36279636Y9620181D02*
X36517731Y9620181D01*
X36517731Y9620181D02*
X36660588Y9572562D01*
X37089160Y8620181D02*
X37089160Y9620181D01*
X37089160Y9620181D02*
X37470112Y9620181D01*
X37470112Y9620181D02*
X37565350Y9572562D01*
X37565350Y9572562D02*
X37612969Y9524943D01*
X37612969Y9524943D02*
X37660588Y9429705D01*
X37660588Y9429705D02*
X37660588Y9286848D01*
X37660588Y9286848D02*
X37612969Y9191610D01*
X37612969Y9191610D02*
X37565350Y9143991D01*
X37565350Y9143991D02*
X37470112Y9096372D01*
X37470112Y9096372D02*
X37089160Y9096372D01*
X38089160Y8620181D02*
X38089160Y9620181D01*
D12*
X11869548Y12836225D02*
X12060024Y12036225D01*
X12060024Y12036225D02*
X12212405Y12607654D01*
X12212405Y12607654D02*
X12364786Y12036225D01*
X12364786Y12036225D02*
X12555263Y12836225D01*
X13202882Y12836225D02*
X13050501Y12836225D01*
X13050501Y12836225D02*
X12974310Y12798130D01*
X12974310Y12798130D02*
X12936215Y12760035D01*
X12936215Y12760035D02*
X12860025Y12645749D01*
X12860025Y12645749D02*
X12821929Y12493368D01*
X12821929Y12493368D02*
X12821929Y12188606D01*
X12821929Y12188606D02*
X12860025Y12112416D01*
X12860025Y12112416D02*
X12898120Y12074320D01*
X12898120Y12074320D02*
X12974310Y12036225D01*
X12974310Y12036225D02*
X13126691Y12036225D01*
X13126691Y12036225D02*
X13202882Y12074320D01*
X13202882Y12074320D02*
X13240977Y12112416D01*
X13240977Y12112416D02*
X13279072Y12188606D01*
X13279072Y12188606D02*
X13279072Y12379082D01*
X13279072Y12379082D02*
X13240977Y12455273D01*
X13240977Y12455273D02*
X13202882Y12493368D01*
X13202882Y12493368D02*
X13126691Y12531463D01*
X13126691Y12531463D02*
X12974310Y12531463D01*
X12974310Y12531463D02*
X12898120Y12493368D01*
X12898120Y12493368D02*
X12860025Y12455273D01*
X12860025Y12455273D02*
X12821929Y12379082D01*
X14002882Y12836225D02*
X13621930Y12836225D01*
X13621930Y12836225D02*
X13583834Y12455273D01*
X13583834Y12455273D02*
X13621930Y12493368D01*
X13621930Y12493368D02*
X13698120Y12531463D01*
X13698120Y12531463D02*
X13888596Y12531463D01*
X13888596Y12531463D02*
X13964787Y12493368D01*
X13964787Y12493368D02*
X14002882Y12455273D01*
X14002882Y12455273D02*
X14040977Y12379082D01*
X14040977Y12379082D02*
X14040977Y12188606D01*
X14040977Y12188606D02*
X14002882Y12112416D01*
X14002882Y12112416D02*
X13964787Y12074320D01*
X13964787Y12074320D02*
X13888596Y12036225D01*
X13888596Y12036225D02*
X13698120Y12036225D01*
X13698120Y12036225D02*
X13621930Y12074320D01*
X13621930Y12074320D02*
X13583834Y12112416D01*
X14840978Y12112416D02*
X14802882Y12074320D01*
X14802882Y12074320D02*
X14688597Y12036225D01*
X14688597Y12036225D02*
X14612406Y12036225D01*
X14612406Y12036225D02*
X14498120Y12074320D01*
X14498120Y12074320D02*
X14421930Y12150511D01*
X14421930Y12150511D02*
X14383835Y12226701D01*
X14383835Y12226701D02*
X14345739Y12379082D01*
X14345739Y12379082D02*
X14345739Y12493368D01*
X14345739Y12493368D02*
X14383835Y12645749D01*
X14383835Y12645749D02*
X14421930Y12721940D01*
X14421930Y12721940D02*
X14498120Y12798130D01*
X14498120Y12798130D02*
X14612406Y12836225D01*
X14612406Y12836225D02*
X14688597Y12836225D01*
X14688597Y12836225D02*
X14802882Y12798130D01*
X14802882Y12798130D02*
X14840978Y12760035D01*
X15298120Y12493368D02*
X15221930Y12531463D01*
X15221930Y12531463D02*
X15183835Y12569559D01*
X15183835Y12569559D02*
X15145739Y12645749D01*
X15145739Y12645749D02*
X15145739Y12683844D01*
X15145739Y12683844D02*
X15183835Y12760035D01*
X15183835Y12760035D02*
X15221930Y12798130D01*
X15221930Y12798130D02*
X15298120Y12836225D01*
X15298120Y12836225D02*
X15450501Y12836225D01*
X15450501Y12836225D02*
X15526692Y12798130D01*
X15526692Y12798130D02*
X15564787Y12760035D01*
X15564787Y12760035D02*
X15602882Y12683844D01*
X15602882Y12683844D02*
X15602882Y12645749D01*
X15602882Y12645749D02*
X15564787Y12569559D01*
X15564787Y12569559D02*
X15526692Y12531463D01*
X15526692Y12531463D02*
X15450501Y12493368D01*
X15450501Y12493368D02*
X15298120Y12493368D01*
X15298120Y12493368D02*
X15221930Y12455273D01*
X15221930Y12455273D02*
X15183835Y12417178D01*
X15183835Y12417178D02*
X15145739Y12340987D01*
X15145739Y12340987D02*
X15145739Y12188606D01*
X15145739Y12188606D02*
X15183835Y12112416D01*
X15183835Y12112416D02*
X15221930Y12074320D01*
X15221930Y12074320D02*
X15298120Y12036225D01*
X15298120Y12036225D02*
X15450501Y12036225D01*
X15450501Y12036225D02*
X15526692Y12074320D01*
X15526692Y12074320D02*
X15564787Y12112416D01*
X15564787Y12112416D02*
X15602882Y12188606D01*
X15602882Y12188606D02*
X15602882Y12340987D01*
X15602882Y12340987D02*
X15564787Y12417178D01*
X15564787Y12417178D02*
X15526692Y12455273D01*
X15526692Y12455273D02*
X15450501Y12493368D01*
X16364787Y12036225D02*
X15907644Y12036225D01*
X16136216Y12036225D02*
X16136216Y12836225D01*
X16136216Y12836225D02*
X16060025Y12721940D01*
X16060025Y12721940D02*
X15983835Y12645749D01*
X15983835Y12645749D02*
X15907644Y12607654D01*
X17050502Y12836225D02*
X16898121Y12836225D01*
X16898121Y12836225D02*
X16821930Y12798130D01*
X16821930Y12798130D02*
X16783835Y12760035D01*
X16783835Y12760035D02*
X16707645Y12645749D01*
X16707645Y12645749D02*
X16669549Y12493368D01*
X16669549Y12493368D02*
X16669549Y12188606D01*
X16669549Y12188606D02*
X16707645Y12112416D01*
X16707645Y12112416D02*
X16745740Y12074320D01*
X16745740Y12074320D02*
X16821930Y12036225D01*
X16821930Y12036225D02*
X16974311Y12036225D01*
X16974311Y12036225D02*
X17050502Y12074320D01*
X17050502Y12074320D02*
X17088597Y12112416D01*
X17088597Y12112416D02*
X17126692Y12188606D01*
X17126692Y12188606D02*
X17126692Y12379082D01*
X17126692Y12379082D02*
X17088597Y12455273D01*
X17088597Y12455273D02*
X17050502Y12493368D01*
X17050502Y12493368D02*
X16974311Y12531463D01*
X16974311Y12531463D02*
X16821930Y12531463D01*
X16821930Y12531463D02*
X16745740Y12493368D01*
X16745740Y12493368D02*
X16707645Y12455273D01*
X16707645Y12455273D02*
X16669549Y12379082D01*
X17431454Y12074320D02*
X17545740Y12036225D01*
X17545740Y12036225D02*
X17736216Y12036225D01*
X17736216Y12036225D02*
X17812407Y12074320D01*
X17812407Y12074320D02*
X17850502Y12112416D01*
X17850502Y12112416D02*
X17888597Y12188606D01*
X17888597Y12188606D02*
X17888597Y12264797D01*
X17888597Y12264797D02*
X17850502Y12340987D01*
X17850502Y12340987D02*
X17812407Y12379082D01*
X17812407Y12379082D02*
X17736216Y12417178D01*
X17736216Y12417178D02*
X17583835Y12455273D01*
X17583835Y12455273D02*
X17507645Y12493368D01*
X17507645Y12493368D02*
X17469550Y12531463D01*
X17469550Y12531463D02*
X17431454Y12607654D01*
X17431454Y12607654D02*
X17431454Y12683844D01*
X17431454Y12683844D02*
X17469550Y12760035D01*
X17469550Y12760035D02*
X17507645Y12798130D01*
X17507645Y12798130D02*
X17583835Y12836225D01*
X17583835Y12836225D02*
X17774312Y12836225D01*
X17774312Y12836225D02*
X17888597Y12798130D01*
X18802883Y12874320D02*
X18117169Y11845749D01*
X18993359Y12836225D02*
X19183835Y12036225D01*
X19183835Y12036225D02*
X19336216Y12607654D01*
X19336216Y12607654D02*
X19488597Y12036225D01*
X19488597Y12036225D02*
X19679074Y12836225D01*
X20326693Y12836225D02*
X20174312Y12836225D01*
X20174312Y12836225D02*
X20098121Y12798130D01*
X20098121Y12798130D02*
X20060026Y12760035D01*
X20060026Y12760035D02*
X19983836Y12645749D01*
X19983836Y12645749D02*
X19945740Y12493368D01*
X19945740Y12493368D02*
X19945740Y12188606D01*
X19945740Y12188606D02*
X19983836Y12112416D01*
X19983836Y12112416D02*
X20021931Y12074320D01*
X20021931Y12074320D02*
X20098121Y12036225D01*
X20098121Y12036225D02*
X20250502Y12036225D01*
X20250502Y12036225D02*
X20326693Y12074320D01*
X20326693Y12074320D02*
X20364788Y12112416D01*
X20364788Y12112416D02*
X20402883Y12188606D01*
X20402883Y12188606D02*
X20402883Y12379082D01*
X20402883Y12379082D02*
X20364788Y12455273D01*
X20364788Y12455273D02*
X20326693Y12493368D01*
X20326693Y12493368D02*
X20250502Y12531463D01*
X20250502Y12531463D02*
X20098121Y12531463D01*
X20098121Y12531463D02*
X20021931Y12493368D01*
X20021931Y12493368D02*
X19983836Y12455273D01*
X19983836Y12455273D02*
X19945740Y12379082D01*
X21126693Y12836225D02*
X20745741Y12836225D01*
X20745741Y12836225D02*
X20707645Y12455273D01*
X20707645Y12455273D02*
X20745741Y12493368D01*
X20745741Y12493368D02*
X20821931Y12531463D01*
X20821931Y12531463D02*
X21012407Y12531463D01*
X21012407Y12531463D02*
X21088598Y12493368D01*
X21088598Y12493368D02*
X21126693Y12455273D01*
X21126693Y12455273D02*
X21164788Y12379082D01*
X21164788Y12379082D02*
X21164788Y12188606D01*
X21164788Y12188606D02*
X21126693Y12112416D01*
X21126693Y12112416D02*
X21088598Y12074320D01*
X21088598Y12074320D02*
X21012407Y12036225D01*
X21012407Y12036225D02*
X20821931Y12036225D01*
X20821931Y12036225D02*
X20745741Y12074320D01*
X20745741Y12074320D02*
X20707645Y12112416D01*
X21964789Y12112416D02*
X21926693Y12074320D01*
X21926693Y12074320D02*
X21812408Y12036225D01*
X21812408Y12036225D02*
X21736217Y12036225D01*
X21736217Y12036225D02*
X21621931Y12074320D01*
X21621931Y12074320D02*
X21545741Y12150511D01*
X21545741Y12150511D02*
X21507646Y12226701D01*
X21507646Y12226701D02*
X21469550Y12379082D01*
X21469550Y12379082D02*
X21469550Y12493368D01*
X21469550Y12493368D02*
X21507646Y12645749D01*
X21507646Y12645749D02*
X21545741Y12721940D01*
X21545741Y12721940D02*
X21621931Y12798130D01*
X21621931Y12798130D02*
X21736217Y12836225D01*
X21736217Y12836225D02*
X21812408Y12836225D01*
X21812408Y12836225D02*
X21926693Y12798130D01*
X21926693Y12798130D02*
X21964789Y12760035D01*
X22460027Y12836225D02*
X22536217Y12836225D01*
X22536217Y12836225D02*
X22612408Y12798130D01*
X22612408Y12798130D02*
X22650503Y12760035D01*
X22650503Y12760035D02*
X22688598Y12683844D01*
X22688598Y12683844D02*
X22726693Y12531463D01*
X22726693Y12531463D02*
X22726693Y12340987D01*
X22726693Y12340987D02*
X22688598Y12188606D01*
X22688598Y12188606D02*
X22650503Y12112416D01*
X22650503Y12112416D02*
X22612408Y12074320D01*
X22612408Y12074320D02*
X22536217Y12036225D01*
X22536217Y12036225D02*
X22460027Y12036225D01*
X22460027Y12036225D02*
X22383836Y12074320D01*
X22383836Y12074320D02*
X22345741Y12112416D01*
X22345741Y12112416D02*
X22307646Y12188606D01*
X22307646Y12188606D02*
X22269550Y12340987D01*
X22269550Y12340987D02*
X22269550Y12531463D01*
X22269550Y12531463D02*
X22307646Y12683844D01*
X22307646Y12683844D02*
X22345741Y12760035D01*
X22345741Y12760035D02*
X22383836Y12798130D01*
X22383836Y12798130D02*
X22460027Y12836225D01*
X23031455Y12760035D02*
X23069551Y12798130D01*
X23069551Y12798130D02*
X23145741Y12836225D01*
X23145741Y12836225D02*
X23336217Y12836225D01*
X23336217Y12836225D02*
X23412408Y12798130D01*
X23412408Y12798130D02*
X23450503Y12760035D01*
X23450503Y12760035D02*
X23488598Y12683844D01*
X23488598Y12683844D02*
X23488598Y12607654D01*
X23488598Y12607654D02*
X23450503Y12493368D01*
X23450503Y12493368D02*
X22993360Y12036225D01*
X22993360Y12036225D02*
X23488598Y12036225D01*
X23793360Y12074320D02*
X23907646Y12036225D01*
X23907646Y12036225D02*
X24098122Y12036225D01*
X24098122Y12036225D02*
X24174313Y12074320D01*
X24174313Y12074320D02*
X24212408Y12112416D01*
X24212408Y12112416D02*
X24250503Y12188606D01*
X24250503Y12188606D02*
X24250503Y12264797D01*
X24250503Y12264797D02*
X24212408Y12340987D01*
X24212408Y12340987D02*
X24174313Y12379082D01*
X24174313Y12379082D02*
X24098122Y12417178D01*
X24098122Y12417178D02*
X23945741Y12455273D01*
X23945741Y12455273D02*
X23869551Y12493368D01*
X23869551Y12493368D02*
X23831456Y12531463D01*
X23831456Y12531463D02*
X23793360Y12607654D01*
X23793360Y12607654D02*
X23793360Y12683844D01*
X23793360Y12683844D02*
X23831456Y12760035D01*
X23831456Y12760035D02*
X23869551Y12798130D01*
X23869551Y12798130D02*
X23945741Y12836225D01*
X23945741Y12836225D02*
X24136218Y12836225D01*
X24136218Y12836225D02*
X24250503Y12798130D01*
X3722405Y4985273D02*
X3836691Y4947178D01*
X3836691Y4947178D02*
X3874786Y4909082D01*
X3874786Y4909082D02*
X3912882Y4832892D01*
X3912882Y4832892D02*
X3912882Y4718606D01*
X3912882Y4718606D02*
X3874786Y4642416D01*
X3874786Y4642416D02*
X3836691Y4604320D01*
X3836691Y4604320D02*
X3760501Y4566225D01*
X3760501Y4566225D02*
X3455739Y4566225D01*
X3455739Y4566225D02*
X3455739Y5366225D01*
X3455739Y5366225D02*
X3722405Y5366225D01*
X3722405Y5366225D02*
X3798596Y5328130D01*
X3798596Y5328130D02*
X3836691Y5290035D01*
X3836691Y5290035D02*
X3874786Y5213844D01*
X3874786Y5213844D02*
X3874786Y5137654D01*
X3874786Y5137654D02*
X3836691Y5061463D01*
X3836691Y5061463D02*
X3798596Y5023368D01*
X3798596Y5023368D02*
X3722405Y4985273D01*
X3722405Y4985273D02*
X3455739Y4985273D01*
X4255739Y4985273D02*
X4522405Y4985273D01*
X4636691Y4566225D02*
X4255739Y4566225D01*
X4255739Y4566225D02*
X4255739Y5366225D01*
X4255739Y5366225D02*
X4636691Y5366225D01*
X5465739Y17076225D02*
X5465739Y17876225D01*
X5922882Y17076225D02*
X5580024Y17533368D01*
X5922882Y17876225D02*
X5465739Y17419082D01*
X5345739Y24936225D02*
X5345739Y25736225D01*
X5802882Y24936225D02*
X5460024Y25393368D01*
X5802882Y25736225D02*
X5345739Y25279082D01*
X33127643Y24244797D02*
X33508596Y24244797D01*
X33051453Y24016225D02*
X33318120Y24816225D01*
X33318120Y24816225D02*
X33584786Y24016225D01*
X33737167Y24816225D02*
X34194310Y24816225D01*
X33965738Y24016225D02*
X33965738Y24816225D01*
X34727643Y24435273D02*
X34460977Y24435273D01*
X34460977Y24016225D02*
X34460977Y24816225D01*
X34460977Y24816225D02*
X34841929Y24816225D01*
X35108595Y24740035D02*
X35146691Y24778130D01*
X35146691Y24778130D02*
X35222881Y24816225D01*
X35222881Y24816225D02*
X35413357Y24816225D01*
X35413357Y24816225D02*
X35489548Y24778130D01*
X35489548Y24778130D02*
X35527643Y24740035D01*
X35527643Y24740035D02*
X35565738Y24663844D01*
X35565738Y24663844D02*
X35565738Y24587654D01*
X35565738Y24587654D02*
X35527643Y24473368D01*
X35527643Y24473368D02*
X35070500Y24016225D01*
X35070500Y24016225D02*
X35565738Y24016225D01*
X35870500Y24740035D02*
X35908596Y24778130D01*
X35908596Y24778130D02*
X35984786Y24816225D01*
X35984786Y24816225D02*
X36175262Y24816225D01*
X36175262Y24816225D02*
X36251453Y24778130D01*
X36251453Y24778130D02*
X36289548Y24740035D01*
X36289548Y24740035D02*
X36327643Y24663844D01*
X36327643Y24663844D02*
X36327643Y24587654D01*
X36327643Y24587654D02*
X36289548Y24473368D01*
X36289548Y24473368D02*
X35832405Y24016225D01*
X35832405Y24016225D02*
X36327643Y24016225D01*
X36556215Y24816225D02*
X36822882Y24016225D01*
X36822882Y24016225D02*
X37089548Y24816225D01*
X37775262Y24016225D02*
X37318119Y24016225D01*
X37546691Y24016225D02*
X37546691Y24816225D01*
X37546691Y24816225D02*
X37470500Y24701940D01*
X37470500Y24701940D02*
X37394310Y24625749D01*
X37394310Y24625749D02*
X37318119Y24587654D01*
X38270501Y24816225D02*
X38346691Y24816225D01*
X38346691Y24816225D02*
X38422882Y24778130D01*
X38422882Y24778130D02*
X38460977Y24740035D01*
X38460977Y24740035D02*
X38499072Y24663844D01*
X38499072Y24663844D02*
X38537167Y24511463D01*
X38537167Y24511463D02*
X38537167Y24320987D01*
X38537167Y24320987D02*
X38499072Y24168606D01*
X38499072Y24168606D02*
X38460977Y24092416D01*
X38460977Y24092416D02*
X38422882Y24054320D01*
X38422882Y24054320D02*
X38346691Y24016225D01*
X38346691Y24016225D02*
X38270501Y24016225D01*
X38270501Y24016225D02*
X38194310Y24054320D01*
X38194310Y24054320D02*
X38156215Y24092416D01*
X38156215Y24092416D02*
X38118120Y24168606D01*
X38118120Y24168606D02*
X38080024Y24320987D01*
X38080024Y24320987D02*
X38080024Y24511463D01*
X38080024Y24511463D02*
X38118120Y24663844D01*
X38118120Y24663844D02*
X38156215Y24740035D01*
X38156215Y24740035D02*
X38194310Y24778130D01*
X38194310Y24778130D02*
X38270501Y24816225D01*
X39337168Y24092416D02*
X39299072Y24054320D01*
X39299072Y24054320D02*
X39184787Y24016225D01*
X39184787Y24016225D02*
X39108596Y24016225D01*
X39108596Y24016225D02*
X38994310Y24054320D01*
X38994310Y24054320D02*
X38918120Y24130511D01*
X38918120Y24130511D02*
X38880025Y24206701D01*
X38880025Y24206701D02*
X38841929Y24359082D01*
X38841929Y24359082D02*
X38841929Y24473368D01*
X38841929Y24473368D02*
X38880025Y24625749D01*
X38880025Y24625749D02*
X38918120Y24701940D01*
X38918120Y24701940D02*
X38994310Y24778130D01*
X38994310Y24778130D02*
X39108596Y24816225D01*
X39108596Y24816225D02*
X39184787Y24816225D01*
X39184787Y24816225D02*
X39299072Y24778130D01*
X39299072Y24778130D02*
X39337168Y24740035D01*
X39680025Y24320987D02*
X40289549Y24320987D01*
X40594310Y24816225D02*
X41127644Y24816225D01*
X41127644Y24816225D02*
X40784786Y24016225D01*
X41432406Y24016225D02*
X41432406Y24816225D01*
X41432406Y24816225D02*
X41737168Y24816225D01*
X41737168Y24816225D02*
X41813358Y24778130D01*
X41813358Y24778130D02*
X41851453Y24740035D01*
X41851453Y24740035D02*
X41889549Y24663844D01*
X41889549Y24663844D02*
X41889549Y24549559D01*
X41889549Y24549559D02*
X41851453Y24473368D01*
X41851453Y24473368D02*
X41813358Y24435273D01*
X41813358Y24435273D02*
X41737168Y24397178D01*
X41737168Y24397178D02*
X41432406Y24397178D01*
X42156215Y24816225D02*
X42689549Y24016225D01*
X42689549Y24816225D02*
X42156215Y24016225D01*
X3855739Y12085273D02*
X4122405Y12085273D01*
X4236691Y11666225D02*
X3855739Y11666225D01*
X3855739Y11666225D02*
X3855739Y12466225D01*
X3855739Y12466225D02*
X4236691Y12466225D01*
D13*
X1409524Y25185105D02*
X1409524Y25985105D01*
X1409524Y25985105D02*
X1600000Y25985105D01*
X1600000Y25985105D02*
X1714286Y25947010D01*
X1714286Y25947010D02*
X1790476Y25870820D01*
X1790476Y25870820D02*
X1828571Y25794629D01*
X1828571Y25794629D02*
X1866667Y25642248D01*
X1866667Y25642248D02*
X1866667Y25527962D01*
X1866667Y25527962D02*
X1828571Y25375581D01*
X1828571Y25375581D02*
X1790476Y25299391D01*
X1790476Y25299391D02*
X1714286Y25223200D01*
X1714286Y25223200D02*
X1600000Y25185105D01*
X1600000Y25185105D02*
X1409524Y25185105D01*
X2171428Y25908915D02*
X2209524Y25947010D01*
X2209524Y25947010D02*
X2285714Y25985105D01*
X2285714Y25985105D02*
X2476190Y25985105D01*
X2476190Y25985105D02*
X2552381Y25947010D01*
X2552381Y25947010D02*
X2590476Y25908915D01*
X2590476Y25908915D02*
X2628571Y25832724D01*
X2628571Y25832724D02*
X2628571Y25756534D01*
X2628571Y25756534D02*
X2590476Y25642248D01*
X2590476Y25642248D02*
X2133333Y25185105D01*
X2133333Y25185105D02*
X2628571Y25185105D01*
D11*
X19093333Y5645181D02*
X18760000Y6121372D01*
X18521905Y5645181D02*
X18521905Y6645181D01*
X18521905Y6645181D02*
X18902857Y6645181D01*
X18902857Y6645181D02*
X18998095Y6597562D01*
X18998095Y6597562D02*
X19045714Y6549943D01*
X19045714Y6549943D02*
X19093333Y6454705D01*
X19093333Y6454705D02*
X19093333Y6311848D01*
X19093333Y6311848D02*
X19045714Y6216610D01*
X19045714Y6216610D02*
X18998095Y6168991D01*
X18998095Y6168991D02*
X18902857Y6121372D01*
X18902857Y6121372D02*
X18521905Y6121372D01*
X19474286Y6549943D02*
X19521905Y6597562D01*
X19521905Y6597562D02*
X19617143Y6645181D01*
X19617143Y6645181D02*
X19855238Y6645181D01*
X19855238Y6645181D02*
X19950476Y6597562D01*
X19950476Y6597562D02*
X19998095Y6549943D01*
X19998095Y6549943D02*
X20045714Y6454705D01*
X20045714Y6454705D02*
X20045714Y6359467D01*
X20045714Y6359467D02*
X19998095Y6216610D01*
X19998095Y6216610D02*
X19426667Y5645181D01*
X19426667Y5645181D02*
X20045714Y5645181D01*
X19103333Y2585181D02*
X18770000Y3061372D01*
X18531905Y2585181D02*
X18531905Y3585181D01*
X18531905Y3585181D02*
X18912857Y3585181D01*
X18912857Y3585181D02*
X19008095Y3537562D01*
X19008095Y3537562D02*
X19055714Y3489943D01*
X19055714Y3489943D02*
X19103333Y3394705D01*
X19103333Y3394705D02*
X19103333Y3251848D01*
X19103333Y3251848D02*
X19055714Y3156610D01*
X19055714Y3156610D02*
X19008095Y3108991D01*
X19008095Y3108991D02*
X18912857Y3061372D01*
X18912857Y3061372D02*
X18531905Y3061372D01*
X19436667Y3585181D02*
X20055714Y3585181D01*
X20055714Y3585181D02*
X19722381Y3204229D01*
X19722381Y3204229D02*
X19865238Y3204229D01*
X19865238Y3204229D02*
X19960476Y3156610D01*
X19960476Y3156610D02*
X20008095Y3108991D01*
X20008095Y3108991D02*
X20055714Y3013753D01*
X20055714Y3013753D02*
X20055714Y2775658D01*
X20055714Y2775658D02*
X20008095Y2680420D01*
X20008095Y2680420D02*
X19960476Y2632800D01*
X19960476Y2632800D02*
X19865238Y2585181D01*
X19865238Y2585181D02*
X19579524Y2585181D01*
X19579524Y2585181D02*
X19484286Y2632800D01*
X19484286Y2632800D02*
X19436667Y2680420D01*
X58093333Y67135181D02*
X57760000Y67611372D01*
X57521905Y67135181D02*
X57521905Y68135181D01*
X57521905Y68135181D02*
X57902857Y68135181D01*
X57902857Y68135181D02*
X57998095Y68087562D01*
X57998095Y68087562D02*
X58045714Y68039943D01*
X58045714Y68039943D02*
X58093333Y67944705D01*
X58093333Y67944705D02*
X58093333Y67801848D01*
X58093333Y67801848D02*
X58045714Y67706610D01*
X58045714Y67706610D02*
X57998095Y67658991D01*
X57998095Y67658991D02*
X57902857Y67611372D01*
X57902857Y67611372D02*
X57521905Y67611372D01*
X58998095Y68135181D02*
X58521905Y68135181D01*
X58521905Y68135181D02*
X58474286Y67658991D01*
X58474286Y67658991D02*
X58521905Y67706610D01*
X58521905Y67706610D02*
X58617143Y67754229D01*
X58617143Y67754229D02*
X58855238Y67754229D01*
X58855238Y67754229D02*
X58950476Y67706610D01*
X58950476Y67706610D02*
X58998095Y67658991D01*
X58998095Y67658991D02*
X59045714Y67563753D01*
X59045714Y67563753D02*
X59045714Y67325658D01*
X59045714Y67325658D02*
X58998095Y67230420D01*
X58998095Y67230420D02*
X58950476Y67182800D01*
X58950476Y67182800D02*
X58855238Y67135181D01*
X58855238Y67135181D02*
X58617143Y67135181D01*
X58617143Y67135181D02*
X58521905Y67182800D01*
X58521905Y67182800D02*
X58474286Y67230420D01*
X35933333Y63065181D02*
X35600000Y63541372D01*
X35361905Y63065181D02*
X35361905Y64065181D01*
X35361905Y64065181D02*
X35742857Y64065181D01*
X35742857Y64065181D02*
X35838095Y64017562D01*
X35838095Y64017562D02*
X35885714Y63969943D01*
X35885714Y63969943D02*
X35933333Y63874705D01*
X35933333Y63874705D02*
X35933333Y63731848D01*
X35933333Y63731848D02*
X35885714Y63636610D01*
X35885714Y63636610D02*
X35838095Y63588991D01*
X35838095Y63588991D02*
X35742857Y63541372D01*
X35742857Y63541372D02*
X35361905Y63541372D01*
X36790476Y63731848D02*
X36790476Y63065181D01*
X36552381Y64112800D02*
X36314286Y63398515D01*
X36314286Y63398515D02*
X36933333Y63398515D01*
D13*
X1559524Y17785105D02*
X1559524Y18585105D01*
X1559524Y18585105D02*
X1750000Y18585105D01*
X1750000Y18585105D02*
X1864286Y18547010D01*
X1864286Y18547010D02*
X1940476Y18470820D01*
X1940476Y18470820D02*
X1978571Y18394629D01*
X1978571Y18394629D02*
X2016667Y18242248D01*
X2016667Y18242248D02*
X2016667Y18127962D01*
X2016667Y18127962D02*
X1978571Y17975581D01*
X1978571Y17975581D02*
X1940476Y17899391D01*
X1940476Y17899391D02*
X1864286Y17823200D01*
X1864286Y17823200D02*
X1750000Y17785105D01*
X1750000Y17785105D02*
X1559524Y17785105D01*
X2778571Y17785105D02*
X2321428Y17785105D01*
X2550000Y17785105D02*
X2550000Y18585105D01*
X2550000Y18585105D02*
X2473809Y18470820D01*
X2473809Y18470820D02*
X2397619Y18394629D01*
X2397619Y18394629D02*
X2321428Y18356534D01*
X1309524Y9735105D02*
X1309524Y10535105D01*
X1309524Y10535105D02*
X1500000Y10535105D01*
X1500000Y10535105D02*
X1614286Y10497010D01*
X1614286Y10497010D02*
X1690476Y10420820D01*
X1690476Y10420820D02*
X1728571Y10344629D01*
X1728571Y10344629D02*
X1766667Y10192248D01*
X1766667Y10192248D02*
X1766667Y10077962D01*
X1766667Y10077962D02*
X1728571Y9925581D01*
X1728571Y9925581D02*
X1690476Y9849391D01*
X1690476Y9849391D02*
X1614286Y9773200D01*
X1614286Y9773200D02*
X1500000Y9735105D01*
X1500000Y9735105D02*
X1309524Y9735105D01*
X2033333Y10535105D02*
X2528571Y10535105D01*
X2528571Y10535105D02*
X2261905Y10230343D01*
X2261905Y10230343D02*
X2376190Y10230343D01*
X2376190Y10230343D02*
X2452381Y10192248D01*
X2452381Y10192248D02*
X2490476Y10154153D01*
X2490476Y10154153D02*
X2528571Y10077962D01*
X2528571Y10077962D02*
X2528571Y9887486D01*
X2528571Y9887486D02*
X2490476Y9811296D01*
X2490476Y9811296D02*
X2452381Y9773200D01*
X2452381Y9773200D02*
X2376190Y9735105D01*
X2376190Y9735105D02*
X2147619Y9735105D01*
X2147619Y9735105D02*
X2071428Y9773200D01*
X2071428Y9773200D02*
X2033333Y9811296D01*
D11*
X44123333Y57530420D02*
X44075714Y57482800D01*
X44075714Y57482800D02*
X43932857Y57435181D01*
X43932857Y57435181D02*
X43837619Y57435181D01*
X43837619Y57435181D02*
X43694762Y57482800D01*
X43694762Y57482800D02*
X43599524Y57578039D01*
X43599524Y57578039D02*
X43551905Y57673277D01*
X43551905Y57673277D02*
X43504286Y57863753D01*
X43504286Y57863753D02*
X43504286Y58006610D01*
X43504286Y58006610D02*
X43551905Y58197086D01*
X43551905Y58197086D02*
X43599524Y58292324D01*
X43599524Y58292324D02*
X43694762Y58387562D01*
X43694762Y58387562D02*
X43837619Y58435181D01*
X43837619Y58435181D02*
X43932857Y58435181D01*
X43932857Y58435181D02*
X44075714Y58387562D01*
X44075714Y58387562D02*
X44123333Y58339943D01*
X44456667Y58435181D02*
X45075714Y58435181D01*
X45075714Y58435181D02*
X44742381Y58054229D01*
X44742381Y58054229D02*
X44885238Y58054229D01*
X44885238Y58054229D02*
X44980476Y58006610D01*
X44980476Y58006610D02*
X45028095Y57958991D01*
X45028095Y57958991D02*
X45075714Y57863753D01*
X45075714Y57863753D02*
X45075714Y57625658D01*
X45075714Y57625658D02*
X45028095Y57530420D01*
X45028095Y57530420D02*
X44980476Y57482800D01*
X44980476Y57482800D02*
X44885238Y57435181D01*
X44885238Y57435181D02*
X44599524Y57435181D01*
X44599524Y57435181D02*
X44504286Y57482800D01*
X44504286Y57482800D02*
X44456667Y57530420D01*
X64243333Y49620420D02*
X64195714Y49572800D01*
X64195714Y49572800D02*
X64052857Y49525181D01*
X64052857Y49525181D02*
X63957619Y49525181D01*
X63957619Y49525181D02*
X63814762Y49572800D01*
X63814762Y49572800D02*
X63719524Y49668039D01*
X63719524Y49668039D02*
X63671905Y49763277D01*
X63671905Y49763277D02*
X63624286Y49953753D01*
X63624286Y49953753D02*
X63624286Y50096610D01*
X63624286Y50096610D02*
X63671905Y50287086D01*
X63671905Y50287086D02*
X63719524Y50382324D01*
X63719524Y50382324D02*
X63814762Y50477562D01*
X63814762Y50477562D02*
X63957619Y50525181D01*
X63957619Y50525181D02*
X64052857Y50525181D01*
X64052857Y50525181D02*
X64195714Y50477562D01*
X64195714Y50477562D02*
X64243333Y50429943D01*
X64624286Y50429943D02*
X64671905Y50477562D01*
X64671905Y50477562D02*
X64767143Y50525181D01*
X64767143Y50525181D02*
X65005238Y50525181D01*
X65005238Y50525181D02*
X65100476Y50477562D01*
X65100476Y50477562D02*
X65148095Y50429943D01*
X65148095Y50429943D02*
X65195714Y50334705D01*
X65195714Y50334705D02*
X65195714Y50239467D01*
X65195714Y50239467D02*
X65148095Y50096610D01*
X65148095Y50096610D02*
X64576667Y49525181D01*
X64576667Y49525181D02*
X65195714Y49525181D01*
X2289523Y51665181D02*
X1956190Y52141372D01*
X1718095Y51665181D02*
X1718095Y52665181D01*
X1718095Y52665181D02*
X2099047Y52665181D01*
X2099047Y52665181D02*
X2194285Y52617562D01*
X2194285Y52617562D02*
X2241904Y52569943D01*
X2241904Y52569943D02*
X2289523Y52474705D01*
X2289523Y52474705D02*
X2289523Y52331848D01*
X2289523Y52331848D02*
X2241904Y52236610D01*
X2241904Y52236610D02*
X2194285Y52188991D01*
X2194285Y52188991D02*
X2099047Y52141372D01*
X2099047Y52141372D02*
X1718095Y52141372D01*
X2718095Y51665181D02*
X2718095Y52665181D01*
X2718095Y52665181D02*
X3289523Y51665181D01*
X3289523Y51665181D02*
X3289523Y52665181D01*
X4289523Y51665181D02*
X3718095Y51665181D01*
X4003809Y51665181D02*
X4003809Y52665181D01*
X4003809Y52665181D02*
X3908571Y52522324D01*
X3908571Y52522324D02*
X3813333Y52427086D01*
X3813333Y52427086D02*
X3718095Y52379467D01*
X17189095Y65670181D02*
X17189095Y64860658D01*
X17189095Y64860658D02*
X17236714Y64765420D01*
X17236714Y64765420D02*
X17284333Y64717800D01*
X17284333Y64717800D02*
X17379571Y64670181D01*
X17379571Y64670181D02*
X17570047Y64670181D01*
X17570047Y64670181D02*
X17665285Y64717800D01*
X17665285Y64717800D02*
X17712904Y64765420D01*
X17712904Y64765420D02*
X17760523Y64860658D01*
X17760523Y64860658D02*
X17760523Y65670181D01*
X18760523Y64670181D02*
X18189095Y64670181D01*
X18474809Y64670181D02*
X18474809Y65670181D01*
X18474809Y65670181D02*
X18379571Y65527324D01*
X18379571Y65527324D02*
X18284333Y65432086D01*
X18284333Y65432086D02*
X18189095Y65384467D01*
X19103333Y8665181D02*
X18770000Y9141372D01*
X18531905Y8665181D02*
X18531905Y9665181D01*
X18531905Y9665181D02*
X18912857Y9665181D01*
X18912857Y9665181D02*
X19008095Y9617562D01*
X19008095Y9617562D02*
X19055714Y9569943D01*
X19055714Y9569943D02*
X19103333Y9474705D01*
X19103333Y9474705D02*
X19103333Y9331848D01*
X19103333Y9331848D02*
X19055714Y9236610D01*
X19055714Y9236610D02*
X19008095Y9188991D01*
X19008095Y9188991D02*
X18912857Y9141372D01*
X18912857Y9141372D02*
X18531905Y9141372D01*
X20055714Y8665181D02*
X19484286Y8665181D01*
X19770000Y8665181D02*
X19770000Y9665181D01*
X19770000Y9665181D02*
X19674762Y9522324D01*
X19674762Y9522324D02*
X19579524Y9427086D01*
X19579524Y9427086D02*
X19484286Y9379467D01*
X28236666Y7245181D02*
X28236666Y6530896D01*
X28236666Y6530896D02*
X28189047Y6388039D01*
X28189047Y6388039D02*
X28093809Y6292800D01*
X28093809Y6292800D02*
X27950952Y6245181D01*
X27950952Y6245181D02*
X27855714Y6245181D01*
X28617619Y7245181D02*
X29236666Y7245181D01*
X29236666Y7245181D02*
X28903333Y6864229D01*
X28903333Y6864229D02*
X29046190Y6864229D01*
X29046190Y6864229D02*
X29141428Y6816610D01*
X29141428Y6816610D02*
X29189047Y6768991D01*
X29189047Y6768991D02*
X29236666Y6673753D01*
X29236666Y6673753D02*
X29236666Y6435658D01*
X29236666Y6435658D02*
X29189047Y6340420D01*
X29189047Y6340420D02*
X29141428Y6292800D01*
X29141428Y6292800D02*
X29046190Y6245181D01*
X29046190Y6245181D02*
X28760476Y6245181D01*
X28760476Y6245181D02*
X28665238Y6292800D01*
X28665238Y6292800D02*
X28617619Y6340420D01*
X53328095Y57655181D02*
X53328095Y56845658D01*
X53328095Y56845658D02*
X53375714Y56750420D01*
X53375714Y56750420D02*
X53423333Y56702800D01*
X53423333Y56702800D02*
X53518571Y56655181D01*
X53518571Y56655181D02*
X53709047Y56655181D01*
X53709047Y56655181D02*
X53804285Y56702800D01*
X53804285Y56702800D02*
X53851904Y56750420D01*
X53851904Y56750420D02*
X53899523Y56845658D01*
X53899523Y56845658D02*
X53899523Y57655181D01*
X54280476Y57655181D02*
X54899523Y57655181D01*
X54899523Y57655181D02*
X54566190Y57274229D01*
X54566190Y57274229D02*
X54709047Y57274229D01*
X54709047Y57274229D02*
X54804285Y57226610D01*
X54804285Y57226610D02*
X54851904Y57178991D01*
X54851904Y57178991D02*
X54899523Y57083753D01*
X54899523Y57083753D02*
X54899523Y56845658D01*
X54899523Y56845658D02*
X54851904Y56750420D01*
X54851904Y56750420D02*
X54804285Y56702800D01*
X54804285Y56702800D02*
X54709047Y56655181D01*
X54709047Y56655181D02*
X54423333Y56655181D01*
X54423333Y56655181D02*
X54328095Y56702800D01*
X54328095Y56702800D02*
X54280476Y56750420D01*
X37168095Y23405181D02*
X37168095Y22595658D01*
X37168095Y22595658D02*
X37215714Y22500420D01*
X37215714Y22500420D02*
X37263333Y22452800D01*
X37263333Y22452800D02*
X37358571Y22405181D01*
X37358571Y22405181D02*
X37549047Y22405181D01*
X37549047Y22405181D02*
X37644285Y22452800D01*
X37644285Y22452800D02*
X37691904Y22500420D01*
X37691904Y22500420D02*
X37739523Y22595658D01*
X37739523Y22595658D02*
X37739523Y23405181D01*
X38168095Y23309943D02*
X38215714Y23357562D01*
X38215714Y23357562D02*
X38310952Y23405181D01*
X38310952Y23405181D02*
X38549047Y23405181D01*
X38549047Y23405181D02*
X38644285Y23357562D01*
X38644285Y23357562D02*
X38691904Y23309943D01*
X38691904Y23309943D02*
X38739523Y23214705D01*
X38739523Y23214705D02*
X38739523Y23119467D01*
X38739523Y23119467D02*
X38691904Y22976610D01*
X38691904Y22976610D02*
X38120476Y22405181D01*
X38120476Y22405181D02*
X38739523Y22405181D01*
X1703333Y44050420D02*
X1655714Y44002800D01*
X1655714Y44002800D02*
X1512857Y43955181D01*
X1512857Y43955181D02*
X1417619Y43955181D01*
X1417619Y43955181D02*
X1274762Y44002800D01*
X1274762Y44002800D02*
X1179524Y44098039D01*
X1179524Y44098039D02*
X1131905Y44193277D01*
X1131905Y44193277D02*
X1084286Y44383753D01*
X1084286Y44383753D02*
X1084286Y44526610D01*
X1084286Y44526610D02*
X1131905Y44717086D01*
X1131905Y44717086D02*
X1179524Y44812324D01*
X1179524Y44812324D02*
X1274762Y44907562D01*
X1274762Y44907562D02*
X1417619Y44955181D01*
X1417619Y44955181D02*
X1512857Y44955181D01*
X1512857Y44955181D02*
X1655714Y44907562D01*
X1655714Y44907562D02*
X1703333Y44859943D01*
X2655714Y43955181D02*
X2084286Y43955181D01*
X2370000Y43955181D02*
X2370000Y44955181D01*
X2370000Y44955181D02*
X2274762Y44812324D01*
X2274762Y44812324D02*
X2179524Y44717086D01*
X2179524Y44717086D02*
X2084286Y44669467D01*
X27746666Y65905181D02*
X27746666Y65190896D01*
X27746666Y65190896D02*
X27699047Y65048039D01*
X27699047Y65048039D02*
X27603809Y64952800D01*
X27603809Y64952800D02*
X27460952Y64905181D01*
X27460952Y64905181D02*
X27365714Y64905181D01*
X28175238Y65809943D02*
X28222857Y65857562D01*
X28222857Y65857562D02*
X28318095Y65905181D01*
X28318095Y65905181D02*
X28556190Y65905181D01*
X28556190Y65905181D02*
X28651428Y65857562D01*
X28651428Y65857562D02*
X28699047Y65809943D01*
X28699047Y65809943D02*
X28746666Y65714705D01*
X28746666Y65714705D02*
X28746666Y65619467D01*
X28746666Y65619467D02*
X28699047Y65476610D01*
X28699047Y65476610D02*
X28127619Y64905181D01*
X28127619Y64905181D02*
X28746666Y64905181D01*
X7457666Y66110181D02*
X7457666Y65395896D01*
X7457666Y65395896D02*
X7410047Y65253039D01*
X7410047Y65253039D02*
X7314809Y65157800D01*
X7314809Y65157800D02*
X7171952Y65110181D01*
X7171952Y65110181D02*
X7076714Y65110181D01*
X8457666Y65110181D02*
X7886238Y65110181D01*
X8171952Y65110181D02*
X8171952Y66110181D01*
X8171952Y66110181D02*
X8076714Y65967324D01*
X8076714Y65967324D02*
X7981476Y65872086D01*
X7981476Y65872086D02*
X7886238Y65824467D01*
D15*
X5296000Y24450000D02*
X5140000Y24450000D01*
X2980000Y24450000D02*
X2824000Y24450000D01*
X5138608Y21217666D02*
G75*
G03*
X5295515Y24449999I-1078608J1672334D01*
G01*
X5139836Y21848871D02*
G75*
G03*
X5139999Y23930960I-1079836J1041129D01*
G01*
X2980001Y23930960D02*
G75*
G03*
X2980164Y21848871I1079999J-1040960D01*
G01*
X2824485Y24449999D02*
G75*
G03*
X2981392Y21217666I1235515J-1559999D01*
G01*
X10240000Y7480000D02*
X16780000Y7480000D01*
X10240000Y7150000D02*
X10240000Y7480000D01*
X10240000Y5070000D02*
X10240000Y4740000D01*
X10240000Y4740000D02*
X16780000Y4740000D01*
X16780000Y7480000D02*
X16780000Y7150000D01*
X16780000Y4740000D02*
X16780000Y5070000D01*
X16790000Y1670000D02*
X10250000Y1670000D01*
X16790000Y2000000D02*
X16790000Y1670000D01*
X16790000Y4080000D02*
X16790000Y4410000D01*
X16790000Y4410000D02*
X10250000Y4410000D01*
X10250000Y1670000D02*
X10250000Y2000000D01*
X10250000Y4410000D02*
X10250000Y4080000D01*
X61380000Y64080000D02*
X54840000Y64080000D01*
X61380000Y64410000D02*
X61380000Y64080000D01*
X61380000Y66490000D02*
X61380000Y66820000D01*
X61380000Y66820000D02*
X54840000Y66820000D01*
X54840000Y64080000D02*
X54840000Y64410000D01*
X54840000Y66820000D02*
X54840000Y66490000D01*
X39200000Y59970000D02*
X32660000Y59970000D01*
X39200000Y60300000D02*
X39200000Y59970000D01*
X39200000Y62380000D02*
X39200000Y62710000D01*
X39200000Y62710000D02*
X32660000Y62710000D01*
X32660000Y59970000D02*
X32660000Y60300000D01*
X32660000Y62710000D02*
X32660000Y62380000D01*
X5296000Y16800000D02*
X5140000Y16800000D01*
X2980000Y16800000D02*
X2824000Y16800000D01*
X5138608Y13567666D02*
G75*
G03*
X5295515Y16799999I-1078608J1672334D01*
G01*
X5139836Y14198871D02*
G75*
G03*
X5139999Y16280960I-1079836J1041129D01*
G01*
X2980001Y16280960D02*
G75*
G03*
X2980164Y14198871I1079999J-1040960D01*
G01*
X2824485Y16799999D02*
G75*
G03*
X2981392Y13567666I1235515J-1559999D01*
G01*
X5296000Y9630000D02*
X5140000Y9630000D01*
X2980000Y9630000D02*
X2824000Y9630000D01*
X5138608Y6397666D02*
G75*
G03*
X5295515Y9629999I-1078608J1672334D01*
G01*
X5139836Y7028871D02*
G75*
G03*
X5139999Y9110960I-1079836J1041129D01*
G01*
X2980001Y9110960D02*
G75*
G03*
X2980164Y7028871I1079999J-1040960D01*
G01*
X2824485Y9629999D02*
G75*
G03*
X2981392Y6397666I1235515J-1559999D01*
G01*
X43100000Y56480000D02*
X43100000Y59220000D01*
X43100000Y56480000D02*
X37860000Y56480000D01*
X43100000Y59220000D02*
X37860000Y59220000D01*
X37860000Y56480000D02*
X37860000Y59220000D01*
X65920000Y56160000D02*
X63180000Y56160000D01*
X65920000Y56160000D02*
X65920000Y50920000D01*
X63180000Y56160000D02*
X63180000Y50920000D01*
X65920000Y50920000D02*
X63180000Y50920000D01*
X4320000Y66300000D02*
X1520000Y66300000D01*
X1520000Y66300000D02*
X1520000Y53260000D01*
X4320000Y63590000D02*
X1520000Y63590000D01*
X4320000Y53260000D02*
X4320000Y66300000D01*
X1520000Y53260000D02*
X4320000Y53260000D01*
X11491000Y64125000D02*
X11491000Y13205000D01*
X11491000Y13205000D02*
X24411000Y13205000D01*
X16951000Y64125000D02*
X11491000Y64125000D01*
X24411000Y64125000D02*
X18951000Y64125000D01*
X24411000Y13205000D02*
X24411000Y64125000D01*
X16951000Y64125000D02*
G75*
G03*
X18951000Y64125000I1000000J0D01*
G01*
X16780000Y7800000D02*
X10240000Y7800000D01*
X16780000Y8130000D02*
X16780000Y7800000D01*
X16780000Y10210000D02*
X16780000Y10540000D01*
X16780000Y10540000D02*
X10240000Y10540000D01*
X10240000Y7800000D02*
X10240000Y8130000D01*
X10240000Y10540000D02*
X10240000Y10210000D01*
X45230000Y7940000D02*
X45230000Y6610000D01*
X43900000Y7940000D02*
X45230000Y7940000D01*
X42630000Y7940000D02*
X29870000Y7940000D01*
X42630000Y7940000D02*
X42630000Y5280000D01*
X29870000Y7940000D02*
X29870000Y5280000D01*
X42630000Y5280000D02*
X29870000Y5280000D01*
X47859000Y56120000D02*
X47859000Y15360000D01*
X47859000Y15360000D02*
X60779000Y15360000D01*
X53319000Y56120000D02*
X47859000Y56120000D01*
X60779000Y56120000D02*
X55319000Y56120000D01*
X60779000Y15360000D02*
X60779000Y56120000D01*
X53319000Y56120000D02*
G75*
G03*
X55319000Y56120000I1000000J0D01*
G01*
X35270000Y56050000D02*
X35270000Y25450000D01*
X35270000Y25450000D02*
X40570000Y25450000D01*
X36920000Y56050000D02*
X35270000Y56050000D01*
X40570000Y56050000D02*
X38920000Y56050000D01*
X40570000Y25450000D02*
X40570000Y56050000D01*
X36920000Y56050000D02*
G75*
G03*
X38920000Y56050000I1000000J0D01*
G01*
X2970000Y42400000D02*
X5710000Y42400000D01*
X2970000Y42400000D02*
X2970000Y47640000D01*
X5710000Y42400000D02*
X5710000Y47640000D01*
X2970000Y47640000D02*
X5710000Y47640000D01*
M02*
